<svg width="1199" height="1163" viewBox="0 0 1199 1163" fill="none" xmlns="http://www.w3.org/2000/svg">
<path d="M599.906 1162.22C930.766 1162.22 1198.98 1007.36 1198.98 816.342C1198.98 625.319 930.766 470.464 599.906 470.464C269.046 470.464 0.830566 625.319 0.830566 816.342C0.830566 1007.36 269.046 1162.22 599.906 1162.22Z" fill="#F0F0F0"/>
<path d="M943.952 936.355C904.668 913.675 904.668 876.908 943.952 854.228C983.236 831.547 1046.93 831.547 1086.21 854.228C1125.5 876.908 1125.5 913.675 1086.21 936.355C1046.93 959.036 983.236 959.036 943.952 936.355Z" fill="#E0E0E0"/>
<path d="M144.948 939.508L41.6146 879.858C35.7919 876.501 35.7919 871.034 41.6146 867.678L642.673 520.656C645.94 519.001 649.55 518.139 653.212 518.139C656.875 518.139 660.485 519.001 663.752 520.656L767.111 580.307C772.933 583.663 772.933 589.13 767.111 592.487L166.052 939.508C162.781 941.164 159.166 942.026 155.5 942.026C151.834 942.026 148.219 941.164 144.948 939.508Z" fill="#E0E0E0"/>
<path d="M516.38 833.174L605.22 781.813C614.374 776.524 618.95 769.608 618.95 762.667C618.95 755.725 618.95 750.309 618.95 750.309L526.804 698.337C524.231 696.673 522.087 694.423 520.549 691.771C519.011 689.12 518.123 686.142 517.956 683.081V573.518L362.854 663.172V772.685C363.033 775.742 363.926 778.716 365.463 781.365C367 784.015 369.137 786.267 371.702 787.941L450.118 833.098C468.374 843.752 498.072 843.752 516.38 833.174Z" fill="#14B4CA"/>
<g opacity="0.6">
<path d="M516.38 833.174L605.22 781.813C614.374 776.524 618.95 769.608 618.95 762.667C618.95 755.725 618.95 750.309 618.95 750.309L526.804 698.337C524.231 696.673 522.087 694.423 520.549 691.771C519.011 689.12 518.123 686.142 517.956 683.081V573.518L362.854 663.172V772.685C363.033 775.742 363.926 778.716 365.463 781.365C367 784.015 369.137 786.267 371.702 787.941L450.118 833.098C468.374 843.752 498.072 843.752 516.38 833.174Z" fill="black"/>
</g>
<path opacity="0.3" d="M400.053 792.085V804.392L371.626 787.991C369.061 786.32 366.926 784.067 365.393 781.417C363.86 778.766 362.973 775.792 362.803 772.735V663.172L392.349 646.111C392.959 653.612 393.62 661.367 394.256 668.995L373.482 680.945V766.506C373.647 769.567 374.535 772.546 376.073 775.197C377.611 777.849 379.755 780.099 382.331 781.762L400.053 792.085Z" fill="black"/>
<path d="M373.482 766.531C373.657 769.59 374.549 772.565 376.086 775.215C377.623 777.865 379.763 780.117 382.331 781.787L450.016 820.792C468.324 831.344 498.022 831.369 516.354 820.792L605.347 769.43C623.68 758.853 623.68 741.715 605.347 731.138L537.611 692.133C535.049 690.458 532.916 688.205 531.383 685.556C529.851 682.906 528.962 679.933 528.788 676.877V591.292L373.686 680.946L373.482 766.531Z" fill="#14B4CA"/>
<path opacity="0.3" d="M373.482 766.531C373.657 769.59 374.549 772.565 376.086 775.215C377.623 777.865 379.763 780.117 382.331 781.787L450.016 820.792C468.324 831.344 498.022 831.369 516.354 820.792L605.347 769.43C623.68 758.853 623.68 741.715 605.347 731.138L537.611 692.133C535.049 690.458 532.916 688.205 531.383 685.556C529.851 682.906 528.962 679.933 528.788 676.877V591.292L373.686 680.946L373.482 766.531Z" fill="black"/>
<path opacity="0.5" d="M555.537 702.584L537.509 692.184C534.947 690.509 532.814 688.256 531.281 685.607C529.749 682.957 528.86 679.984 528.686 676.928V591.292L373.584 680.946V766.531C373.759 769.59 374.651 772.565 376.188 775.215C377.725 777.865 379.864 780.117 382.432 781.787L400.231 791.958L555.537 702.584Z" fill="black"/>
<path d="M618.976 750.335V762.692C618.976 769.633 614.373 776.524 605.245 781.838L516.252 833.174C506.513 838.373 495.636 841.073 484.596 841.031V828.725C495.636 828.766 506.513 826.066 516.252 820.868L605.245 769.481C614.373 764.217 618.976 757.276 618.976 750.335Z" fill="#14B4CA"/>
<path opacity="0.5" d="M618.976 750.335V762.692C618.976 769.633 614.373 776.524 605.245 781.838L516.252 833.174C506.513 838.373 495.636 841.073 484.596 841.031V828.725C495.636 828.766 506.513 826.066 516.252 820.868L605.245 769.481C614.373 764.217 618.976 757.276 618.976 750.335Z" fill="black"/>
<path d="M124.302 872.891C127.655 874.51 131.342 875.319 135.065 875.253C138.788 875.187 142.443 874.247 145.737 872.509L745.804 526.072C749.021 523.974 751.699 521.147 753.621 517.82C755.542 514.494 756.653 510.762 756.864 506.926V21.4821C756.749 17.7505 755.754 14.0987 753.96 10.8246C752.166 7.55036 749.624 4.74636 746.541 2.64106C743.192 1.01974 739.508 0.211586 735.788 0.282276C732.068 0.352967 728.417 1.30051 725.132 3.04788L125.065 349.587C121.858 351.698 119.197 354.538 117.297 357.874C115.397 361.21 114.312 364.949 114.131 368.784V854.151C114.245 857.852 115.224 861.475 116.99 864.729C118.756 867.984 121.261 870.779 124.302 872.891Z" fill="#14B4CA"/>
<path d="M145.813 872.484L745.88 526.047C749.102 523.953 751.783 521.127 753.705 517.8C755.627 514.472 756.736 510.738 756.941 506.901V21.4821C756.941 14.439 751.982 11.5658 745.88 15.1001L145.813 361.537C142.594 363.634 139.915 366.461 137.993 369.787C136.071 373.114 134.961 376.847 134.752 380.683V866.102C134.752 873.145 139.711 876.018 145.813 872.484Z" fill="#14B4CA"/>
<path opacity="0.5" d="M145.813 872.484L745.88 526.047C749.102 523.953 751.783 521.127 753.705 517.8C755.627 514.472 756.736 510.738 756.941 506.901V21.4821C756.941 14.439 751.982 11.5658 745.88 15.1001L145.813 361.537C142.594 363.634 139.915 366.461 137.993 369.787C136.071 373.114 134.961 376.847 134.752 380.683V866.102C134.752 873.145 139.711 876.018 145.813 872.484Z" fill="black"/>
<path d="M144.186 885.095C141.039 886.469 137.632 887.144 134.199 887.074C130.766 887.003 127.39 886.19 124.302 884.689C121.254 882.572 118.745 879.768 116.979 876.505C115.212 873.241 114.237 869.608 114.131 865.898V821.707L134.854 833.708V877.9C134.727 884.333 138.821 887.257 144.186 885.095Z" fill="#14B4CA"/>
<path opacity="0.5" d="M144.186 885.095C141.039 886.469 137.632 887.144 134.199 887.074C130.766 887.003 127.39 886.19 124.302 884.689C121.254 882.572 118.745 879.768 116.979 876.505C115.212 873.241 114.237 869.608 114.131 865.898V821.707L134.854 833.708V877.9C134.727 884.333 138.821 887.257 144.186 885.095Z" fill="black"/>
<path d="M134.727 833.708V877.9C134.727 884.943 139.812 887.791 145.788 884.282L745.855 537.845C749.059 535.756 751.729 532.945 753.649 529.638C755.57 526.33 756.689 522.618 756.915 518.8V474.406L134.727 833.708Z" fill="#14B4CA"/>
<path opacity="0.3" d="M134.752 833.607V877.9C134.752 884.943 139.838 887.791 145.813 884.282L745.88 537.845C749.079 535.753 751.744 532.941 753.661 529.634C755.577 526.327 756.692 522.616 756.915 518.8V474.406L134.752 833.607Z" fill="black"/>
<path d="M155.475 778.151V387.574C155.593 385.273 156.254 383.032 157.403 381.035C158.552 379.038 160.156 377.34 162.086 376.081L729.454 48.4089C733.116 46.2985 736.091 48.002 736.091 52.2229V443.004C735.967 445.307 735.302 447.548 734.149 449.545C732.996 451.542 731.387 453.239 729.454 454.497L162.111 782.092C158.45 784.203 155.475 782.474 155.475 778.151Z" fill="#14B4CA"/>
<path d="M155.475 778.151V387.574C155.593 385.273 156.254 383.032 157.403 381.035C158.552 379.038 160.156 377.34 162.086 376.081L729.454 48.4089C733.116 46.2985 736.091 48.002 736.091 52.2229V443.004C735.967 445.307 735.302 447.548 734.149 449.545C732.996 451.542 731.387 453.239 729.454 454.497L162.111 782.092C158.45 784.203 155.475 782.474 155.475 778.151Z" fill="#263238"/>
<path d="M445.821 668.131C442.801 670.095 440.287 672.744 438.484 675.864C436.681 678.983 435.641 682.484 435.447 686.082C435.447 692.693 440.1 695.388 445.821 692.082C448.844 690.116 451.36 687.462 453.163 684.338C454.966 681.214 456.005 677.708 456.195 674.106C456.195 667.495 451.542 664.825 445.821 668.131Z" fill="#14B4CA"/>
<path opacity="0.7" d="M138.007 369.75C136.036 373.062 134.91 376.808 134.727 380.658V833.708L114.131 821.707V368.784C114.265 364.921 115.385 361.157 117.386 357.85L138.007 369.75Z" fill="black"/>
<path opacity="0.3" d="M756.813 19.6514C756.025 13.9559 751.423 12.0235 745.854 15.1001L145.787 361.537C142.534 363.572 139.849 366.397 137.981 369.75L117.233 357.774C119.113 354.422 121.806 351.598 125.065 349.561L725.132 3.14959C728.421 1.40197 732.076 0.454385 735.8 0.3837C739.525 0.313016 743.213 1.12123 746.566 2.74276C749.385 4.66337 751.759 7.16687 753.526 10.084C755.294 13.0011 756.415 16.2638 756.813 19.6514Z" fill="black"/>
<path d="M789.181 79.4038C788.29 78.9566 787.293 78.7605 786.299 78.8366C785.304 78.9128 784.349 79.2583 783.536 79.8361L217.338 406.923C215.104 408.401 213.249 410.385 211.924 412.712C210.598 415.04 209.84 417.648 209.71 420.323V808.511C209.63 809.821 209.891 811.13 210.465 812.31C211.04 813.491 211.909 814.503 212.99 815.249C214.236 815.935 220.897 819.8 222.881 820.868C223.582 821.225 224.366 821.39 225.153 821.345C225.939 821.301 226.699 821.048 227.356 820.614L793.427 493.526C795.662 492.048 797.516 490.065 798.841 487.737C800.167 485.409 800.925 482.802 801.055 480.126V89.9305C801.169 88.9444 801.006 87.9463 800.583 87.048C800.161 86.1497 799.497 85.3869 798.665 84.8451C797.394 84.0061 790.605 80.2429 789.181 79.4038Z" fill="#14B4CA"/>
<path d="M227.229 412.416L793.453 85.4554C797.725 82.9127 801.081 84.9977 801.081 89.9305V480.126C800.951 482.802 800.192 485.409 798.867 487.737C797.542 490.065 795.687 492.048 793.453 493.526L227.229 820.614C222.957 823.156 219.601 819.063 219.601 814.13V425.815C219.735 423.141 220.495 420.535 221.82 418.208C223.145 415.88 224.998 413.896 227.229 412.416Z" fill="#FAFAFA"/>
<path d="M796.911 86.9301C798.411 86.9301 798.64 88.8117 798.64 89.9305V480.126C798.503 482.367 797.846 484.545 796.72 486.487C795.595 488.429 794.032 490.082 792.156 491.314L226.009 818.401C225.629 818.648 225.19 818.788 224.737 818.808C223.313 818.808 222.195 816.622 222.195 814.13V425.815C222.317 423.576 222.955 421.394 224.057 419.441C225.159 417.487 226.697 415.814 228.551 414.551L794.725 87.6421C795.38 87.2194 796.133 86.9741 796.911 86.9301ZM796.911 84.3875C795.686 84.4396 794.495 84.8075 793.453 85.4554L227.229 412.416C224.998 413.896 223.145 415.88 221.82 418.208C220.495 420.535 219.735 423.141 219.601 425.815V814.13C219.601 818.046 221.788 821.351 224.686 821.351C225.584 821.334 226.461 821.08 227.229 820.614L793.428 493.526C795.662 492.048 797.517 490.065 798.842 487.737C800.167 485.409 800.926 482.802 801.056 480.126V89.9305C801.056 86.4216 799.327 84.3875 796.784 84.3875H796.911Z" fill="#E0E0E0"/>
<path d="M212.837 815.249C213.677 815.681 219.703 819.113 222.347 820.639C221.397 819.851 220.645 818.853 220.151 817.722C219.656 816.592 219.433 815.362 219.499 814.13V451.166L209.583 445.368V808.511C209.501 809.819 209.757 811.126 210.327 812.306C210.897 813.486 211.762 814.5 212.837 815.249Z" fill="#F0F0F0"/>
<path d="M801.183 89.8542C801.183 84.9723 797.699 82.989 793.555 85.4554L227.229 412.416C224.998 413.896 223.145 415.88 221.82 418.208C220.495 420.535 219.735 423.141 219.601 425.815V451.242L801.183 115.281V89.8542Z" fill="#14B4CA"/>
<g opacity="0.4">
<path d="M793.453 85.4554L227.229 412.39C224.957 413.823 223.085 415.809 221.788 418.162L211.948 412.441C213.242 410.17 215.098 408.271 217.338 406.923L783.537 79.8361C784.347 79.2543 785.301 78.9042 786.296 78.8236C787.29 78.743 788.288 78.9348 789.182 79.3784C790.555 80.2429 796.988 83.8789 798.64 84.7689C797.785 84.4518 796.866 84.3486 795.962 84.4683C795.058 84.5879 794.197 84.9268 793.453 85.4554Z" fill="white"/>
</g>
<path opacity="0.15" d="M209.583 445.394V420.196C209.687 417.45 210.502 414.778 211.948 412.441L221.813 418.137C220.388 420.433 219.591 423.063 219.499 425.765V451.191L209.583 445.394Z" fill="black"/>
<path d="M681.779 382.565L342.665 578.349C341.016 579.419 339.643 580.864 338.658 582.565C337.672 584.266 337.103 586.176 336.995 588.139V685.37C337.103 687.333 337.672 689.242 338.658 690.943C339.643 692.645 341.016 694.089 342.665 695.159L352.556 700.855C354.314 701.744 356.256 702.207 358.226 702.207C360.196 702.207 362.139 701.744 363.896 700.855L702.96 505.07C704.609 503.994 705.982 502.545 706.967 500.84C707.953 499.135 708.522 497.222 708.63 495.255V397.999C708.522 396.036 707.952 394.126 706.967 392.425C705.982 390.724 704.609 389.28 702.96 388.209L693.043 382.514C691.293 381.639 689.362 381.188 687.405 381.197C685.449 381.206 683.522 381.674 681.779 382.565Z" fill="#14B4CA"/>
<path opacity="0.5" d="M708.63 397.134C708.223 394.21 705.858 393.142 703.011 394.795L363.896 590.58C362.224 591.619 360.849 593.073 359.905 594.8L338.673 582.545C339.625 580.844 340.989 579.41 342.64 578.375L681.779 382.59C683.532 381.699 685.471 381.235 687.437 381.235C689.403 381.235 691.342 381.699 693.094 382.59L703.011 388.286C704.522 389.276 705.806 390.578 706.775 392.104C707.744 393.63 708.376 395.345 708.63 397.134Z" fill="white"/>
<path d="M362.93 701.338C361.27 701.992 359.49 702.289 357.707 702.211C355.924 702.132 354.178 701.678 352.582 700.88L342.665 695.184C341.019 694.111 339.648 692.666 338.663 690.966C337.678 689.265 337.107 687.357 336.995 685.395V588.164C337.072 586.179 337.649 584.246 338.673 582.545L359.904 594.8C358.873 596.48 358.294 598.399 358.226 600.369V697.625C358.226 700.854 360.26 702.355 362.93 701.338Z" fill="#263238"/>
<path d="M363.897 590.58L703.011 394.795C706.138 392.99 708.681 394.439 708.681 398.05V495.306C708.573 497.272 708.004 499.186 707.018 500.891C706.033 502.596 704.66 504.045 703.011 505.121L363.947 700.905C360.82 702.711 358.277 701.236 358.277 697.625V600.394C358.379 598.432 358.941 596.522 359.917 594.817C360.893 593.112 362.256 591.661 363.897 590.58Z" fill="#14B4CA"/>
<path d="M591.872 434.486L342.691 578.375C341.04 579.41 339.676 580.844 338.725 582.545L359.956 594.8C360.9 593.073 362.275 591.619 363.948 590.58L613.128 446.716L591.872 434.486Z" fill="#455A64"/>
<path d="M613.077 446.716L363.897 590.58C362.247 591.655 360.874 593.104 359.889 594.809C358.904 596.515 358.334 598.428 358.227 600.394V697.6C358.227 701.21 360.769 702.685 363.897 700.88L613.077 557.016V446.716Z" fill="#37474F"/>
<path d="M421.361 578.731L549.943 504.511C555.257 501.434 559.58 503.621 559.58 509.392C559.342 512.634 558.343 515.774 556.664 518.557C554.986 521.341 552.674 523.689 549.918 525.411L421.361 599.657C416.047 602.733 411.699 600.547 411.699 594.775C411.939 591.53 412.938 588.388 414.616 585.601C416.295 582.814 418.605 580.46 421.361 578.731Z" fill="#14B4CA"/>
<path d="M447.703 603.318C447.727 603.291 447.756 603.27 447.789 603.255C447.822 603.24 447.857 603.232 447.893 603.232C447.929 603.232 447.965 603.24 447.998 603.255C448.031 603.27 448.06 603.291 448.084 603.318C448.198 603.491 448.251 603.697 448.237 603.903V618.371C448.238 619.768 448.119 621.164 447.881 622.541C447.671 623.799 447.312 625.028 446.813 626.202C446.357 627.278 445.758 628.287 445.033 629.203C444.318 630.052 443.457 630.766 442.49 631.313C441.733 631.806 440.851 632.071 439.948 632.076C439.602 632.048 439.267 631.951 438.961 631.789C438.654 631.627 438.385 631.405 438.168 631.135C437.61 630.387 437.243 629.514 437.1 628.592C436.856 627.362 436.746 626.109 436.769 624.855V610.361C436.768 610.108 436.82 609.857 436.922 609.624C436.984 609.414 437.119 609.234 437.303 609.115L438.905 608.175C438.957 608.126 439.025 608.1 439.096 608.1C439.167 608.1 439.235 608.126 439.286 608.175C439.404 608.346 439.458 608.553 439.439 608.76V623.049C439.42 623.835 439.496 624.621 439.668 625.389C439.738 625.879 439.95 626.339 440.278 626.711C440.392 626.847 440.537 626.955 440.7 627.025C440.864 627.096 441.041 627.128 441.219 627.118C441.654 627.089 442.074 626.949 442.439 626.711C442.892 626.44 443.303 626.106 443.66 625.719C444.057 625.262 444.382 624.748 444.626 624.193C444.913 623.541 445.126 622.859 445.262 622.159C445.41 621.32 445.478 620.469 445.465 619.617V605.302C445.473 605.046 445.534 604.795 445.643 604.564C445.705 604.355 445.841 604.174 446.024 604.056L447.703 603.318Z" fill="#FAFAFA"/>
<path d="M457.67 616.998C457.683 616.811 457.639 616.625 457.543 616.464C457.482 616.398 457.407 616.347 457.323 616.316C457.239 616.285 457.148 616.275 457.06 616.286C456.747 616.243 456.431 616.243 456.119 616.286L454.644 616.565C454.168 616.684 453.671 616.684 453.195 616.565C452.821 616.445 452.499 616.204 452.279 615.879C452.031 615.466 451.866 615.008 451.796 614.531C451.548 613.169 451.548 611.774 451.796 610.412C451.987 609.631 452.26 608.873 452.61 608.149C452.958 607.427 453.384 606.745 453.881 606.115C454.362 605.515 454.948 605.007 455.61 604.615C456.145 604.289 456.743 604.081 457.365 604.005C457.816 603.958 458.27 604.056 458.661 604.284C459.034 604.512 459.328 604.849 459.501 605.251C459.706 605.725 459.818 606.234 459.831 606.751C459.858 607.006 459.804 607.264 459.678 607.488C459.616 607.698 459.481 607.878 459.297 607.997L457.772 608.887C457.702 608.927 457.623 608.948 457.543 608.948C457.462 608.948 457.383 608.927 457.314 608.887L456.983 608.632C456.852 608.529 456.693 608.467 456.526 608.454C456.199 608.491 455.885 608.604 455.61 608.785C455.211 609.026 454.858 609.336 454.568 609.7C454.26 610.101 454.099 610.594 454.11 611.099C454.074 611.292 454.074 611.49 454.11 611.684C454.159 611.755 454.223 611.815 454.298 611.859C454.372 611.903 454.456 611.93 454.542 611.938C454.82 611.984 455.104 611.984 455.381 611.938L456.805 611.684C458 611.455 458.814 611.684 459.348 612.345C459.909 613.287 460.166 614.379 460.085 615.472C460.079 616.228 459.976 616.98 459.78 617.71C459.579 618.503 459.289 619.27 458.916 619.998C458.542 620.751 458.072 621.452 457.517 622.083C456.991 622.701 456.363 623.225 455.661 623.634C455.102 623.991 454.466 624.209 453.805 624.27C453.327 624.287 452.856 624.153 452.457 623.888C452.065 623.62 451.763 623.239 451.593 622.795C451.387 622.313 451.284 621.793 451.288 621.269C451.264 621.006 451.317 620.741 451.44 620.507C451.503 620.297 451.638 620.117 451.822 619.998L453.347 619.108C453.551 619.108 453.703 618.981 453.805 619.108L454.136 619.464C454.203 619.54 454.285 619.601 454.377 619.645C454.469 619.689 454.568 619.714 454.669 619.718C455.027 619.72 455.376 619.604 455.661 619.388C456.12 619.127 456.533 618.792 456.882 618.396C457.055 618.187 457.2 617.956 457.314 617.71C457.493 617.508 457.616 617.262 457.67 616.998Z" fill="#FAFAFA"/>
<path d="M462.857 610.107C462.852 608.786 462.963 607.468 463.187 606.166C463.4 604.941 463.732 603.741 464.179 602.581C464.553 601.542 465.066 600.558 465.705 599.657C466.238 598.882 466.931 598.232 467.739 597.75C468.328 597.354 469.047 597.199 469.747 597.318C470.369 597.461 470.913 597.834 471.273 598.36C471.751 599.05 472.088 599.828 472.265 600.648C472.508 601.716 472.628 602.808 472.621 603.903V605.479C472.629 605.745 472.567 606.008 472.443 606.242C472.38 606.452 472.245 606.632 472.061 606.751L465.45 610.59C465.435 611.038 465.495 611.485 465.628 611.912C465.727 612.2 465.903 612.455 466.137 612.65C466.345 612.815 466.608 612.897 466.874 612.879C467.181 612.842 467.477 612.738 467.739 612.573C468.123 612.365 468.468 612.089 468.756 611.76C469.016 611.467 469.238 611.142 469.417 610.794C469.525 610.593 469.644 610.398 469.773 610.209C469.882 610.08 470.011 609.968 470.154 609.878L471.731 608.963C471.785 608.92 471.852 608.896 471.921 608.896C471.991 608.896 472.058 608.92 472.112 608.963C472.179 609.043 472.227 609.137 472.253 609.238C472.28 609.339 472.284 609.445 472.265 609.548C472.237 610.043 472.134 610.532 471.959 610.997C471.74 611.702 471.45 612.384 471.095 613.031C470.697 613.776 470.22 614.475 469.671 615.116C469.124 615.771 468.471 616.33 467.739 616.769C467.138 617.162 466.418 617.333 465.705 617.252C465.079 617.102 464.534 616.72 464.179 616.184C463.678 615.413 463.341 614.548 463.187 613.641C462.956 612.478 462.845 611.293 462.857 610.107ZM467.739 601.996C467.348 602.207 467.009 602.502 466.747 602.861C466.465 603.217 466.234 603.61 466.061 604.03C465.882 604.45 465.738 604.884 465.628 605.327C465.539 605.729 465.479 606.137 465.45 606.547L469.925 604.005C469.899 603.654 469.848 603.306 469.773 602.962C469.734 602.655 469.611 602.365 469.417 602.123C469.341 602.013 469.243 601.92 469.129 601.85C469.015 601.78 468.888 601.735 468.756 601.716C468.394 601.686 468.034 601.785 467.739 601.996Z" fill="#FAFAFA"/>
<path d="M480.604 594.902C479.834 595.342 479.227 596.02 478.875 596.834C478.48 597.908 478.298 599.048 478.342 600.191V609.37C478.345 609.632 478.293 609.892 478.189 610.133C478.127 610.342 477.991 610.523 477.808 610.641L476.307 611.506C476.284 611.533 476.254 611.554 476.221 611.569C476.188 611.584 476.153 611.592 476.117 611.592C476.081 611.592 476.045 611.584 476.012 611.569C475.979 611.554 475.95 611.533 475.926 611.506C475.812 611.333 475.759 611.127 475.773 610.921V594.47C475.775 594.208 475.827 593.949 475.926 593.707C475.997 593.502 476.13 593.324 476.307 593.198L477.808 592.334C477.859 592.286 477.927 592.259 477.998 592.259C478.069 592.259 478.137 592.286 478.189 592.334C478.307 592.495 478.361 592.694 478.342 592.893V593.707C478.645 593.025 479.02 592.377 479.46 591.775C479.862 591.218 480.384 590.757 480.986 590.427L481.901 589.893C481.949 589.846 482.013 589.82 482.079 589.82C482.146 589.82 482.21 589.846 482.257 589.893C482.38 590.063 482.443 590.268 482.435 590.478V592.792C482.431 593.056 482.37 593.316 482.257 593.554C482.193 593.756 482.069 593.934 481.901 594.063L480.604 594.902Z" fill="#FAFAFA"/>
<path d="M499.573 593.682C499.596 593.655 499.626 593.633 499.659 593.618C499.692 593.603 499.727 593.595 499.763 593.595C499.799 593.595 499.835 593.603 499.868 593.618C499.901 593.633 499.93 593.655 499.954 593.682C500.068 593.854 500.121 594.06 500.107 594.266V596.809C500.105 597.071 500.054 597.33 499.954 597.572C499.867 597.761 499.736 597.926 499.573 598.055L490.877 603.14C490.825 603.189 490.757 603.215 490.686 603.215C490.615 603.215 490.547 603.189 490.495 603.14C490.382 602.977 490.328 602.779 490.343 602.581V579.697C490.344 579.435 490.396 579.176 490.495 578.934C490.566 578.736 490.7 578.566 490.877 578.451L492.479 577.51C492.53 577.462 492.599 577.435 492.669 577.435C492.74 577.435 492.808 577.462 492.86 577.51C492.974 577.674 493.028 577.871 493.013 578.07V597.419L499.573 593.682Z" fill="#FAFAFA"/>
<path d="M507.379 574.866C507.951 574.47 508.642 574.281 509.336 574.332C509.932 574.379 510.487 574.652 510.887 575.095C511.361 575.639 511.709 576.282 511.905 576.976C512.176 577.876 512.33 578.808 512.362 579.748C512.362 579.951 512.362 580.231 512.362 580.561V582.519C512.362 582.824 512.362 583.104 512.362 583.333C512.312 584.438 512.159 585.536 511.905 586.613C511.669 587.662 511.329 588.684 510.887 589.664C510.485 590.576 509.963 591.431 509.336 592.207C508.8 592.91 508.136 593.505 507.379 593.961C506.79 594.344 506.096 594.531 505.395 594.495C504.808 594.444 504.263 594.172 503.87 593.732C503.382 593.208 503.033 592.57 502.853 591.876C502.581 590.976 502.427 590.044 502.395 589.105C502.395 588.901 502.395 588.647 502.395 588.317V586.359C502.395 586.028 502.395 585.748 502.395 585.545C502.425 584.431 502.57 583.324 502.827 582.24C503.075 581.183 503.424 580.152 503.87 579.163C504.274 578.257 504.786 577.403 505.395 576.62C505.934 575.911 506.608 575.314 507.379 574.866ZM509.769 581.426C509.768 580.863 509.673 580.305 509.489 579.773C509.395 579.449 509.198 579.164 508.93 578.96C508.713 578.814 508.451 578.751 508.192 578.782C507.902 578.836 507.625 578.949 507.379 579.112C507.08 579.276 506.806 579.481 506.565 579.722C506.273 580.026 506.025 580.368 505.828 580.739C505.572 581.202 505.384 581.699 505.268 582.214C505.101 582.864 504.999 583.528 504.963 584.197C504.963 584.401 504.963 584.63 504.963 584.909V586.715C504.963 586.994 504.963 587.223 504.963 587.376C504.987 587.938 505.09 588.495 505.268 589.028C505.361 589.353 505.558 589.639 505.828 589.842C505.933 589.917 506.053 589.969 506.18 589.995C506.307 590.022 506.438 590.021 506.565 589.995C506.853 589.946 507.129 589.842 507.379 589.69C507.673 589.519 507.946 589.315 508.192 589.079C508.476 588.77 508.723 588.428 508.93 588.062C509.174 587.595 509.362 587.1 509.489 586.588C509.655 585.939 509.749 585.274 509.769 584.604C509.784 584.367 509.784 584.129 509.769 583.892V582.112C509.783 581.884 509.783 581.655 509.769 581.426Z" fill="#FAFAFA"/>
<path d="M520.143 589.74C520.468 589.542 520.76 589.293 521.007 589.003C521.313 588.644 521.578 588.252 521.795 587.833C522.048 587.322 522.244 586.785 522.38 586.232C522.537 585.608 522.613 584.967 522.609 584.325V583.028C522.609 583.282 522.355 583.587 522.177 583.943C522.003 584.315 521.798 584.672 521.567 585.011C521.301 585.369 521.012 585.708 520.702 586.028C520.383 586.363 520.014 586.646 519.609 586.867C519.348 587.045 519.053 587.169 518.743 587.23C518.432 587.291 518.113 587.289 517.804 587.223C517.238 587.046 516.753 586.677 516.43 586.181C516.016 585.524 515.715 584.802 515.541 584.045C515.324 583.085 515.204 582.105 515.185 581.121C515.185 580.79 515.185 580.383 515.185 579.9C515.185 579.417 515.185 579.01 515.185 578.654C515.216 577.537 515.335 576.423 515.541 575.324C515.749 574.241 516.047 573.178 516.43 572.145C516.79 571.248 517.251 570.395 517.804 569.603C518.272 568.902 518.888 568.312 519.609 567.874C519.947 567.67 520.316 567.524 520.702 567.441C520.988 567.388 521.281 567.388 521.567 567.441C521.792 567.505 522.001 567.618 522.177 567.772C522.339 567.896 522.485 568.042 522.609 568.204V567.39C522.61 567.129 522.662 566.87 522.762 566.628C522.833 566.429 522.967 566.26 523.143 566.145L524.643 565.255C524.695 565.206 524.763 565.18 524.834 565.18C524.905 565.18 524.973 565.206 525.025 565.255C525.147 565.424 525.21 565.63 525.203 565.839V582.367C525.271 584.842 524.812 587.304 523.855 589.588C523.104 591.384 521.805 592.897 520.143 593.91C519.576 594.263 518.928 594.464 518.261 594.495C517.734 594.527 517.209 594.394 516.761 594.114C516.331 593.792 515.983 593.374 515.744 592.893C515.496 592.314 515.358 591.693 515.337 591.063C515.313 590.799 515.366 590.534 515.49 590.3C515.552 590.09 515.687 589.91 515.871 589.791L517.219 589.028C517.25 588.995 517.287 588.969 517.329 588.951C517.37 588.933 517.415 588.924 517.46 588.924C517.506 588.924 517.55 588.933 517.592 588.951C517.633 588.969 517.671 588.995 517.702 589.028C517.827 589.16 517.938 589.305 518.032 589.461C518.187 589.733 518.443 589.934 518.744 590.02C519.049 590.249 519.507 589.995 520.143 589.74ZM517.753 577.409C517.753 578.087 517.753 578.748 517.753 579.392C517.68 580.407 517.968 581.416 518.566 582.24C518.793 582.435 519.081 582.542 519.38 582.542C519.679 582.542 519.967 582.435 520.194 582.24C520.932 581.76 521.508 581.069 521.846 580.256C522.309 579.195 522.568 578.057 522.609 576.9C522.609 576.519 522.609 576.061 522.609 575.527C522.609 574.993 522.609 574.535 522.609 574.205C522.661 573.294 522.391 572.394 521.846 571.662C521.621 571.455 521.326 571.34 521.02 571.34C520.714 571.34 520.419 571.455 520.194 571.662C519.47 572.14 518.904 572.821 518.566 573.62C518.044 574.816 517.767 576.104 517.753 577.409Z" fill="#FAFAFA"/>
<path d="M531.127 554.83C531.177 554.788 531.24 554.766 531.305 554.766C531.37 554.766 531.433 554.788 531.483 554.83C531.616 554.994 531.68 555.204 531.661 555.415V558.186C531.663 558.451 531.602 558.712 531.483 558.949C531.412 559.14 531.288 559.307 531.127 559.432L529.424 560.424C529.4 560.451 529.37 560.472 529.337 560.487C529.305 560.502 529.269 560.51 529.233 560.51C529.197 560.51 529.161 560.502 529.128 560.487C529.095 560.472 529.066 560.451 529.042 560.424C528.976 560.347 528.926 560.259 528.895 560.162C528.864 560.066 528.854 559.965 528.864 559.864V557.093C528.862 556.828 528.923 556.567 529.042 556.33C529.113 556.132 529.247 555.962 529.424 555.847L531.127 554.83ZM531.559 578.705C531.56 578.959 531.508 579.21 531.407 579.443C531.326 579.642 531.194 579.817 531.025 579.951L529.5 580.816C529.478 580.842 529.451 580.864 529.42 580.878C529.39 580.893 529.356 580.901 529.322 580.901C529.288 580.901 529.254 580.893 529.223 580.878C529.192 580.864 529.165 580.842 529.144 580.816C529.011 580.651 528.947 580.442 528.966 580.231V563.78C528.964 563.515 529.025 563.254 529.144 563.017C529.216 562.819 529.338 562.644 529.5 562.509L531.025 561.644C531.077 561.596 531.145 561.569 531.216 561.569C531.287 561.569 531.355 561.596 531.407 561.644C531.521 561.807 531.574 562.005 531.559 562.203V578.705Z" fill="#FAFAFA"/>
<path d="M544.934 570.95C544.932 571.212 544.881 571.471 544.781 571.713C544.71 571.911 544.576 572.081 544.4 572.196L542.874 573.086C542.827 573.133 542.763 573.159 542.696 573.159C542.63 573.159 542.566 573.133 542.518 573.086C542.385 572.922 542.321 572.712 542.34 572.501V563.551C542.418 562.495 542.226 561.436 541.781 560.474C541.425 559.839 540.865 559.737 540.077 560.195C539.291 560.723 538.708 561.503 538.424 562.407C538 563.606 537.793 564.872 537.814 566.145V575.12C537.813 575.382 537.761 575.641 537.662 575.883C537.599 576.093 537.464 576.273 537.28 576.391L535.78 577.256C535.756 577.283 535.727 577.305 535.694 577.32C535.661 577.334 535.625 577.342 535.589 577.342C535.553 577.342 535.518 577.334 535.485 577.32C535.452 577.305 535.423 577.283 535.399 577.256C535.281 577.095 535.227 576.895 535.246 576.697V560.246C535.243 559.983 535.294 559.723 535.399 559.483C535.461 559.273 535.596 559.093 535.78 558.974L537.28 558.11C537.304 558.083 537.333 558.061 537.366 558.046C537.399 558.031 537.435 558.024 537.471 558.024C537.507 558.024 537.543 558.031 537.576 558.046C537.608 558.061 537.638 558.083 537.662 558.11C537.775 558.283 537.829 558.488 537.814 558.695V559.483C538.149 558.708 538.557 557.967 539.035 557.271C539.453 556.629 540.02 556.097 540.687 555.72C541.266 555.297 541.986 555.115 542.696 555.211C542.977 555.282 543.241 555.411 543.469 555.591C543.696 555.771 543.884 555.997 544.018 556.254C544.387 556.942 544.629 557.691 544.73 558.466C544.866 559.477 544.934 560.496 544.934 561.517V570.95Z" fill="#FAFAFA"/>
<path d="M673.185 496.933L648.496 511.172L652.335 476.541C649.361 474.965 647.479 471.126 647.479 465.608C647.479 455.768 653.48 444.351 660.853 440.181C668.227 436.011 674.202 440.436 674.202 450.352C674.05 456.186 672.385 461.881 669.371 466.879L673.185 496.933Z" fill="#455A64"/>
<path d="M673.211 496.933L651.471 484.398L648.496 511.198L673.211 496.933Z" fill="#37474F"/>
<path d="M660.803 440.105C655.426 443.738 651.417 449.062 649.412 455.234L669.321 466.727C672.334 461.729 673.999 456.034 674.152 450.199C674.203 440.359 668.227 435.859 660.803 440.105Z" fill="#37474F"/>
<path d="M540.789 324.796C532.322 319.914 520.652 320.6 507.735 328.05C481.952 342.95 461.052 379.132 461.052 408.907C461.052 423.858 466.34 434.333 474.833 439.164L491.284 448.725C499.726 453.607 511.396 452.895 524.338 445.445C550.121 430.57 571.022 394.363 571.022 364.588C571.022 349.714 565.784 339.162 557.342 334.407" fill="#14B4CA"/>
<path d="M524.313 337.636C498.531 352.536 477.63 388.743 477.63 418.493C477.63 448.242 498.531 460.345 524.313 445.445C550.096 430.545 571.022 394.363 570.996 364.588C570.971 334.814 550.07 322.762 524.313 337.636Z" fill="#14B4CA"/>
<path d="M550.07 403.694V407.101C543.893 418.127 535.034 427.414 524.313 434.104C514.269 439.876 505.192 440.512 498.53 436.825V429.807C498.871 422.506 500.956 415.393 504.61 409.062C508.264 402.732 513.381 397.369 519.533 393.422L526.322 389.506C532.322 386.048 538.17 385.591 542.747 388.26C547.324 390.93 550.07 396.549 550.07 403.694Z" fill="#14B4CA"/>
<path opacity="0.4" d="M540.789 324.796L557.316 334.407C548.875 329.5 537.204 330.186 524.262 337.636C507.379 347.4 492.58 366.292 484.393 386.531L467.84 376.946C476.053 356.604 490.724 337.814 507.709 328.05C520.677 320.626 532.348 319.914 540.789 324.796Z" fill="white"/>
<path opacity="0.2" d="M490.699 448.343L474.858 439.164C466.366 434.333 461.077 423.908 461.077 408.907L477.63 418.518C477.732 433.011 482.613 443.334 490.699 448.343Z" fill="black"/>
<path opacity="0.1" d="M467.891 376.946L484.444 386.531C480.203 396.664 477.925 407.51 477.731 418.493L461.179 408.881C461.383 397.908 463.66 387.072 467.891 376.946Z" fill="black"/>
<path d="M518.414 387.904C516.837 387.921 515.283 387.518 513.914 386.735C512.263 385.634 510.94 384.108 510.085 382.318C509.23 380.528 508.875 378.54 509.057 376.564C509.273 371.931 510.595 367.418 512.913 363.401C515.231 359.385 518.478 355.981 522.381 353.477C523.949 352.225 525.858 351.476 527.858 351.327C529.859 351.178 531.858 351.636 533.594 352.641C535.33 353.646 536.722 355.152 537.589 356.962C538.455 358.771 538.756 360.8 538.45 362.783C538.23 367.415 536.906 371.926 534.589 375.943C532.271 379.959 529.027 383.362 525.127 385.87C523.108 387.13 520.792 387.832 518.414 387.904Z" fill="white"/>
<path d="M542.747 388.235C538.17 385.565 532.322 386.023 526.322 389.481L519.533 393.396C513.377 397.346 508.258 402.713 504.604 409.048C500.95 415.383 498.867 422.502 498.53 429.807V436.85C505.192 440.537 514.269 439.902 524.313 434.13C535.034 427.44 543.893 418.152 550.07 407.127V403.72C550.07 396.549 547.426 390.93 542.747 388.235Z" fill="white"/>
<path d="M1065.47 828.114C1065.47 828.114 1068.85 798.416 1083.62 775.354C1098.39 752.292 1118.68 737.926 1137.63 736.426C1156.57 734.926 1171.88 752.369 1151.61 764.395C1131.35 776.422 1095.34 788.576 1078.76 833.327L1065.47 828.114Z" fill="#14B4CA"/>
<path opacity="0.1" d="M1065.47 828.114C1065.47 828.114 1068.85 798.416 1083.62 775.354C1098.39 752.292 1118.68 737.926 1137.63 736.426C1156.57 734.926 1171.88 752.369 1151.61 764.395C1131.35 776.422 1095.34 788.576 1078.76 833.327L1065.47 828.114Z" fill="black"/>
<path d="M1071.03 820.385H1070.83C1070.58 820.283 1070.38 820.087 1070.28 819.839C1070.17 819.591 1070.17 819.312 1070.27 819.063C1090.26 769.862 1128.3 749.292 1145.64 745.326C1145.77 745.296 1145.9 745.291 1146.03 745.313C1146.17 745.336 1146.29 745.383 1146.4 745.454C1146.52 745.525 1146.62 745.617 1146.69 745.726C1146.77 745.835 1146.83 745.958 1146.86 746.088C1146.89 746.219 1146.89 746.354 1146.87 746.485C1146.85 746.617 1146.8 746.743 1146.73 746.857C1146.66 746.97 1146.56 747.068 1146.46 747.146C1146.35 747.223 1146.22 747.279 1146.09 747.309C1129.11 751.225 1091.81 771.413 1072.15 819.851C1072.06 820.054 1071.89 820.217 1071.69 820.314C1071.48 820.411 1071.25 820.436 1071.03 820.385Z" fill="white"/>
<path d="M1172.18 820.97C1170.48 824.834 1166.26 826.869 1162.34 828.445C1158.43 830.021 1154.15 831.725 1152.02 835.386C1147.75 842.76 1154.76 853.185 1150.19 860.33C1149.11 861.768 1147.75 862.974 1146.2 863.874C1144.64 864.774 1142.92 865.35 1141.14 865.568C1138.21 866.102 1135.24 866.102 1132.29 866.356C1130.87 866.337 1129.46 866.227 1128.07 866.025C1123.96 865.109 1119.66 865.564 1115.84 867.322C1109.96 870.628 1108.21 878.027 1104.6 883.748C1102.39 887.116 1099.48 889.969 1096.07 892.11C1092.67 894.252 1088.83 895.632 1084.84 896.156C1082.3 896.487 1077.21 896.97 1074.67 895.469C1074.47 895.372 1074.28 895.252 1074.11 895.113C1073.73 894.707 1073.27 894.173 1073.07 893.893C1073.06 893.834 1073.06 893.774 1073.07 893.715C1072.03 889.876 1073.73 885.909 1073.81 881.943V881.231C1073.63 876.628 1073.5 872.052 1073.4 867.475C1073.18 858.999 1073.09 850.524 1073.14 842.048C1073.14 836.556 1072.53 830.555 1074.87 825.394C1077.42 819.698 1083.82 819.571 1086.24 814.003C1087.21 811.765 1087.71 809.401 1088.66 807.138C1090.11 803.848 1092.44 801.02 1095.39 798.962C1098.34 796.904 1101.8 795.695 1105.39 795.467C1116.55 794.907 1126.54 803.934 1137.7 803.095C1140.58 802.866 1143.4 801.976 1146.25 801.467C1155.27 799.764 1165.72 802.332 1170.81 809.985C1171.92 811.561 1172.63 813.389 1172.87 815.305C1173.11 817.221 1172.88 819.167 1172.18 820.97Z" fill="#14B4CA"/>
<path d="M1071.95 876.094C1071.71 876.023 1071.51 875.862 1071.38 875.643C1071.26 875.425 1071.23 875.167 1071.29 874.925C1086.7 817.105 1147.57 808.816 1161.88 809.782C1162.01 809.788 1162.13 809.82 1162.25 809.875C1162.36 809.93 1162.46 810.007 1162.54 810.102C1162.63 810.197 1162.69 810.308 1162.73 810.427C1162.77 810.547 1162.78 810.673 1162.77 810.799C1162.75 811.046 1162.63 811.274 1162.44 811.435C1162.25 811.596 1162 811.678 1161.76 811.664C1147.8 810.672 1088.2 818.834 1073.12 875.433C1073.05 875.674 1072.89 875.877 1072.67 876C1072.45 876.124 1072.19 876.157 1071.95 876.094Z" fill="white"/>
<path d="M1139.66 846.803C1139.47 846.776 1139.29 846.687 1139.15 846.549C1133.52 841.671 1126.89 838.097 1119.72 836.079C1112.55 834.062 1105.03 833.652 1097.68 834.878C1097.43 834.901 1097.19 834.83 1096.99 834.679C1096.79 834.529 1096.66 834.309 1096.61 834.064C1096.58 833.815 1096.64 833.562 1096.79 833.357C1096.93 833.153 1097.15 833.015 1097.4 832.971C1105.06 831.696 1112.91 832.131 1120.38 834.245C1127.86 836.36 1134.77 840.101 1140.63 845.201C1140.72 845.289 1140.79 845.394 1140.84 845.509C1140.89 845.625 1140.91 845.749 1140.91 845.875C1140.91 846.001 1140.89 846.125 1140.84 846.241C1140.79 846.356 1140.72 846.461 1140.63 846.549C1140.51 846.686 1140.36 846.784 1140.18 846.83C1140.01 846.875 1139.83 846.866 1139.66 846.803Z" fill="white"/>
<path d="M925.544 129.774L933.63 132.876V115.077C933.63 100.94 944.894 97.5584 957.124 104.627C969.38 111.696 979.296 128.859 979.296 142.996V145.538C981 145.018 982.8 144.889 984.562 145.162C986.323 145.435 988 146.102 989.467 147.115C994.111 150.143 997.975 154.224 1000.74 159.027C1003.51 163.829 1005.11 169.217 1005.41 174.753V175.923L1016.7 182.432C1019.75 184.426 1022.29 187.111 1024.12 190.269C1025.94 193.427 1027 196.971 1027.2 200.612C1027.2 207.325 1022.5 210.046 1016.7 206.689L925.544 154.031C922.488 152.042 919.945 149.358 918.124 146.198C916.304 143.038 915.256 139.493 915.068 135.851C915.068 129.164 919.721 126.443 925.544 129.774Z" fill="#E6E6E6"/>
<path d="M1033.84 115.688L1048.51 124.155C1048.43 123.514 1048.38 122.868 1048.38 122.222V117.976C1048.38 110.348 1053.67 107.348 1060.23 111.136C1063.05 112.862 1065.46 115.178 1067.3 117.925C1068.37 108.416 1075.84 104.881 1084.89 110.094C1090.07 113.459 1094.37 117.997 1097.46 123.337C1100.56 128.678 1102.35 134.673 1102.69 140.834V147.191C1102.76 149.731 1102.24 152.252 1101.19 154.565L1113.4 161.583C1115.3 162.844 1116.88 164.534 1118.01 166.517C1119.14 168.499 1119.79 170.72 1119.9 172.999C1119.9 177.194 1116.96 178.898 1113.32 176.813L1033.84 131.045C1031.91 129.793 1030.31 128.103 1029.17 126.114C1028.03 124.126 1027.37 121.895 1027.25 119.603C1027.25 115.306 1030.2 113.603 1033.84 115.688Z" fill="#E6E6E6"/>
<path d="M977.033 501.586C966.353 519.639 956.081 535.328 948.86 542.854C935.155 549.21 902.965 559.025 890.379 560.652C888.168 560.934 885.93 560.41 884.073 559.178C879.115 555.923 875.275 555.389 870.063 553.584C865.969 552.185 864.24 550.228 863.477 551.041C862.689 551.965 862.294 553.16 862.374 554.371C862.455 555.582 863.006 556.714 863.91 557.525C865.866 559.383 868.033 561.005 870.368 562.356C864.785 563.741 858.961 563.845 853.332 562.661C842.424 559.788 837.288 565.026 844.662 576.875C847.204 581.095 857.68 587.884 878.733 586.054C886.244 585.649 893.724 584.8 901.134 583.511C921.323 579.188 943.775 575.018 957.581 570.798C962.717 568.778 967.313 565.592 971.006 561.491C994.221 535.022 1001.93 516.156 1012.1 499.018L1011.23 471.049C994.755 470.49 985.957 486.483 977.033 501.586Z" fill="#FFA8A7"/>
<path d="M1014.05 470.49C1009.28 469.818 1004.41 470.465 999.969 472.361C995.532 474.257 991.698 477.329 988.881 481.245C977.592 495.713 957.606 530.446 957.606 530.446C957.606 530.446 964.141 547.863 981.787 550.787L1010.14 512.495C1010.14 512.495 1023.56 485.898 1014.05 470.49Z" fill="#455A64"/>
<path d="M1075.36 860.889H1056.87V893.842H1075.36V860.889Z" fill="#FFA8A7"/>
<path d="M1011.28 859.135L992.822 859.796L991.881 824.911L1011.28 824.25V859.135Z" fill="#FFA8A7"/>
<path d="M1077.95 575.629C1077.95 593.987 1075.26 741.893 1075.26 741.893C1075.66 747.182 1080.34 756.945 1079.4 777.261C1078 804.849 1076.15 877.366 1076.15 877.366C1072.97 878.99 1069.47 879.87 1065.91 879.941C1062.34 880.011 1058.81 879.27 1055.58 877.773C1055.58 877.773 1040.57 776.066 1037.27 748.834C1034.37 724.959 1026.94 645.933 1026.94 645.933L1016.95 739.35C1019.07 749.374 1019.84 759.635 1019.24 769.862C1018.38 782.575 1012.43 848.379 1012.43 848.379C1009.23 850.263 1005.65 851.396 1001.96 851.691C998.26 851.986 994.545 851.436 991.093 850.083C991.093 850.083 980.567 750.919 980.363 739.274C980.109 726.052 986.517 575.476 986.517 575.476L1077.95 575.629Z" fill="#37474F"/>
<path d="M1056.87 884.333V881.586C1055.09 882.375 1051 898.699 1043.65 905.665C1037.83 911.208 1029.89 917.59 1027.86 923.769C1025.83 929.948 1038.92 933.736 1044.39 932.745C1050.69 931.575 1061.68 926.922 1064.42 922.574C1067.17 918.226 1068.47 911.92 1070.7 908.767C1072.94 905.615 1078.1 902.106 1079.3 898.444C1079.67 895.018 1079.32 891.553 1078.26 888.274C1077.39 884.866 1076.48 881.129 1075.36 881.459V883.544C1072.75 885.684 1069.47 886.836 1066.1 886.799C1063.41 887.028 1056.85 886.468 1056.87 884.333Z" fill="#263238"/>
<path d="M992.619 853.846C991.653 853.846 990.864 855.295 988.754 857.686C985.616 860.986 981.946 863.737 977.897 865.822C970.981 869.433 957.556 874.976 951.428 877.849C947.614 879.629 947.792 884.409 951.733 887.13C955.674 889.85 965.158 891.808 976.549 889.164C982.753 887.714 990.839 881.739 995.975 882.07C1001.11 882.4 1010.65 882.298 1014.43 879.527C1018.22 876.755 1016.7 871.009 1015.63 866.051C1014.46 860.61 1013.09 852.143 1011.28 852.524V854.431C1009.07 857.94 997.603 859.364 992.721 856.796L992.619 853.846Z" fill="#263238"/>
<path d="M1026.94 645.933C1017.33 642.785 1008.54 637.53 1001.21 630.55C1001.21 630.55 1006.3 640.238 1020.94 649.264L1017.79 732.689L1026.94 645.933Z" fill="#263238"/>
<path d="M1067.63 473.185C1067.63 473.185 1082.88 476.694 1081.79 504.256L1078.61 548.117V613.972C1065.03 629.38 1004.87 628.262 984.152 612.751C984.152 612.751 986.491 534.819 987.89 504.816C988.881 483.508 993.789 472.778 1014.74 470.439L1040.5 471.558L1067.63 473.185Z" fill="#14B4CA"/>
<path d="M1048.2 415.924C1048.29 419.614 1047.65 423.285 1046.31 426.725C1044.97 430.166 1042.97 433.307 1040.41 435.968C1037.85 438.63 1034.79 440.759 1031.41 442.232C1028.02 443.706 1024.38 444.495 1020.69 444.555C1005.43 444.555 996.484 431.384 993.179 415.924C987.076 387.625 1005.48 387.269 1020.69 387.269C1028.14 387.422 1035.22 390.527 1040.38 395.901C1045.54 401.274 1048.35 408.477 1048.2 415.924Z" fill="#263238"/>
<path d="M1062.24 427.493C1062.24 427.493 1058.02 448.14 1056.31 451.547C1055.24 453.598 1053.42 455.155 1051.23 455.895L1051.53 441.376L1062.24 427.493Z" fill="#263238"/>
<path d="M1056.92 397.922C1056.92 397.922 1059.95 397.16 1063.18 402.194C1065.92 406.491 1066.56 416.153 1062.24 427.621L1054.28 428.587L1056.92 397.922Z" fill="#263238"/>
<path d="M1059.85 402.118L1069.61 402.296C1069.68 401.665 1069.61 401.027 1069.42 400.422C1069.23 399.817 1068.92 399.258 1068.5 398.78C1068.08 398.303 1067.57 397.917 1066.99 397.647C1066.42 397.376 1065.8 397.228 1065.16 397.21C1063.83 397.23 1062.55 397.741 1061.56 398.647C1060.58 399.553 1059.97 400.789 1059.85 402.118Z" fill="#263238"/>
<path d="M1061.04 399.804L1068.26 392.863C1067.85 392.372 1067.33 391.973 1066.76 391.691C1066.18 391.409 1065.55 391.249 1064.9 391.223C1064.26 391.197 1063.62 391.304 1063.02 391.538C1062.42 391.772 1061.88 392.128 1061.42 392.583C1060.47 393.519 1059.89 394.781 1059.82 396.119C1059.75 397.457 1060.19 398.772 1061.04 399.804Z" fill="#263238"/>
<path d="M1051.89 428.46C1053.49 429.451 1055.75 426.273 1057.74 424.112C1059.72 421.951 1065.87 419.967 1069.08 426.985C1072.28 434.003 1066.81 440.944 1062.24 443.233C1054.02 447.301 1051.43 441.376 1051.43 441.376L1050.74 474.075C1039.2 491.874 1013.01 491.314 1022.44 473.211V463.269C1018.56 463.914 1014.62 464.119 1010.7 463.879C1004.29 462.862 1000.27 457.599 998.314 450.377C995.212 438.783 994.017 429.426 996.661 406.618C999.56 381.649 1027.48 381.37 1042.43 391.362C1057.38 401.355 1051.89 428.46 1051.89 428.46Z" fill="#FFA8A7"/>
<path d="M1017.1 402.728C1023.77 402.067 1030.35 400.694 1037.04 400.185C1038.48 400.011 1039.94 400.079 1041.36 400.389C1046.45 401.787 1045.84 407.737 1046.65 411.882C1048.05 419.052 1049.19 431.18 1051.89 431.231C1052.7 431.231 1055.75 425.968 1057.74 424.086C1058.83 422.465 1059.44 420.572 1059.52 418.62C1060.02 415.67 1060.28 412.644 1060.51 409.644C1060.71 407.101 1060.97 404.559 1060.97 402.016C1061.08 399.143 1060.85 396.266 1060.28 393.447C1059.64 391.05 1058.42 388.848 1056.72 387.04L1056.21 386.48C1052.86 382.976 1048.79 380.236 1044.29 378.446C1037.8 376.017 1031 374.535 1024.1 374.047C1017.2 373.558 1010.33 372.71 1003.53 371.504C1003.14 371.391 1002.72 371.391 1002.33 371.504C1002.06 371.657 1001.82 371.877 1001.65 372.144C1001.49 372.41 1001.39 372.715 1001.37 373.03C1001.09 374.61 1001.26 376.237 1001.87 377.722C1002.48 379.207 1003.49 380.489 1004.8 381.421C1000.2 381.777 994.907 379.386 990.483 378.166C990.125 378.014 989.74 377.936 989.352 377.936C988.963 377.936 988.578 378.014 988.22 378.166C987.776 378.476 987.46 378.937 987.33 379.463C987.008 380.657 986.965 381.91 987.203 383.124C987.608 386.804 988.976 390.312 991.17 393.295C994.597 397.757 999.438 400.921 1004.9 402.27C1008.92 403.046 1013.04 403.2 1017.1 402.728Z" fill="#263238"/>
<path d="M1022.47 463.269C1022.47 463.269 1036.76 460.268 1041.74 457.497C1044.71 455.873 1047.12 453.392 1048.66 450.377C1047.91 453.406 1046.57 456.257 1044.72 458.768C1041.08 463.65 1022.47 467.21 1022.47 467.21V463.269Z" fill="#F28F8F"/>
<path d="M1025.9 424.722C1025.87 425.507 1026.16 426.271 1026.69 426.847C1027.23 427.424 1027.97 427.766 1028.75 427.799C1029.37 427.85 1030 427.712 1030.54 427.402C1031.08 427.093 1031.52 426.627 1031.79 426.065C1032.07 425.503 1032.16 424.871 1032.07 424.253C1031.98 423.635 1031.71 423.059 1031.28 422.6C1030.86 422.141 1030.3 421.821 1029.69 421.683C1029.08 421.544 1028.45 421.592 1027.87 421.822C1027.28 422.051 1026.79 422.451 1026.44 422.968C1026.09 423.486 1025.9 424.097 1025.9 424.722Z" fill="#263238"/>
<path d="M1030.48 412.39L1036.61 415.924C1037.05 415.053 1037.15 414.046 1036.89 413.103C1036.63 412.161 1036.02 411.352 1035.18 410.839C1034.78 410.611 1034.33 410.47 1033.86 410.425C1033.4 410.38 1032.93 410.433 1032.49 410.579C1032.05 410.724 1031.64 410.961 1031.29 411.273C1030.95 411.585 1030.67 411.965 1030.48 412.39Z" fill="#263238"/>
<path d="M1023.74 445.343L1017.21 447.886C1017.34 448.334 1017.56 448.75 1017.86 449.109C1018.16 449.468 1018.53 449.761 1018.95 449.971C1019.36 450.181 1019.82 450.303 1020.28 450.329C1020.75 450.355 1021.22 450.285 1021.66 450.123C1022.55 449.74 1023.26 449.033 1023.64 448.145C1024.03 447.257 1024.07 446.256 1023.74 445.343Z" fill="#F28F8F"/>
<path d="M999.611 415.009L1005.2 410.534C1004.95 410.143 1004.62 409.81 1004.24 409.555C1003.85 409.301 1003.41 409.131 1002.95 409.056C1002.49 408.982 1002.03 409.005 1001.58 409.124C1001.13 409.243 1000.71 409.454 1000.35 409.746C999.601 410.38 999.113 411.266 998.977 412.237C998.841 413.207 999.066 414.194 999.611 415.009Z" fill="#263238"/>
<path d="M1002.08 423.883C1002.12 424.439 1002.33 424.971 1002.67 425.412C1003.01 425.854 1003.47 426.186 1004 426.369C1004.53 426.552 1005.1 426.577 1005.64 426.441C1006.18 426.306 1006.67 426.016 1007.05 425.606C1007.43 425.197 1007.68 424.686 1007.77 424.136C1007.87 423.586 1007.8 423.02 1007.58 422.508C1007.35 421.996 1006.99 421.56 1006.52 421.254C1006.05 420.947 1005.51 420.783 1004.95 420.781C1004.56 420.794 1004.17 420.885 1003.81 421.048C1003.46 421.212 1003.13 421.444 1002.87 421.733C1002.6 422.021 1002.39 422.36 1002.26 422.729C1002.12 423.098 1002.06 423.49 1002.08 423.883Z" fill="#263238"/>
<path d="M1017.41 421.493L1017.08 439.571L1006.81 437.232L1017.41 421.493Z" fill="#F28F8F"/>
<path d="M773.467 572.908L789.41 563.704L795.716 556.05L779.798 565.255L773.467 572.908Z" fill="#14B4CA"/>
<path opacity="0.4" d="M773.467 572.908L789.41 563.704L795.716 556.05L779.798 565.255L773.467 572.908Z" fill="black"/>
<path d="M816.82 597.928L832.762 588.723L846.06 576.951L830.143 586.13L816.82 597.928Z" fill="#14B4CA"/>
<path opacity="0.4" d="M816.82 597.928L832.762 588.723L846.06 576.951L830.143 586.13L816.82 597.928Z" fill="black"/>
<path d="M952.241 629.686C956.011 634.738 958.292 640.745 958.827 647.026C955.074 641.964 952.794 635.963 952.241 629.686ZM989.288 630.169C983.923 593.682 964.319 557.601 940.977 544.1C929.764 537.616 919.39 537.387 911.076 542.244L896.074 550.889L895.235 551.397C894.567 551.765 893.922 552.172 893.303 552.618C892.07 553.466 890.913 554.419 889.845 555.465L889.336 555.949C888.878 556.406 888.395 556.94 887.963 557.449C887.531 557.957 886.87 558.745 886.361 559.432C885.282 560.853 884.305 562.348 883.437 563.907C882.979 564.695 882.547 565.534 882.14 566.45L751.117 490.831L735.2 500.01V510.181L736.548 510.944L737.819 511.681V513.715L735.276 515.215V521.114L754.524 561.797L773.543 572.806L779.875 565.178L796.656 575.222L806.293 591.724L816.921 597.851L830.219 586.054L846.543 595.487L852.035 618.142L879.471 634.008C880.827 639.774 882.525 645.454 884.556 651.018C884.734 651.578 884.963 652.163 885.191 652.798C894.294 676.699 908.762 697.168 925.086 706.601C927.042 707.761 929.092 708.756 931.214 709.576C932.335 710.022 933.481 710.404 934.646 710.72C935.663 710.991 936.68 711.22 937.697 711.407C940.909 711.992 944.199 711.992 947.41 711.407L948.732 711.076C949.365 710.949 949.985 710.77 950.589 710.542L952.013 709.983C952.516 709.801 953.002 709.571 953.462 709.296C953.932 709.093 954.39 708.864 954.835 708.61L955.496 708.203C955.616 708.163 955.728 708.103 955.826 708.025C959.462 705.94 968.413 700.753 970.854 699.38C982.957 692.362 990.788 674.614 990.788 649.518C990.768 643.04 990.266 636.572 989.288 630.169Z" fill="#14B4CA"/>
<path d="M947.588 660.477C941.283 656.841 936.197 646.06 936.197 636.398C936.197 626.736 941.283 621.829 947.588 625.439C953.894 629.05 958.954 639.856 958.954 649.544C958.954 659.231 953.869 664.113 947.588 660.477ZM973.345 639.348C968.006 602.886 948.402 566.78 925.035 553.304C914.203 547.049 904.185 546.592 896.049 550.889L895.21 551.397C894.542 551.765 893.896 552.172 893.277 552.618C892.045 553.466 890.888 554.419 889.819 555.465L889.311 555.949C888.853 556.406 888.37 556.94 887.938 557.449C887.505 557.957 886.844 558.745 886.336 559.432C885.256 560.853 884.279 562.348 883.412 563.907C882.954 564.695 882.522 565.534 882.115 566.45C879.744 571.364 878.034 576.571 877.03 581.934L735.175 500.01V510.181L736.522 510.944L737.794 511.681V513.715L735.251 515.215V521.114L754.499 561.797L773.518 572.806L779.849 565.178L796.631 575.222L806.267 591.724L816.896 597.851L830.194 586.054L846.518 595.487L852.01 618.142L879.471 634.008C880.827 639.774 882.525 645.454 884.556 651.018C884.734 651.578 884.963 652.163 885.192 652.798C894.294 676.699 908.762 697.168 925.086 706.601C927.042 707.761 929.092 708.756 931.214 709.576C932.335 710.022 933.481 710.404 934.646 710.72C935.663 710.991 936.68 711.22 937.697 711.407C940.909 711.992 944.199 711.992 947.41 711.407L948.733 711.076C949.365 710.949 949.985 710.77 950.589 710.542L952.013 709.983C952.517 709.801 953.002 709.571 953.462 709.296C953.932 709.093 954.39 708.864 954.835 708.61L955.496 708.203C955.616 708.163 955.728 708.103 955.827 708.025C967.421 700.702 974.871 683.208 974.871 658.723C974.828 652.236 974.319 645.761 973.345 639.348Z" fill="#14B4CA"/>
<path opacity="0.4" d="M958.954 649.518C958.954 659.206 953.869 664.113 947.588 660.477C941.308 656.841 936.197 646.086 936.197 636.398C936.197 626.711 941.283 621.803 947.588 625.439C949.404 626.545 950.985 627.996 952.241 629.711C952.788 635.99 955.068 641.993 958.827 647.052C958.92 647.871 958.962 648.694 958.954 649.518Z" fill="black"/>
<path opacity="0.4" d="M990.737 649.493C990.737 674.589 982.906 692.337 970.803 699.354C968.26 700.727 959.412 705.914 955.776 707.999C967.37 700.676 974.82 683.183 974.82 658.697C974.793 652.22 974.3 645.754 973.346 639.348C968.006 602.886 948.402 566.78 925.035 553.304C914.203 547.049 904.185 546.592 896.049 550.889L911.051 542.244C919.365 537.387 929.739 537.616 940.952 544.1C964.319 557.601 983.923 593.681 989.263 630.169C990.231 636.565 990.724 643.024 990.737 649.493Z" fill="white"/>
<path d="M974.82 658.646C974.82 683.132 967.37 700.626 955.776 707.949C959.412 705.864 968.362 700.677 970.803 699.303C982.906 692.286 990.737 674.538 990.737 649.442C990.737 648.527 990.737 647.586 990.737 646.645L974.82 655.849C974.795 656.841 974.82 657.756 974.82 658.646Z" fill="#14B4CA"/>
<path opacity="0.1" d="M974.82 658.646C974.82 683.132 967.37 700.626 955.776 707.949C959.412 705.864 968.362 700.677 970.803 699.303C982.906 692.286 990.737 674.538 990.737 649.442C990.737 648.527 990.737 647.586 990.737 646.645L974.82 655.849C974.795 656.841 974.82 657.756 974.82 658.646Z" fill="black"/>
<path opacity="0.15" d="M877.64 592.334V597.496L735.2 515.266L737.819 513.74V511.605L877.64 592.334Z" fill="black"/>
<path opacity="0.15" d="M877.64 594.47V597.496L735.2 515.266L737.819 513.74V513.715L877.64 594.47Z" fill="black"/>
<path opacity="0.15" d="M939.579 699.329C934.181 699.189 928.916 697.618 924.323 694.778C901.109 681.378 882.217 641.509 882.217 605.912C882.217 585.138 888.497 569.628 899.456 563.297C907.084 558.873 916.11 559.432 925.595 564.899C948.784 578.298 967.676 618.294 967.676 653.892C967.676 674.64 961.395 690.175 950.436 696.481C947.131 698.369 943.386 699.351 939.579 699.329ZM910.466 562.915C907.077 562.897 903.744 563.774 900.804 565.458C890.811 571.23 884.836 586.359 884.836 605.886C884.836 640.67 903.143 679.623 925.671 692.54C934.29 697.625 942.452 698.083 949.241 694.167C959.234 688.396 965.209 673.292 965.209 653.764C965.209 618.956 946.902 580.028 924.4 567.085C920.194 564.527 915.387 563.123 910.466 563.017V562.915Z" fill="black"/>
<path opacity="0.4" d="M882.013 566.399C879.643 571.314 877.933 576.52 876.928 581.884L735.073 499.959L750.99 490.78L882.013 566.399Z" fill="white"/>
<path d="M1066.38 574.357C1073.81 560.296 1082.3 528.717 1086.52 512.774C1092.52 490.145 1082.81 475.906 1071.77 475.321C1064.88 476.389 1042.18 558.949 1042.18 558.949C1039.63 560.958 1005.13 578.476 994.043 582.875C992.06 583.625 989.872 583.625 987.889 582.875C982.575 580.943 978.939 581.299 973.727 580.79C969.633 580.383 967.574 578.934 967.04 579.799C966.555 580.872 966.492 582.088 966.865 583.205C967.237 584.322 968.017 585.257 969.048 585.825C971.293 587.132 973.682 588.173 976.168 588.927C971.712 590.279 967.067 590.905 962.412 590.783C951.733 590.554 947.893 595.182 956.183 606.039C961.268 612.802 969.684 614.938 988.474 608.454C993.865 606.573 1001.19 602.937 1008.03 600.47C1022.11 595.385 1025.83 594.775 1036.56 591.139C1052.19 585.85 1063.08 580.612 1066.38 574.357Z" fill="#FFA8A7"/>
<path d="M1067.63 473.185C1074.11 474.075 1080.34 475.524 1084.18 480.813C1088.02 486.102 1091.1 493.526 1087.33 513.74C1084.45 527.956 1080.59 541.957 1075.79 555.643C1075.79 555.643 1060.69 562.102 1044.64 545.727L1055.68 503.061C1055.68 503.061 1057.46 475.321 1067.63 473.185Z" fill="#455A64"/>
</svg>
