<svg width="920" height="854" viewBox="0 0 920 854" fill="none" xmlns="http://www.w3.org/2000/svg">
<path d="M135.131 788.989C314.491 874.466 605.278 874.492 784.639 788.989C963.999 703.486 963.973 564.912 784.639 479.435C605.304 393.959 314.491 393.959 135.131 479.435C-44.2295 564.912 -44.2035 703.512 135.131 788.989Z" fill="#F5F5F5"/>
<path d="M784.014 725.818C817.048 725.818 843.827 713.058 843.827 697.317C843.827 681.577 817.048 668.817 784.014 668.817C750.98 668.817 724.201 681.577 724.201 697.317C724.201 713.058 750.98 725.818 784.014 725.818Z" fill="#EBEBEB"/>
<path d="M121.518 701.404L142.679 689.197C154.494 679.555 163.486 666.903 168.707 652.575C175.24 634.564 174.329 620.873 169.644 614.001C163.892 605.542 148.978 607.026 148.379 624.829C147.13 659.915 136.901 684.251 121.518 701.404Z" fill="#14B4CA"/>
<path opacity="0.2" d="M121.518 701.404L142.679 689.197C154.494 679.555 163.486 666.903 168.707 652.575C175.24 634.564 174.329 620.873 169.644 614.001C163.892 605.542 148.978 607.026 148.379 624.829C147.13 659.915 136.901 684.251 121.518 701.404Z" fill="black"/>
<path d="M121.518 702.705C121.242 702.702 120.975 702.611 120.754 702.446C120.534 702.281 120.371 702.05 120.29 701.787C120.209 701.523 120.214 701.241 120.303 700.981C120.393 700.72 120.563 700.495 120.789 700.337C169.722 666.5 160.248 619.311 160.144 618.843C160.108 618.672 160.106 618.495 160.138 618.324C160.17 618.152 160.236 617.989 160.332 617.842C160.427 617.696 160.55 617.57 160.695 617.471C160.839 617.373 161.001 617.304 161.172 617.268C161.343 617.232 161.519 617.23 161.691 617.262C161.862 617.295 162.026 617.36 162.172 617.456C162.318 617.551 162.444 617.675 162.543 617.819C162.641 617.963 162.711 618.125 162.747 618.296C162.747 618.791 172.741 667.593 122.351 702.471C122.106 702.638 121.814 702.721 121.518 702.705Z" fill="white"/>
<path d="M79.118 725.897C79.118 725.897 71.752 719.91 73.5219 711.789C75.2918 703.668 80.055 697.838 71.9082 687.375C63.7613 676.911 61.4969 662.96 71.2314 655.412C78.6495 649.556 90.232 657.833 94.3965 642.398C97.4679 631.102 96.4267 606.089 110.82 597.76C125.214 589.431 134.246 601.976 131.981 618.947C130.003 634.121 127.192 648.723 129.378 652.783C133.595 660.592 140.805 659.525 140.466 673.788C140.18 687.062 127.609 698.046 127.609 698.046L79.118 725.897Z" fill="#14B4CA"/>
<path d="M103.298 713.169C102.98 713.165 102.674 713.048 102.435 712.838C102.196 712.628 102.04 712.339 101.997 712.024C98.2747 681.18 107.202 627.926 114.49 612.101C114.552 611.926 114.65 611.765 114.778 611.631C114.907 611.497 115.063 611.391 115.235 611.322C115.408 611.253 115.594 611.222 115.779 611.231C115.965 611.239 116.147 611.288 116.312 611.372C116.468 611.442 116.607 611.543 116.723 611.668C116.839 611.793 116.929 611.939 116.987 612.099C117.045 612.26 117.071 612.43 117.062 612.6C117.054 612.77 117.011 612.937 116.937 613.09C109.727 628.707 101.112 682.117 104.678 711.607C104.714 711.949 104.614 712.291 104.4 712.559C104.185 712.827 103.874 712.999 103.532 713.039L103.298 713.169Z" fill="white"/>
<path d="M102.595 689.145C102.396 689.154 102.198 689.109 102.023 689.015C92.991 684.616 87.2648 668.921 87.0305 668.192C86.9668 668.03 86.9361 667.857 86.9403 667.683C86.9446 667.509 86.9837 667.338 87.0553 667.179C87.1269 667.021 87.2296 666.878 87.3573 666.76C87.485 666.642 87.6351 666.55 87.7987 666.491C87.9623 666.432 88.1362 666.406 88.3099 666.415C88.4837 666.425 88.6538 666.468 88.8103 666.545C88.9668 666.621 89.1065 666.727 89.221 666.858C89.3356 666.989 89.4227 667.142 89.4772 667.307C89.4772 667.463 95.0733 682.664 103.168 686.594C103.434 686.723 103.648 686.938 103.775 687.204C103.902 687.47 103.935 687.771 103.869 688.059C103.802 688.346 103.64 688.603 103.408 688.786C103.177 688.969 102.89 689.068 102.595 689.067V689.145Z" fill="white"/>
<path d="M102.439 699.556C102.178 699.556 101.924 699.477 101.71 699.328C101.496 699.179 101.332 698.968 101.242 698.723C101.112 698.405 101.113 698.049 101.245 697.733C101.377 697.416 101.628 697.164 101.945 697.031C117.145 690.941 126.619 672.851 126.723 672.643C126.882 672.336 127.156 672.104 127.486 671.999C127.815 671.894 128.173 671.925 128.48 672.083C128.788 672.242 129.019 672.516 129.124 672.846C129.229 673.175 129.199 673.533 129.04 673.84C128.623 674.621 119.019 692.997 103.012 699.452C102.833 699.537 102.636 699.572 102.439 699.556Z" fill="white"/>
<path d="M633.753 559.524C633.753 559.524 622.379 541.096 621.259 521.081C620.14 501.065 624.539 492.736 630.578 490.341C636.616 487.947 637.085 495.313 640.182 499.659C643.279 504.006 649.604 501.533 651.947 487.973C654.289 474.412 662.827 451.533 680.578 447.082C700.099 442.241 689.636 465.146 684.716 474.074C679.797 483.001 675.997 495.183 679.224 498.488C682.452 501.794 687.475 495.677 692.238 501.351C698.043 508.197 680.005 532.845 669.646 538.806L633.753 559.524Z" fill="#14B4CA"/>
<path d="M649.344 551.794C649.173 551.787 649.005 551.747 648.85 551.675C648.694 551.604 648.554 551.502 648.438 551.376C648.322 551.251 648.232 551.103 648.173 550.943C648.114 550.782 648.087 550.611 648.094 550.44C649.857 518.243 659.898 487.044 677.246 459.862C677.344 459.721 677.47 459.6 677.616 459.509C677.762 459.417 677.925 459.356 678.096 459.33C678.266 459.303 678.44 459.311 678.607 459.353C678.774 459.396 678.931 459.471 679.068 459.576C679.341 459.779 679.523 460.08 679.577 460.416C679.63 460.751 679.55 461.094 679.354 461.372C662.316 488.156 652.456 518.874 650.723 550.571C650.713 550.742 650.67 550.909 650.595 551.063C650.52 551.217 650.416 551.355 650.287 551.469C650.159 551.582 650.01 551.67 649.848 551.725C649.686 551.781 649.515 551.804 649.344 551.794Z" fill="white"/>
<path d="M650.828 536.411C650.61 536.409 650.396 536.356 650.203 536.255C642.915 532.221 638.881 520.248 638.724 519.753C638.667 519.591 638.642 519.419 638.652 519.247C638.661 519.075 638.705 518.907 638.78 518.752C638.855 518.597 638.96 518.458 639.089 518.344C639.218 518.23 639.368 518.143 639.531 518.087C639.859 517.981 640.216 518.008 640.524 518.165C640.831 518.321 641.064 518.593 641.171 518.92C641.171 518.92 645.075 530.451 651.582 533.965C651.877 534.139 652.093 534.42 652.185 534.75C652.278 535.08 652.239 535.433 652.077 535.734C651.959 535.958 651.778 536.142 651.555 536.263C651.333 536.383 651.079 536.435 650.828 536.411Z" fill="white"/>
<path d="M652.103 528.525C651.815 528.522 651.535 528.423 651.309 528.244C651.083 528.065 650.923 527.816 650.854 527.536C650.811 527.371 650.801 527.2 650.825 527.033C650.85 526.865 650.907 526.703 650.994 526.558C651.082 526.413 651.197 526.286 651.334 526.186C651.47 526.085 651.626 526.013 651.791 525.974C670.583 521.211 677.09 511.372 677.142 511.268C677.234 511.123 677.354 510.997 677.495 510.898C677.636 510.799 677.795 510.729 677.963 510.692C678.131 510.654 678.305 510.65 678.474 510.68C678.644 510.709 678.806 510.772 678.951 510.865C679.096 510.957 679.222 511.077 679.321 511.218C679.42 511.359 679.49 511.517 679.528 511.685C679.565 511.853 679.569 512.027 679.539 512.197C679.51 512.366 679.447 512.528 679.355 512.673C679.068 513.116 672.301 523.449 652.441 528.499L652.103 528.525Z" fill="white"/>
<path d="M350.566 519.076C350.566 519.076 325.605 512.986 324.304 466.239C322.924 415.797 330.42 356.921 300.878 352.158C271.336 347.394 254.938 383.391 255.303 425.427C255.641 462.231 270.477 542.137 350.462 557.806L350.566 519.076Z" fill="#14B4CA"/>
<path opacity="0.2" d="M350.566 519.076C350.566 519.076 325.605 512.986 324.304 466.239C322.924 415.797 330.42 356.921 300.878 352.158C271.336 347.394 254.938 383.391 255.303 425.427C255.641 462.231 270.477 542.137 350.462 557.806L350.566 519.076Z" fill="black"/>
<path d="M350.566 553.017H350.332C332.346 549.738 317.692 539.821 306.787 523.579C274.46 475.349 284.637 385.291 287.994 369.57C288.069 369.235 288.271 368.943 288.558 368.753C288.844 368.564 289.192 368.493 289.53 368.555C289.867 368.636 290.16 368.843 290.349 369.134C290.538 369.424 290.608 369.776 290.545 370.117C287.24 385.734 277.115 474.646 308.947 522.122C313.581 529.484 319.694 535.803 326.899 540.678C334.103 545.553 342.243 548.877 350.8 550.44C350.97 550.472 351.132 550.536 351.277 550.631C351.421 550.725 351.546 550.847 351.643 550.99C351.74 551.133 351.807 551.294 351.841 551.463C351.875 551.632 351.875 551.807 351.842 551.976C351.786 552.272 351.628 552.539 351.394 552.73C351.161 552.921 350.867 553.022 350.566 553.017Z" fill="white"/>
<path d="M350.566 672.981C324.772 676.469 282.893 676.417 258.712 657.364C234.532 638.312 239.582 621.914 248.874 615.068C258.166 608.223 266.235 600.415 250.253 585.214C234.272 570.014 208.608 545.599 200.279 508.977C191.95 472.356 196.063 449.451 212.408 441.825C228.259 434.433 232.45 446.197 242.159 470.456C251.867 494.714 273.705 473.918 292.393 481.492C311.081 489.066 310.326 504.058 311.498 516.942C312.669 529.826 318.838 533.392 329.431 533.392C340.025 533.392 350.566 539.483 350.566 551.612V672.981Z" fill="#14B4CA"/>
<path d="M350.566 630.451C350.455 630.476 350.339 630.476 350.228 630.451C349.109 630.139 322.43 622.382 283.57 586.698C242.185 548.696 222.664 491.695 222.455 491.122C222.356 490.794 222.387 490.44 222.542 490.135C222.697 489.829 222.965 489.595 223.288 489.482C223.613 489.374 223.967 489.398 224.274 489.549C224.581 489.7 224.816 489.966 224.928 490.289C225.11 490.862 244.449 547.239 285.34 584.772C323.653 619.988 350.644 627.874 350.931 627.952C351.095 628 351.248 628.08 351.381 628.187C351.514 628.294 351.625 628.426 351.707 628.576C351.789 628.726 351.841 628.89 351.86 629.06C351.879 629.23 351.863 629.402 351.816 629.566C351.731 629.829 351.564 630.057 351.338 630.217C351.113 630.376 350.842 630.459 350.566 630.451Z" fill="white"/>
<path d="M294.423 595.756C294.162 595.76 293.905 595.681 293.691 595.532C293.476 595.382 293.313 595.169 293.226 594.923C284.871 573.475 282.971 527.588 282.815 525.636C282.807 525.292 282.933 524.959 283.166 524.707C283.399 524.454 283.721 524.302 284.064 524.282C284.404 524.287 284.73 524.417 284.98 524.648C285.23 524.878 285.386 525.193 285.418 525.531C285.418 526 287.37 572.929 295.569 593.986C295.631 594.146 295.661 594.318 295.657 594.49C295.653 594.662 295.615 594.832 295.545 594.989C295.475 595.147 295.374 595.289 295.248 595.407C295.123 595.525 294.975 595.617 294.814 595.677C294.688 595.723 294.557 595.749 294.423 595.756Z" fill="white"/>
<path d="M294.215 626.599C291.815 626.618 289.416 626.496 287.031 626.235C286.86 626.214 286.695 626.16 286.545 626.076C286.395 625.991 286.263 625.878 286.157 625.743C286.05 625.608 285.972 625.453 285.925 625.287C285.879 625.121 285.865 624.948 285.886 624.777C285.906 624.606 285.96 624.441 286.045 624.291C286.129 624.141 286.242 624.009 286.377 623.902C286.513 623.796 286.668 623.717 286.833 623.671C286.999 623.625 287.173 623.611 287.343 623.632C287.578 623.632 311.81 626.391 322.924 615.068C323.04 614.931 323.182 614.82 323.343 614.741C323.504 614.661 323.68 614.616 323.859 614.608C324.038 614.6 324.217 614.629 324.384 614.693C324.552 614.757 324.704 614.856 324.832 614.981C324.96 615.107 325.06 615.258 325.126 615.425C325.193 615.591 325.225 615.77 325.219 615.949C325.213 616.128 325.171 616.304 325.094 616.466C325.017 616.628 324.907 616.773 324.772 616.89C316.729 625.193 302.7 626.599 294.215 626.599Z" fill="white"/>
<path d="M275.475 133.729L272.664 117.513L258.192 127.04C256.87 124.437 254.995 122.154 252.7 120.35L259.624 101.61L246.609 98.7209L237.083 116.941C233.637 117.522 230.295 118.61 227.166 120.168L223.028 106.425L207.567 118.58L208.582 134.718C205.434 138.245 202.579 142.023 200.045 146.014L187.291 145.364L178.338 165.431L189.295 170.116C188.151 174.267 187.428 178.522 187.135 182.818L173.21 195.624L175.995 211.866L190.493 202.339C191.807 204.94 193.683 207.215 195.985 209.002L189.191 227.769L202.205 230.632L215.844 217.357C218.994 216.863 218.213 210.929 221.648 209.237L225.787 222.928L241.222 210.798L240.831 204.448C243.955 200.96 255.771 193.281 258.322 189.273L261.524 184.067L270.477 164L266.313 156.452L261.68 146.613L275.475 133.729ZM228.234 187.113C216.365 196.431 212.617 198.487 210.612 186.02C208.608 173.552 215.402 154.603 227.271 145.259C239.139 135.915 243.668 135.265 245.803 147.706C247.937 160.148 240.128 177.899 228.234 187.113Z" fill="#E0E0E0"/>
<path d="M246.713 98.7209L263.606 108.455L254.079 126.623L237.187 116.889L246.713 98.7209Z" fill="#F5F5F5"/>
<path d="M289.556 127.248L275.084 136.774L258.192 127.04L272.664 117.513L289.556 127.248Z" fill="#F5F5F5"/>
<path d="M287.239 173.656L276.281 168.997L259.389 159.263L270.347 163.922L287.239 173.656Z" fill="#E0E0E0"/>
<path d="M189.165 227.769L206.057 237.477L212.981 218.737L196.089 209.002L189.165 227.769Z" fill="#E0E0E0"/>
<path d="M242.523 232.662L225.657 222.928L221.518 209.237L238.41 218.971L242.523 232.662Z" fill="#E0E0E0"/>
<path d="M292.341 143.463L289.556 127.248L275.084 136.774C273.752 134.17 271.869 131.888 269.566 130.085L276.49 111.345L263.606 108.455L254.053 126.675C250.607 127.257 247.265 128.344 244.136 129.903L240.024 116.212L224.563 128.367L225.578 144.505C222.426 148.056 219.571 151.86 217.041 155.879L204.261 155.228L195.308 175.296L206.265 179.981C205.132 184.143 204.408 188.406 204.105 192.709L190.206 205.332L192.991 221.574L207.463 212.048C208.795 214.644 210.678 216.918 212.981 218.711L206.057 237.451L219.071 240.34L228.598 222.121C232.057 221.546 235.41 220.449 238.54 218.867L242.653 232.558L258.114 220.429L257.099 204.291C260.247 200.765 263.102 196.987 265.636 192.995L278.416 193.62L287.369 173.552L276.255 168.893C277.408 164.734 278.14 160.47 278.442 156.165L292.341 143.463ZM245.152 196.951C233.309 206.269 221.96 203.745 219.8 191.303C217.64 178.862 225.526 161.189 237.395 151.871C249.264 142.552 260.586 145.103 262.747 157.545C264.907 169.986 257.02 187.633 245.152 196.951Z" fill="#EBEBEB"/>
<path d="M240.024 116.16L223.132 106.425L207.671 118.58L224.564 128.315L240.024 116.16Z" fill="#F5F5F5"/>
<path d="M207.671 118.58L208.686 134.718L225.579 144.452L224.564 128.315L207.671 118.58Z" fill="#E0E0E0"/>
<path d="M217.041 155.749L200.149 146.014L187.395 145.39L204.261 155.124L217.041 155.749Z" fill="#F5F5F5"/>
<path d="M187.395 145.39L178.441 165.431L195.308 175.166L204.261 155.124L187.395 145.39Z" fill="#E0E0E0"/>
<path d="M204.105 192.553L187.239 182.818L173.314 195.624L190.18 205.359L204.105 192.553Z" fill="#F5F5F5"/>
<path d="M192.991 221.6L176.099 211.865L173.314 195.624L190.18 205.358L192.991 221.6Z" fill="#E0E0E0"/>
<path d="M263.606 108.455L246.713 98.7209L259.623 101.61L276.49 111.345L263.606 108.455Z" fill="#F5F5F5"/>
<path d="M199.837 60.1211V35.8888L180.55 44.5822C179.528 40.4709 177.764 36.5809 175.344 33.1038L187.499 8.61126L172.663 0.0479736L157.515 22.8227C153.293 22.4538 149.04 22.8686 144.969 24.046L142.835 2.98917L121.856 15.1183L119.748 38.5437C115.182 42.5893 110.984 47.0315 107.202 51.8181L92.054 46.6124L77.2179 72.3283L89.347 82.7396C87.1058 88.4072 85.364 94.2598 84.1414 100.231L64.8545 113.791V138.05L84.1414 129.356C85.1629 133.467 86.9271 137.357 89.347 140.835L77.2699 165.353L92.106 173.916L107.254 151.142C111.476 151.509 115.729 151.095 119.8 149.918L121.908 170.975L142.887 158.846L145.021 135.421C151.569 133.032 157.37 128.955 161.836 123.604L172.715 127.43L187.551 101.74L178.442 93.9317C180.419 87.4204 181.152 80.5947 180.602 73.8119L199.837 60.1211ZM132.346 120.663C116.26 129.955 106.317 123.266 106.317 104.759C106.317 86.2534 119.618 63.3746 135.729 54.0825C151.841 44.7905 161.575 51.4797 161.575 70.1419C161.575 88.8042 148.457 111.345 132.346 120.663Z" fill="#E0E0E0"/>
<path d="M189.529 9.7565L172.663 0.0479736L157.515 22.8227L174.381 32.5572L189.529 9.7565Z" fill="#F5F5F5"/>
<path d="M216.729 45.6233L199.837 35.8888L180.55 44.5822L197.442 54.3168L216.729 45.6233Z" fill="#F5F5F5"/>
<path d="M138.723 180.71L121.856 170.975L119.748 149.918L136.614 159.653L138.723 180.71Z" fill="#E0E0E0"/>
<path d="M77.1919 165.353L94.0842 175.088L106.239 150.595L89.3471 140.861L77.1919 165.353Z" fill="#E0E0E0"/>
<path d="M216.729 69.9858V45.7536L197.442 54.3689C196.431 50.2539 194.666 46.362 192.236 42.8904L204.391 18.3979L189.555 9.80859L174.407 32.6093C170.185 32.2277 165.93 32.6427 161.861 33.8326L159.727 12.7238L138.748 24.8529L136.614 48.2783C132.055 52.3307 127.857 56.7722 124.068 61.5527L108.92 56.347L94.0839 82.0629L106.239 92.4742C103.986 98.1377 102.244 103.991 101.033 109.965L81.7466 123.526V147.784L101.033 139.091C102.044 143.206 103.809 147.098 106.239 150.569L94.0839 175.062L108.92 183.625L124.068 160.85C128.29 161.219 132.543 160.804 136.614 159.627L138.748 180.684L159.727 168.555L161.835 145.129C166.401 141.084 170.599 136.641 174.381 131.855L189.529 137.061L204.365 111.371L192.21 100.959C194.463 95.2956 196.205 89.4421 197.416 83.4684L216.729 69.9858ZM149.238 130.527C133.126 139.819 120.06 132.271 120.06 113.687C120.06 95.103 133.074 72.4845 149.238 63.1664C165.401 53.8483 178.389 61.4225 178.389 80.0067C178.389 98.5908 165.323 121.079 149.238 130.397V130.527Z" fill="#EBEBEB"/>
<path d="M107.202 51.8702L124.068 61.6047L108.92 56.321L92.0537 46.5604L107.202 51.8702Z" fill="#F0F0F0"/>
<path d="M92.052 46.587L77.2119 72.3115L94.0986 82.0532L108.939 56.3286L92.052 46.587Z" fill="#F5F5F5"/>
<path d="M77.1919 72.2762L94.0842 82.0108L106.239 92.4741L89.3471 82.7656L77.1919 72.2762Z" fill="#E0E0E0"/>
<path d="M84.1414 100.257L101.034 109.991L81.7468 123.552L64.8545 113.817L84.1414 100.257Z" fill="#F5F5F5"/>
<path d="M64.8545 113.817L81.7468 123.552V147.81L64.8545 138.076V113.817Z" fill="#E0E0E0"/>
<path d="M159.727 12.7237L142.835 2.98914L121.856 15.1183L138.723 24.8528L159.727 12.7237Z" fill="#F5F5F5"/>
<path d="M376.282 707.807L620.947 566.526C621.486 566.336 621.953 565.984 622.284 565.518C622.614 565.052 622.791 564.495 622.791 563.923C622.791 563.352 622.614 562.795 622.284 562.328C621.953 561.862 621.486 561.51 620.947 561.32L598.329 548.306C596.928 547.601 595.381 547.234 593.813 547.234C592.245 547.234 590.698 547.601 589.297 548.306L344.554 689.457C344.015 689.647 343.548 689.999 343.218 690.465C342.887 690.931 342.71 691.489 342.71 692.06C342.71 692.631 342.887 693.189 343.218 693.655C343.548 694.121 344.015 694.473 344.554 694.663L367.25 707.677C368.641 708.402 370.183 708.792 371.751 708.814C373.319 708.837 374.871 708.492 376.282 707.807Z" fill="#E0E0E0"/>
<path d="M614.232 21.0528L393.617 148.435C390.337 150.575 387.608 153.458 385.65 156.849C383.692 160.241 382.56 164.046 382.347 167.956V691.305C382.347 698.489 387.396 701.404 393.617 697.812L614.232 570.43C617.516 568.294 620.248 565.413 622.207 562.021C624.166 558.628 625.295 554.821 625.502 550.909V27.5599C625.502 20.3761 620.479 17.4609 614.232 21.0528Z" fill="#455A64"/>
<path d="M393.617 148.435L614.232 21.0528C619.802 17.8253 624.409 19.8295 625.346 25.4255C624.826 21.9072 623.566 18.5388 621.651 15.5421C619.735 12.5454 617.207 9.98817 614.232 8.03869L605.07 2.83305C601.577 1.06105 597.716 0.137573 593.8 0.137573C589.883 0.137573 586.022 1.06105 582.53 2.83305L361.888 130.111C358.565 132.195 355.825 135.087 353.924 138.518L385.652 156.738C387.553 153.334 390.295 150.475 393.617 148.435Z" fill="#37474F"/>
<path d="M350.566 672.981C350.78 676.892 351.912 680.697 353.87 684.088C355.828 687.48 358.557 690.362 361.837 692.502L371.025 697.708C374.205 699.299 377.685 700.2 381.237 700.353C384.79 700.505 388.334 699.905 391.639 698.593C386.433 700.623 382.295 697.63 382.295 691.201V167.956C382.425 164.029 383.564 160.202 385.6 156.842L353.872 138.622C351.864 141.957 350.727 145.743 350.566 149.632V672.981Z" fill="#263238"/>
<path d="M399.681 218.164L608.245 97.7839C611.993 95.6496 615.013 97.3935 615.013 101.688V489.04C614.888 491.387 614.209 493.672 613.033 495.708C611.857 497.743 610.217 499.472 608.245 500.753L399.759 621.133C396.011 623.293 392.992 621.549 392.992 617.229V229.877C393.111 227.537 393.778 225.257 394.94 223.223C396.102 221.188 397.726 219.455 399.681 218.164Z" fill="white"/>
<path d="M503.925 104.577C502.773 105.333 501.816 106.349 501.128 107.542C500.441 108.736 500.044 110.074 499.968 111.449C499.968 114.052 501.738 115.015 503.925 113.739C505.08 112.988 506.041 111.974 506.729 110.779C507.417 109.585 507.811 108.244 507.881 106.868C507.881 104.343 506.111 103.328 503.925 104.577Z" fill="#37474F"/>
<path d="M503.925 579.462C499.374 582.439 495.589 586.445 492.876 591.157C490.163 595.869 488.598 601.154 488.308 606.583C488.308 616.552 495.309 620.613 503.925 615.615C508.473 612.637 512.257 608.63 514.97 603.918C517.683 599.207 519.249 593.923 519.541 588.494C519.594 578.525 512.566 574.464 503.925 579.462Z" fill="#37474F"/>
<path d="M466.47 144.869C464.183 146.388 462.284 148.422 460.928 150.81C459.571 153.197 458.795 155.87 458.662 158.612C458.662 163.661 462.201 165.718 466.47 163.193C468.782 161.689 470.706 159.66 472.085 157.272C473.465 154.884 474.261 152.204 474.409 149.45C474.409 144.4 470.869 142.344 466.47 144.869Z" fill="#37474F"/>
<path d="M485.913 143.151C485.913 146.535 488.516 147.81 491.561 146.014L543.618 115.9C545.23 114.893 546.582 113.519 547.564 111.891C548.545 110.263 549.128 108.426 549.266 106.529C549.266 103.172 546.663 101.896 543.618 103.692L491.561 133.807C489.952 134.811 488.602 136.181 487.621 137.804C486.64 139.428 486.055 141.259 485.913 143.151Z" fill="#37474F"/>
<path d="M368.161 234.927C370.008 236.13 371.546 237.751 372.649 239.659C373.753 241.568 374.391 243.709 374.512 245.91C374.512 249.971 371.675 251.611 368.161 249.58C366.32 248.373 364.789 246.75 363.69 244.842C362.592 242.934 361.957 240.795 361.836 238.596C361.836 234.562 364.673 232.922 368.161 234.927Z" fill="#37474F"/>
<path d="M368.161 283.808C370.008 285.011 371.546 286.632 372.649 288.541C373.753 290.449 374.391 292.59 374.512 294.791C374.512 298.826 371.675 300.466 368.161 298.461C366.32 297.254 364.789 295.631 363.69 293.723C362.592 291.815 361.957 289.676 361.836 287.478C361.836 283.417 364.673 281.777 368.161 283.808Z" fill="#37474F"/>
<path d="M366.183 235.916C368.031 237.119 369.568 238.74 370.672 240.649C371.775 242.557 372.413 244.699 372.534 246.9C372.534 250.934 369.697 252.574 366.183 250.57C364.336 249.366 362.799 247.745 361.695 245.837C360.592 243.928 359.954 241.787 359.833 239.586C359.859 235.525 362.696 233.964 366.183 235.916Z" fill="#455A64"/>
<path d="M366.183 284.771C368.034 285.976 369.574 287.602 370.677 289.515C371.781 291.428 372.417 293.575 372.534 295.781C372.534 299.815 369.697 301.455 366.183 299.424C364.332 298.226 362.791 296.606 361.687 294.696C360.583 292.787 359.948 290.643 359.833 288.441C359.859 284.406 362.696 282.766 366.183 284.771Z" fill="#455A64"/>
<path d="M657.231 113.947C657.231 109.627 654.211 107.883 650.463 110.043L625.502 124.437L441.977 230.424C440.006 231.704 438.365 233.433 437.189 235.469C436.013 237.504 435.335 239.789 435.21 242.136V629.384C435.21 633.705 438.229 635.449 441.977 633.288L625.58 527.275L650.463 512.908C652.434 511.627 654.075 509.898 655.251 507.863C656.427 505.827 657.105 503.543 657.231 501.195V113.947Z" fill="white"/>
<path d="M659.833 113.948C659.997 112.642 659.772 111.318 659.187 110.139C658.602 108.961 657.683 107.982 656.544 107.323C655.405 106.665 654.097 106.357 652.784 106.438C651.471 106.519 650.211 106.985 649.162 107.779L625.346 121.548L440.676 228.263C438.298 229.764 436.321 231.821 434.916 234.256C433.51 236.691 432.718 239.431 432.607 242.241V629.384C432.503 630.684 432.753 631.987 433.33 633.156C433.908 634.325 434.791 635.315 435.887 636.021C436.819 636.563 437.88 636.842 438.958 636.828C440.484 636.781 441.972 636.341 443.279 635.553L628.079 528.837L651.843 515.12C654.207 513.605 656.173 511.545 657.577 509.113C658.981 506.681 659.781 503.948 659.911 501.143L659.833 113.948ZM625.398 524.386L623.264 525.636L440.78 630.998C440.473 631.234 440.118 631.398 439.74 631.479C439.362 631.56 438.97 631.556 438.594 631.466C438.255 631.258 437.917 630.529 437.917 629.332V242.136C438.052 240.247 438.614 238.412 439.56 236.771C440.507 235.13 441.814 233.725 443.383 232.662L625.684 127.248L651.713 112.178C652.019 111.942 652.375 111.778 652.753 111.697C653.131 111.616 653.523 111.62 653.899 111.709C654.237 111.917 654.576 112.646 654.576 113.843V501.195C654.441 503.085 653.879 504.92 652.932 506.561C651.985 508.202 650.678 509.607 649.11 510.669L625.346 524.386H625.398Z" fill="#14B4CA"/>
<path d="M546.221 203.927C569.646 190.444 588.516 201.324 588.516 228.367C588.516 255.411 569.568 288.232 546.221 301.611C522.873 314.989 503.925 304.214 503.925 277.196C503.925 250.179 522.873 217.436 546.221 203.927Z" fill="#14B4CA"/>
<path d="M546.22 225.166C553.795 220.793 559.937 224.333 559.937 232.974C559.68 237.735 558.304 242.368 555.92 246.497C553.537 250.626 550.214 254.134 546.22 256.738C538.646 261.111 532.503 257.571 532.503 248.93C532.761 244.169 534.137 239.537 536.52 235.408C538.904 231.279 542.227 227.77 546.22 225.166Z" fill="#14B4CA"/>
<path d="M572.951 271.808C572.951 257.441 562.878 251.611 550.411 258.794L542.602 263.297C530.161 270.481 520.062 287.972 520.062 302.34V306.218C527.272 308.586 536.33 307.311 546.09 301.611C556.903 294.941 566.046 285.887 572.821 275.14L572.951 271.808Z" fill="#14B4CA"/>
<path opacity="0.7" d="M546.22 225.166C553.795 220.793 559.937 224.333 559.937 232.974C559.68 237.735 558.304 242.368 555.92 246.497C553.537 250.626 550.214 254.134 546.22 256.738C538.646 261.111 532.503 257.571 532.503 248.93C532.761 244.169 534.137 239.537 536.52 235.408C538.904 231.279 542.227 227.77 546.22 225.166Z" fill="white"/>
<path opacity="0.7" d="M572.951 271.808C572.951 257.441 562.878 251.611 550.411 258.794L542.602 263.297C530.161 270.481 520.062 287.972 520.062 302.34V306.218C527.272 308.586 536.33 307.311 546.09 301.611C556.903 294.941 566.046 285.887 572.821 275.14L572.951 271.808Z" fill="white"/>
<path d="M464.388 361.085L518.813 329.669C521.415 328.238 523.315 329.383 523.315 332.272V334.068C523.233 335.632 522.782 337.155 522 338.512C521.217 339.869 520.125 341.022 518.813 341.876L464.388 373.293C461.915 374.724 459.885 373.553 459.885 370.69V368.894C459.969 367.33 460.421 365.808 461.203 364.452C461.986 363.095 463.077 361.942 464.388 361.085Z" fill="#14B4CA"/>
<path opacity="0.1" d="M464.388 361.085L518.813 329.669C521.415 328.238 523.315 329.383 523.315 332.272V334.068C523.233 335.632 522.782 337.155 522 338.512C521.217 339.869 520.125 341.022 518.813 341.876L464.388 373.293C461.915 374.724 459.885 373.553 459.885 370.69V368.894C459.969 367.33 460.421 365.808 461.203 364.452C461.986 363.095 463.077 361.942 464.388 361.085Z" fill="black"/>
<path d="M462.149 399.008L626.804 303.953C628.027 303.225 629.042 303.797 629.042 305.255V324.464C628.996 325.243 628.77 326.001 628.382 326.679C627.993 327.356 627.453 327.934 626.804 328.368L462.149 423.423C460.9 424.152 459.885 423.553 459.885 422.121V402.913C459.929 402.13 460.158 401.369 460.551 400.69C460.944 400.012 461.492 399.436 462.149 399.008Z" fill="#14B4CA"/>
<path opacity="0.2" d="M462.149 399.008L626.804 303.953C628.027 303.225 629.042 303.797 629.042 305.255V324.464C628.996 325.243 628.77 326.001 628.382 326.679C627.993 327.356 627.453 327.934 626.804 328.368L462.149 423.423C460.9 424.152 459.885 423.553 459.885 422.121V402.913C459.929 402.13 460.158 401.369 460.551 400.69C460.944 400.012 461.492 399.436 462.149 399.008Z" fill="white"/>
<path d="M464.388 446.536L518.813 415.12C521.415 413.688 523.315 414.86 523.315 417.723V419.519C523.235 421.083 522.785 422.607 522.002 423.964C521.22 425.321 520.127 426.474 518.813 427.327L464.388 458.743C461.915 460.201 459.885 459.029 459.885 456.14V454.344C459.973 452.782 460.427 451.261 461.209 449.905C461.991 448.549 463.079 447.395 464.388 446.536Z" fill="#14B4CA"/>
<path opacity="0.1" d="M464.388 446.536L518.813 415.12C521.415 413.688 523.315 414.86 523.315 417.723V419.519C523.235 421.083 522.785 422.607 522.002 423.964C521.22 425.321 520.127 426.474 518.813 427.327L464.388 458.743C461.915 460.201 459.885 459.029 459.885 456.14V454.344C459.973 452.782 460.427 451.261 461.209 449.905C461.991 448.549 463.079 447.395 464.388 446.536Z" fill="black"/>
<path d="M462.149 484.459L626.804 389.404C628.027 388.675 629.042 389.274 629.042 390.705V409.914C628.996 410.694 628.77 411.452 628.382 412.129C627.993 412.807 627.453 413.385 626.804 413.818L462.149 508.873C460.9 509.602 459.885 509.03 459.885 507.572V488.363C459.929 487.58 460.158 486.819 460.551 486.141C460.944 485.463 461.492 484.886 462.149 484.459Z" fill="#14B4CA"/>
<path opacity="0.2" d="M462.149 484.459L626.804 389.404C628.027 388.675 629.042 389.274 629.042 390.705V409.914C628.996 410.694 628.77 411.452 628.382 412.129C627.993 412.807 627.453 413.385 626.804 413.818L462.149 508.873C460.9 509.602 459.885 509.03 459.885 507.572V488.363C459.929 487.58 460.158 486.819 460.551 486.141C460.944 485.463 461.492 484.886 462.149 484.459Z" fill="white"/>
<path d="M527.818 495.365L592.889 457.858C595.492 456.4 597.418 457.572 597.418 460.461V480.555C597.332 482.121 596.878 483.645 596.09 485.002C595.303 486.36 594.206 487.511 592.889 488.363L527.818 525.896C525.216 527.327 523.315 526.156 523.315 523.293V503.173C523.406 501.611 523.86 500.091 524.642 498.736C525.424 497.38 526.511 496.226 527.818 495.365Z" fill="#14B4CA"/>
<path opacity="0.1" d="M527.818 495.365L592.889 457.858C595.492 456.4 597.418 457.572 597.418 460.461V480.555C597.332 482.121 596.878 483.645 596.09 485.002C595.303 486.36 594.206 487.511 592.889 488.363L527.818 525.896C525.216 527.327 523.315 526.156 523.315 523.293V503.173C523.406 501.611 523.86 500.091 524.642 498.736C525.424 497.38 526.511 496.226 527.818 495.365Z" fill="black"/>
<path d="M681.905 410.565C681.905 410.565 649.942 366.473 648.068 361.111C646.585 357.155 648.069 351.273 648.537 348.54C649.006 345.807 649.422 339.716 649.89 338.128C650.671 335.161 646.845 335.76 644.685 338.467C642.524 341.174 641.796 346.588 640.676 347.473C639.557 348.357 631.046 335.942 626.595 330.216C622.144 324.49 619.359 321.002 616.626 323.136C614.674 324.672 616.132 328.003 619.359 332.897C621.244 335.532 622.982 338.269 624.565 341.096C625.06 342.163 622.405 342.241 620.973 344.453C619.854 346.171 620.973 348.956 619.411 350.284C618.45 351.015 617.792 352.074 617.561 353.26C617.331 354.445 617.545 355.674 618.162 356.713C621.059 361.262 624.796 365.22 629.172 368.373C633.961 371.679 635.887 372.85 638.724 377.353C641.561 381.856 667.017 427.848 668.735 430.607C670.453 433.366 673.758 438.988 678.782 439.144C683.805 439.3 724.93 403.902 727.038 402.132C733.805 396.484 735.966 395.677 737.111 400.752C737.507 402.557 737.802 404.381 737.996 406.218C738.803 412.673 743.202 435.734 743.202 435.734C743.202 435.734 764.024 445.807 781.125 440.94C798.225 436.073 804.003 428.811 804.003 428.811L795.44 414.86C797.757 409.107 808.454 385.786 811.916 369.466L758.298 360.799C757.205 360.565 755.435 360.122 753.092 359.524C750.151 358.743 742.681 356.166 737.033 361.111C718.605 377.171 681.957 410.565 681.957 410.565" fill="#FFA8A7"/>
<path d="M788.205 681.102L778.6 694.455C782.965 696.493 787.734 697.516 792.551 697.448C801.167 697.76 803.535 694.845 803.847 694.272C805.305 691.149 803.041 685.527 802.416 680.686L788.205 681.102Z" fill="#37474F"/>
<path d="M779.146 688.052C779.146 688.052 767.486 687.297 759.443 686.308C751.4 685.319 745.023 689.223 746.897 692.528C748.772 695.834 753.222 698.593 760.146 700.91C766.054 702.914 773.16 704.345 779.303 706.115C785.445 707.885 789.714 710.202 793.28 708.952C797.262 707.573 798.98 705.985 798.642 703.07C797.772 698.923 796.695 694.823 795.414 690.785L779.146 688.052Z" fill="#37474F"/>
<path d="M803.847 667.698C803.847 667.698 802.39 679.827 802.285 682.429C802.181 685.032 790.443 685.865 788.204 681.102L787.84 666.266L803.847 667.698Z" fill="#F28F8F"/>
<path d="M792.03 675.142L796.221 693.57C796.221 693.57 796.611 695.808 787.033 697.24C777.455 698.671 762.41 692.216 759.834 690.915C757.257 689.613 756.971 686.984 766.393 687.505C775.815 688.026 779.147 688.052 779.147 688.052L776.075 679.905L792.03 675.142Z" fill="#FFA8A7"/>
<path d="M811.76 369.31L818.397 367.462C818.397 367.462 832.27 411.372 833.806 415.614C835.341 419.857 837.085 424.334 834.092 429.565C830.526 435.786 811.76 460.799 811.76 460.799L799.839 449.139L813.374 424.36L801.401 400.154L811.76 369.31Z" fill="#F28F8F"/>
<path d="M743.592 312.282C742.036 309.361 741.246 306.093 741.296 302.784C741.346 299.475 742.235 296.233 743.878 293.36C750.489 281.101 765.221 275.14 782.764 277.405C790.885 278.472 800.464 285.213 805.695 295.286C811.473 306.452 812.02 328.94 813.504 337.452L743.592 312.282Z" fill="#37474F"/>
<path d="M743.123 317.098C743.123 317.098 738.959 325.036 739.688 325.765C740.767 326.396 741.947 326.836 743.175 327.066L743.123 317.098Z" fill="#FFA8A7"/>
<path d="M755.773 292.006C751.244 294.948 743.436 300.361 743.097 318.191C742.733 336.411 745.336 342.423 748.043 344.531C749.865 345.963 760.562 345.234 765.143 344.167C769.724 343.1 782.92 336.567 787.684 326.65C793.28 314.989 792.134 298.019 783.831 292.813C779.605 290.314 774.814 288.929 769.906 288.788C764.999 288.647 760.136 289.754 755.773 292.006Z" fill="#FFA8A7"/>
<path d="M803.847 428.707C811.864 441.2 819.464 452.132 821.13 466.239C824.566 495.885 813.321 529.774 810.901 551.716C815.453 557.957 818.077 565.395 818.449 573.111C818.449 582.195 803.847 667.698 803.847 667.698C803.847 667.698 793.228 670.925 787.84 666.266L777.819 508.978L783.024 489.821L803.847 428.707Z" fill="#14B4CA"/>
<path opacity="0.2" d="M803.847 428.707C811.864 441.2 819.464 452.132 821.13 466.239C824.566 495.885 813.321 529.774 810.901 551.716C815.453 557.957 818.077 565.395 818.449 573.111C818.449 582.195 803.847 667.698 803.847 667.698C803.847 667.698 793.228 670.925 787.84 666.266L777.819 508.978L783.024 489.821L803.847 428.707Z" fill="black"/>
<path d="M777.819 508.978L783.024 489.821C792.992 487.197 802.605 483.378 811.656 478.446C811.656 478.446 806.242 488.311 790.677 493.725L782.634 518.322L781.957 574.673L777.819 508.978Z" fill="#14B4CA"/>
<path opacity="0.3" d="M777.819 508.978L783.024 489.821C792.992 487.197 802.605 483.378 811.656 478.446C811.656 478.446 806.242 488.311 790.677 493.725L782.634 518.322L781.957 574.673L777.819 508.978Z" fill="black"/>
<path d="M803.847 428.707C808.142 435.734 818.397 447.707 816.211 459.238C813.608 473.189 806.06 483.001 783.103 489.821L761.551 567.905C761.551 567.905 772.77 578.317 776.205 588.39C779.641 598.463 792.03 675.194 792.03 675.194C792.03 675.194 788.178 681.466 776.075 679.957C776.075 679.957 733.883 583.652 730.916 577.38C727.315 571.027 726.053 563.613 727.35 556.427C728.678 546.328 742.967 435.786 742.967 435.786L803.847 428.707Z" fill="#14B4CA"/>
<path opacity="0.2" d="M803.847 428.707C808.142 435.734 818.397 447.707 816.211 459.238C813.608 473.189 806.06 483.001 783.103 489.821L761.551 567.905C761.551 567.905 772.77 578.317 776.205 588.39C779.641 598.463 792.03 675.194 792.03 675.194C792.03 675.194 788.178 681.466 776.075 679.957C776.075 679.957 733.883 583.652 730.916 577.38C727.315 571.027 726.053 563.613 727.35 556.427C728.678 546.328 742.967 435.786 742.967 435.786L803.847 428.707Z" fill="black"/>
<path d="M811.76 369.31L758.142 360.643C757.049 360.409 755.279 359.966 752.936 359.367C752.936 359.367 750.646 392.996 736.877 400.7C737.215 402.314 737.502 404.11 737.762 406.166C738.569 412.621 742.968 435.682 742.968 435.682C742.968 435.682 763.79 445.755 780.891 440.888C797.991 436.021 803.769 428.759 803.769 428.759L795.206 414.808C797.601 409.003 808.376 385.682 811.76 369.31Z" fill="#14B4CA"/>
<path opacity="0.7" d="M811.76 369.31L758.142 360.643C757.049 360.409 755.279 359.966 752.936 359.367C752.936 359.367 750.646 392.996 736.877 400.7C737.215 402.314 737.502 404.11 737.762 406.166C738.569 412.621 742.968 435.682 742.968 435.682C742.968 435.682 763.79 445.755 780.891 440.888C797.991 436.021 803.769 428.759 803.769 428.759L795.206 414.808C797.601 409.003 808.376 385.682 811.76 369.31Z" fill="white"/>
<path d="M797.627 409.264C790.506 413.539 783.045 417.222 775.32 420.273C782.332 420.134 789.196 418.236 795.284 414.756L797.627 409.264Z" fill="#14B4CA"/>
<path d="M754.446 292.891C754.446 292.891 751.843 309.81 757.985 319.752C757.985 319.752 760.276 313.011 765.976 314.287C771.676 315.562 771.989 323.084 767.98 327.301C766.961 328.483 765.63 329.355 764.138 329.815C762.647 330.276 761.055 330.306 759.547 329.903C759.547 329.903 758.636 342.137 758.142 352.392C757.647 362.647 754.94 385.005 766.471 394.037C778.001 403.069 806.944 406.244 820.505 387.296C828.053 376.754 818.033 358.118 813.373 337.217C809.079 318.009 806.658 289.534 786.278 284.953C765.898 280.372 754.446 292.891 754.446 292.891Z" fill="#37474F"/>
<path d="M829.225 61.7348L824.93 64.3377C825.291 62.8096 825.491 61.2482 825.529 59.6786C825.529 50.9592 819.412 47.4454 811.864 51.8701C809.567 53.2558 807.517 55.0152 805.799 57.0758C805.799 45.3631 797.575 40.5999 787.424 46.4563C782.074 49.9448 777.623 54.645 774.43 60.1758C771.237 65.7065 769.393 71.912 769.048 78.2888C769.048 78.8874 769.048 79.46 769.048 80.0327C766.433 79.7036 763.786 80.3123 761.578 81.7505C757.6 84.3422 754.29 87.8353 751.916 91.9462C749.542 96.0571 748.17 100.67 747.913 105.41C747.911 106.512 748.025 107.611 748.251 108.69L745.961 110.017C739.74 113.609 734.69 120.611 734.69 125.634C734.69 130.658 739.74 131.855 745.961 128.237L829.251 80.2149C835.472 76.623 840.521 69.6214 840.521 64.5979C840.521 59.5745 835.446 58.1169 829.225 61.7348Z" fill="#EBEBEB"/>
</svg>
