<?xml version="1.0" encoding="UTF-8"?>
<!DOCTYPE svg PUBLIC "-//W3C//DTD SVG 1.1//EN" "http://www.w3.org/Graphics/SVG/1.1/DTD/svg11.dtd">
<svg xmlns="http://www.w3.org/2000/svg" version="1.1" width="3840px" height="1200px" style="shape-rendering:geometricPrecision; text-rendering:geometricPrecision; image-rendering:optimizeQuality; fill-rule:evenodd; clip-rule:evenodd" xmlns:xlink="http://www.w3.org/1999/xlink">
<g><path style="opacity:0.967" fill="#243d8f" d="M 619.5,28.5 C 742.416,26.8928 862.749,43.7261 980.5,79C 1029.72,93.627 1078.05,110.627 1125.5,130C 1130.5,132.801 1134,136.968 1136,142.5C 1246.42,383.612 1265.75,631.946 1194,887.5C 1177.51,945.632 1157.85,1002.63 1135,1058.5C 1133.7,1062.27 1131.53,1065.44 1128.5,1068C 897.099,1174.24 657.433,1197.91 409.5,1139C 334.156,1121 260.823,1097 189.5,1067C 186.371,1063.25 183.871,1059.08 182,1054.5C 75.181,820.675 54.5143,579.342 120,330.5C 137.487,265.039 159.153,201.039 185,138.5C 187.431,133.021 191.597,129.521 197.5,128C 331.647,66.7954 472.314,33.6287 619.5,28.5 Z M 621.5,55.5 C 743.483,54.3307 862.816,71.4974 979.5,107C 1023.32,120.162 1066.32,135.496 1108.5,153C 1112.21,156.91 1115.04,161.41 1117,166.5C 1212.54,379.904 1233.87,600.571 1181,828.5C 1163.72,903.012 1140.05,975.346 1110,1045.5C 918.87,1133.99 719.037,1162.49 510.5,1131C 408.289,1114.7 309.289,1087.03 213.5,1048C 207.863,1044.25 204.03,1039.08 202,1032.5C 101.354,806.432 83.0202,573.765 147,334.5C 162.945,275.664 182.279,217.997 205,161.5C 206.302,157.726 208.469,154.559 211.5,152C 341.792,92.426 478.459,60.2593 621.5,55.5 Z M 931.5,977.5 C 936.638,987.105 941.805,996.772 947,1006.5C 947.72,1008.11 947.554,1009.61 946.5,1011C 943.864,1011.93 941.197,1012.77 938.5,1013.5C 936.575,1013.41 935.408,1012.41 935,1010.5C 933.284,999.552 932.117,988.552 931.5,977.5 Z M 473.5,984.5 C 482.002,983.893 486.669,987.726 487.5,996C 487.192,1000.92 485.692,1005.42 483,1009.5C 477.437,1013.7 472.27,1013.37 467.5,1008.5C 469.378,1000.44 471.378,992.435 473.5,984.5 Z M 755.5,997.5 C 768.413,995.247 773.913,1000.58 772,1013.5C 770.132,1018.7 766.466,1021.7 761,1022.5C 758.966,1022.57 757.466,1021.73 756.5,1020C 754.861,1012.49 754.528,1004.99 755.5,997.5 Z M 642.5,1001.5 C 645.85,1001.33 649.183,1001.5 652.5,1002C 654.667,1002.83 656.167,1004.33 657,1006.5C 659,1012.83 659,1019.17 657,1025.5C 652.909,1029.3 648.076,1030.47 642.5,1029C 642,1028.5 641.5,1028 641,1027.5C 640.61,1018.74 641.11,1010.08 642.5,1001.5 Z M 762.5,1038.5 C 772.457,1037.79 777.79,1042.45 778.5,1052.5C 777.028,1063.46 771.195,1067.46 761,1064.5C 759.801,1056.51 759.134,1048.51 759,1040.5C 760.302,1039.92 761.469,1039.25 762.5,1038.5 Z"/></g>
<g><path style="opacity:0.994" fill="#243d8f" d="M 637.5,132.5 C 675.95,129.53 711.617,138.03 744.5,158C 821.171,208.223 849.671,278.39 830,368.5C 821.882,392.922 809.215,414.589 792,433.5C 777.025,450.409 761.358,466.742 745,482.5C 708.399,524.722 686.065,573.722 678,629.5C 672.567,664.956 669.901,700.622 670,736.5C 669.667,789.5 669.333,842.5 669,895.5C 658.577,896.652 648.077,896.819 637.5,896C 637,895.5 636.5,895 636,894.5C 635.667,838.5 635.333,782.5 635,726.5C 634.569,689.895 631.236,653.561 625,617.5C 615.597,564.697 592.931,518.697 557,479.5C 539.967,462.135 523.301,444.469 507,426.5C 473.913,385.824 461.913,339.491 471,287.5C 482.763,227.106 515.596,182.273 569.5,153C 591.158,142.388 613.824,135.555 637.5,132.5 Z"/></g>
<g><path style="opacity:0.997" fill="#243d8f" d="M 1902.5,144.5 C 1932.17,144.333 1961.84,144.5 1991.5,145C 2054.45,146.571 2113.79,161.904 2169.5,191C 2212.91,215.08 2244.41,249.913 2264,295.5C 2279.13,339.325 2278.46,382.991 2262,426.5C 2251.07,454.376 2236.07,479.709 2217,502.5C 2195,527.834 2170.5,550.334 2143.5,570C 2129.5,579.333 2115.5,588.667 2101.5,598C 2129.29,625.782 2152.46,656.949 2171,691.5C 2211.53,777.724 2201.87,857.724 2142,931.5C 2104.21,974.609 2059.04,1007.78 2006.5,1031C 1965.34,1049.04 1922.34,1059.71 1877.5,1063C 1715.6,1063.83 1553.76,1063.67 1392,1062.5C 1391.54,1059.44 1391.88,1056.44 1393,1053.5C 1449.23,845.322 1504.73,636.989 1559.5,428.5C 1537.5,428.667 1515.5,428.5 1493.5,428C 1492.45,426.612 1492.28,425.112 1493,423.5C 1540.58,332.009 1588.41,240.676 1636.5,149.5C 1637.31,149.192 1637.97,148.692 1638.5,148C 1646.83,147.667 1655.17,147.333 1663.5,147C 1743.33,146.472 1823,145.638 1902.5,144.5 Z M 1849.5,401.5 C 1883.83,401.333 1918.17,401.5 1952.5,402C 1966.62,405.443 1976.45,413.943 1982,427.5C 1991.86,461.572 1982.7,489.406 1954.5,511C 1946.87,515.983 1938.54,518.983 1929.5,520C 1893.8,520.814 1858.14,520.647 1822.5,519.5C 1823.37,505.641 1825.53,491.975 1829,478.5C 1835.16,454.204 1841.16,429.87 1847,405.5C 1847.66,404.016 1848.5,402.683 1849.5,401.5 Z M 1776.5,701.5 C 1818.17,701.333 1859.83,701.5 1901.5,702C 1918.67,705.833 1929.17,716.333 1933,733.5C 1934.73,773.876 1917.57,803.043 1881.5,821C 1877.64,822.732 1873.64,824.066 1869.5,825C 1828.2,826.638 1786.87,826.972 1745.5,826C 1744.94,825.275 1744.61,824.442 1744.5,823.5C 1754.16,784.537 1763.66,745.537 1773,706.5C 1773.7,704.416 1774.86,702.749 1776.5,701.5 Z"/></g>
<g><path style="opacity:0.996" fill="#243d8f" d="M 2933.5,151.5 C 2935.86,151.337 2938.19,151.503 2940.5,152C 3009.2,185.682 3077.86,219.349 3146.5,253C 3147.43,254.194 3148.1,255.527 3148.5,257C 3147.72,259.995 3146.56,262.828 3145,265.5C 3096.04,347.251 3047.21,429.084 2998.5,511C 2996.83,511.667 2995.17,511.667 2993.5,511C 2928.51,463.16 2855.51,441.826 2774.5,447C 2708.72,451.411 2649.72,473.411 2597.5,513C 2527.82,571.731 2505.98,644.898 2532,732.5C 2548.66,773.827 2577.49,803.327 2618.5,821C 2649.53,833.873 2681.86,840.873 2715.5,842C 2788.58,844.918 2857.58,829.585 2922.5,796C 2929.5,791.667 2936.5,787.333 2943.5,783C 2944.94,782.219 2946.28,782.386 2947.5,783.5C 2904,883.833 2860.5,984.167 2817,1084.5C 2815.44,1086.36 2813.61,1087.86 2811.5,1089C 2766.18,1106.5 2719.18,1115.5 2670.5,1116C 2529.4,1123.47 2408.57,1078.31 2308,980.5C 2265.86,932.209 2239.19,876.209 2228,812.5C 2204.06,622.638 2260.89,461.804 2398.5,330C 2477.02,260.235 2568.02,213.902 2671.5,191C 2753.26,171.964 2835.92,165.631 2919.5,172C 2921.29,171.215 2922.79,170.049 2924,168.5C 2927.18,162.806 2930.35,157.139 2933.5,151.5 Z"/></g>
<g><path style="opacity:0.997" fill="#243d8f" d="M 3281.5,157.5 C 3388.5,158.772 3495.5,158.772 3602.5,157.5C 3636.17,157.667 3669.83,157.833 3703.5,158C 3711.75,158.183 3719.91,158.683 3728,159.5C 3739.95,457.114 3751.61,754.78 3763,1052.5C 3763.67,1061.5 3763.67,1070.5 3763,1079.5C 3659.24,1080.67 3555.4,1080.83 3451.5,1080C 3450.83,1028.86 3450.16,977.696 3449.5,926.5C 3419.17,926.167 3388.83,925.833 3358.5,925.5C 3327.42,925.34 3296.42,925.84 3265.5,927C 3244.26,975.311 3223.43,1023.81 3203,1072.5C 3201.74,1075.43 3199.57,1077.26 3196.5,1078C 3085.46,1078.83 2974.46,1078.66 2863.5,1077.5C 2862.78,1074.76 2863.28,1072.09 2865,1069.5C 2976.5,856.667 3088,643.833 3199.5,431C 3173.98,429.51 3148.32,429.01 3122.5,429.5C 3122.3,427.011 3122.8,424.677 3124,422.5C 3174.71,334.918 3225.54,247.418 3276.5,160C 3278.31,159.243 3279.98,158.41 3281.5,157.5 Z M 3449.5,494.5 C 3450.67,562.665 3450.83,630.999 3450,699.5C 3449.25,700.126 3448.42,700.626 3447.5,701C 3419.5,701.667 3391.5,701.667 3363.5,701C 3362.98,700.439 3362.64,699.772 3362.5,699C 3391.41,630.768 3420.41,562.602 3449.5,494.5 Z"/></g>
<g><path style="opacity:0.994" fill="#243d8f" d="M 387.5,403.5 C 417.197,401.339 445.197,407.172 471.5,421C 501.178,437.66 527.011,459.16 549,485.5C 567.82,507.683 583.487,532.017 596,558.5C 610.928,598.135 619.594,639.135 622,681.5C 622.898,694.154 623.565,706.821 624,719.5C 624.831,778.404 624.664,837.237 623.5,896C 616.167,896.667 608.833,896.667 601.5,896C 603.508,839.698 583.175,793.364 540.5,757C 513.673,736.081 484.006,720.081 451.5,709C 420.77,698.868 390.104,688.534 359.5,678C 337.506,669.84 317.173,658.84 298.5,645C 273.693,623.214 260.86,595.714 260,562.5C 257.171,504.33 279.338,458.497 326.5,425C 345.361,413.326 365.695,406.159 387.5,403.5 Z"/></g>
<g><path style="opacity:0.993" fill="#243d8f" d="M 889.5,403.5 C 958.679,401.314 1007.18,431.648 1035,494.5C 1048.98,532.194 1048.98,569.861 1035,607.5C 1022.11,632.721 1002.95,651.555 977.5,664C 964.412,670.251 951.079,675.918 937.5,681C 898.164,692.889 859.497,706.556 821.5,722C 788.426,736.755 760.259,757.922 737,785.5C 713.24,817.799 702.574,854.132 705,894.5C 697.525,898.437 690.025,898.437 682.5,894.5C 681.846,892.885 681.346,891.218 681,889.5C 680.833,874.5 680.667,859.5 680.5,844.5C 681.238,813.825 681.238,783.158 680.5,752.5C 679.097,696.295 685.264,640.962 699,586.5C 707.367,559.435 719.7,534.435 736,511.5C 758.875,478.958 786.709,451.458 819.5,429C 841.089,415.418 864.422,406.918 889.5,403.5 Z"/></g>
<g><path style="opacity:0.989" fill="#243d8f" d="M 276.5,641.5 C 277.873,641.343 279.207,641.51 280.5,642C 301.177,662.515 325.51,677.181 353.5,686C 384.167,696 414.833,706 445.5,716C 478.671,727.413 509.005,743.747 536.5,765C 576.566,799.159 594.399,842.659 590,895.5C 582.225,897.626 574.392,897.793 566.5,896C 565.667,895.167 564.833,894.333 564,893.5C 563.223,866.069 549.723,848.569 523.5,841C 511.675,838.152 499.675,836.652 487.5,836.5C 457.355,838.831 427.188,840.831 397,842.5C 278.223,842.402 234.223,785.069 265,670.5C 268.295,660.583 272.128,650.916 276.5,641.5 Z"/></g>
<g><path style="opacity:0.989" fill="#243d8f" d="M 1025.5,641.5 C 1028.59,641.626 1030.43,643.293 1031,646.5C 1046.97,681.968 1052.63,718.968 1048,757.5C 1040.68,793.969 1019.52,818.469 984.5,831C 960.111,838.674 935.111,842.508 909.5,842.5C 878.662,840.583 847.828,838.583 817,836.5C 799.339,836.192 782.505,839.692 766.5,847C 756.129,852.37 748.962,860.537 745,871.5C 742.679,879.608 740.845,887.774 739.5,896C 731.254,896.815 723.088,896.648 715,895.5C 710.722,842.239 728.888,798.406 769.5,764C 791.612,747.27 815.612,733.603 841.5,723C 876.818,710.005 912.485,698.005 948.5,687C 977.994,677.934 1003.66,662.768 1025.5,641.5 Z"/></g>
<g><path style="opacity:0.952" fill="#243d8f" d="M 382.5,945.5 C 397.724,943.924 410.89,948.257 422,958.5C 427.643,967.963 427.976,977.63 423,987.5C 416.108,988.32 409.774,986.653 404,982.5C 403.667,978.167 403.333,973.833 403,969.5C 400.598,963.908 396.431,962.075 390.5,964C 387.727,966.383 385.561,969.217 384,972.5C 378.151,989.047 373.317,1005.88 369.5,1023C 371.555,1030.54 376.555,1033.87 384.5,1033C 388.166,1027.01 389.999,1020.51 390,1013.5C 388.829,1012.11 387.329,1011.27 385.5,1011C 384.707,1009.91 384.04,1008.75 383.5,1007.5C 384.148,1003.42 385.482,999.583 387.5,996C 397.763,996.64 407.596,999.14 417,1003.5C 417.667,1005.17 417.667,1006.83 417,1008.5C 413,1021.83 409,1035.17 405,1048.5C 404.426,1050.49 403.259,1051.99 401.5,1053C 387.628,1053.16 374.295,1050.49 361.5,1045C 355.18,1042.01 351.013,1037.18 349,1030.5C 348.333,1023.5 348.333,1016.5 349,1009.5C 352.595,996.047 356.595,982.714 361,969.5C 364.291,957.849 371.457,949.849 382.5,945.5 Z"/></g>
<g><path style="opacity:0.956" fill="#243d8f" d="M 927.5,948.5 C 931.839,947.846 935.673,948.846 939,951.5C 953.16,977.824 967.827,1003.82 983,1029.5C 985.412,1032.8 985.912,1036.3 984.5,1040C 980.14,1041.72 975.64,1042.88 971,1043.5C 968.739,1043.56 966.739,1042.89 965,1041.5C 962.412,1037.33 960.079,1032.99 958,1028.5C 957.25,1027.87 956.416,1027.37 955.5,1027C 950.154,1027.89 944.821,1029.22 939.5,1031C 938.056,1032.13 937.39,1033.63 937.5,1035.5C 938.126,1040.01 938.793,1044.51 939.5,1049C 939.375,1050.63 938.875,1052.13 938,1053.5C 932.032,1057.08 925.699,1058.41 919,1057.5C 915.623,1023.56 913.29,989.563 912,955.5C 917.152,953.005 922.318,950.672 927.5,948.5 Z M 931.5,977.5 C 932.117,988.552 933.284,999.552 935,1010.5C 935.408,1012.41 936.575,1013.41 938.5,1013.5C 941.197,1012.77 943.864,1011.93 946.5,1011C 947.554,1009.61 947.72,1008.11 947,1006.5C 941.805,996.772 936.638,987.105 931.5,977.5 Z"/></g>
<g><path style="opacity:0.958" fill="#243d8f" d="M 455.5,963.5 C 471.673,965.293 487.34,969.127 502.5,975C 508.863,979.921 511.529,986.421 510.5,994.5C 510.808,1004.75 507.475,1013.58 500.5,1021C 498.043,1022.56 495.376,1023.56 492.5,1024C 497.84,1028.01 500.84,1033.35 501.5,1040C 498.904,1051.65 496.57,1063.31 494.5,1075C 492.5,1075.67 490.5,1075.67 488.5,1075C 483.354,1074.25 478.52,1072.75 474,1070.5C 473.333,1068.17 473.333,1065.83 474,1063.5C 475.693,1055.53 477.193,1047.53 478.5,1039.5C 477.81,1032.64 473.977,1028.98 467,1028.5C 465.342,1028.68 464.009,1029.34 463,1030.5C 460.794,1042.54 457.961,1054.37 454.5,1066C 449.777,1066.62 445.11,1066.29 440.5,1065C 438.152,1064.65 436.319,1063.49 435,1061.5C 434.616,1055.41 435.282,1049.41 437,1043.5C 442.461,1018.53 447.794,993.528 453,968.5C 453.366,966.548 454.199,964.882 455.5,963.5 Z M 473.5,984.5 C 471.378,992.435 469.378,1000.44 467.5,1008.5C 472.27,1013.37 477.437,1013.7 483,1009.5C 485.692,1005.42 487.192,1000.92 487.5,996C 486.669,987.726 482.002,983.893 473.5,984.5 Z"/></g>
<g><path style="opacity:0.953" fill="#243d8f" d="M 844.5,967.5 C 857.5,965.422 867.666,969.755 875,980.5C 878.315,985.687 879.148,991.187 877.5,997C 872.267,998.809 866.934,1000.31 861.5,1001.5C 859.813,1001.24 858.313,1000.57 857,999.5C 856.297,994.262 854.13,989.762 850.5,986C 842.476,985.017 838.476,988.683 838.5,997C 841.539,1011.86 844.706,1026.69 848,1041.5C 848.942,1044.99 850.275,1048.33 852,1051.5C 856.041,1056.31 860.375,1056.65 865,1052.5C 866.816,1047.42 866.982,1042.26 865.5,1037C 865.439,1035.29 866.106,1033.96 867.5,1033C 873.758,1031.21 880.091,1030.21 886.5,1030C 895.191,1054.29 886.858,1068.62 861.5,1073C 843.02,1076.18 831.52,1068.68 827,1050.5C 822.153,1033.1 818.653,1015.43 816.5,997.5C 816.836,991.984 818.003,986.651 820,981.5C 821.833,978.333 824.333,975.833 827.5,974C 833.099,971.363 838.766,969.196 844.5,967.5 Z"/></g>
<g><path style="opacity:0.957" fill="#243d8f" d="M 534.5,976.5 C 540.598,976.679 546.598,977.512 552.5,979C 553.893,980.171 554.727,981.671 555,983.5C 552.725,1007.65 550.225,1031.81 547.5,1056C 548.24,1064.71 552.906,1068.04 561.5,1066C 563.815,1064.89 565.315,1063.06 566,1060.5C 569.205,1034.48 572.372,1008.48 575.5,982.5C 576.559,981.304 577.893,980.637 579.5,980.5C 584.511,981.252 589.511,982.085 594.5,983C 595,983.5 595.5,984 596,984.5C 594.331,1009.86 591.997,1035.2 589,1060.5C 587.62,1070.87 582.12,1078.04 572.5,1082C 561.642,1084.38 550.975,1083.71 540.5,1080C 530.033,1073.74 525.033,1064.41 525.5,1052C 527.88,1026.69 530.88,1001.52 534.5,976.5 Z"/></g>
<g><path style="opacity:0.961" fill="#243d8f" d="M 758.5,979.5 C 767.347,978.874 776.014,979.707 784.5,982C 790.117,986.395 793.284,992.228 794,999.5C 797.354,1011.79 793.854,1021.29 783.5,1028C 800.998,1038.12 805.831,1052.62 798,1071.5C 793.029,1076.9 786.863,1080.07 779.5,1081C 768.009,1082.65 756.509,1084.15 745,1085.5C 742.541,1085.11 740.874,1083.78 740,1081.5C 736.668,1051.02 733.502,1020.52 730.5,990C 730.581,987.375 731.248,985.041 732.5,983C 741.334,981.98 750.001,980.814 758.5,979.5 Z M 755.5,997.5 C 754.528,1004.99 754.861,1012.49 756.5,1020C 757.466,1021.73 758.966,1022.57 761,1022.5C 766.466,1021.7 770.132,1018.7 772,1013.5C 773.913,1000.58 768.413,995.247 755.5,997.5 Z M 762.5,1038.5 C 761.469,1039.25 760.302,1039.92 759,1040.5C 759.134,1048.51 759.801,1056.51 761,1064.5C 771.195,1067.46 777.028,1063.46 778.5,1052.5C 777.79,1042.45 772.457,1037.79 762.5,1038.5 Z"/></g>
<g><path style="opacity:0.96" fill="#243d8f" d="M 622.5,983.5 C 629.18,984.466 635.847,984.466 642.5,983.5C 674.743,981.916 687.243,996.916 680,1028.5C 678.565,1037.56 673.398,1043.06 664.5,1045C 657.218,1046.13 649.885,1046.8 642.5,1047C 642,1047.5 641.5,1048 641,1048.5C 640.777,1060.53 640.11,1072.53 639,1084.5C 638.228,1085.85 637.061,1086.68 635.5,1087C 629.513,1087.85 623.68,1087.35 618,1085.5C 617.995,1052.84 618.328,1020.17 619,987.5C 619.69,985.65 620.856,984.316 622.5,983.5 Z M 642.5,1001.5 C 641.11,1010.08 640.61,1018.74 641,1027.5C 641.5,1028 642,1028.5 642.5,1029C 648.076,1030.47 652.909,1029.3 657,1025.5C 659,1019.17 659,1012.83 657,1006.5C 656.167,1004.33 654.667,1002.83 652.5,1002C 649.183,1001.5 645.85,1001.33 642.5,1001.5 Z"/></g>
</svg>
