<?xml version="1.0" encoding="UTF-8"?>
<!DOCTYPE svg PUBLIC "-//W3C//DTD SVG 1.1//EN" "http://www.w3.org/Graphics/SVG/1.1/DTD/svg11.dtd">
<svg xmlns="http://www.w3.org/2000/svg" version="1.1" width="3948px" height="1200px" style="shape-rendering:geometricPrecision; text-rendering:geometricPrecision; image-rendering:optimizeQuality; fill-rule:evenodd; clip-rule:evenodd" xmlns:xlink="http://www.w3.org/1999/xlink">
<g><path style="opacity:0.995" fill="#f05921" d="M 53.5,64.5 C 163.834,64.3333 274.167,64.5 384.5,65C 367.536,117.267 362.036,170.767 368,225.5C 376.019,290.912 393.686,353.578 421,413.5C 451.994,480.52 488.327,544.187 530,604.5C 548.795,630.958 567.961,657.125 587.5,683C 550.93,712.974 514.264,742.974 477.5,773C 475.097,773.63 473.263,772.797 472,770.5C 332.667,596.5 193.333,422.5 54,248.5C 53.5,187.168 53.3333,125.834 53.5,64.5 Z"/></g>
<g><path style="opacity:0.993" fill="#f05921" d="M 520.5,64.5 C 714.833,64.5 909.167,64.5 1103.5,64.5C 1103.5,111.5 1103.5,158.5 1103.5,205.5C 982.341,159.861 871.675,177.694 771.5,259C 714.647,308.499 678.147,370.332 662,444.5C 658.275,463.521 654.775,482.521 651.5,501.5C 582.648,418.772 538.148,324.106 518,217.5C 508.638,166.266 509.471,115.266 520.5,64.5 Z"/></g>
<g><path style="opacity:0.993" fill="#005e6a" d="M 1386.5,64.5 C 1532.83,64.3333 1679.17,64.5 1825.5,65C 1887.18,65.7354 1946.51,77.7354 2003.5,101C 2112.42,153.016 2154.59,238.516 2130,357.5C 2109.58,435.918 2060.08,484.751 1981.5,504C 2045.48,517.326 2102.15,544.993 2151.5,587C 2221.46,654.541 2248.96,736.708 2234,833.5C 2222.59,899.166 2192.76,954.666 2144.5,1000C 2085.22,1053.3 2015.88,1086.3 1936.5,1099C 1876.23,1108.73 1815.57,1113.73 1754.5,1114C 1631.83,1114.5 1509.17,1114.67 1386.5,1114.5C 1386.2,1112.4 1386.53,1110.4 1387.5,1108.5C 1433.19,1084.18 1459.35,1046.18 1466,994.5C 1467.51,984.552 1468.51,974.552 1469,964.5C 1469.67,714.5 1469.67,464.5 1469,214.5C 1468.64,182.073 1460.64,151.739 1445,123.5C 1430.42,100.584 1411.09,82.9174 1387,70.5C 1386.5,68.5273 1386.34,66.5273 1386.5,64.5 Z M 1634.5,162.5 C 1687.52,163.006 1740.52,164.173 1793.5,166C 1838.77,169.524 1879.1,185.19 1914.5,213C 1953.36,249.871 1968.86,295.038 1961,348.5C 1953.82,416.68 1916.99,459.18 1850.5,476C 1822.26,482.946 1793.6,486.613 1764.5,487C 1721.17,487.5 1677.83,487.667 1634.5,487.5C 1634.5,379.167 1634.5,270.833 1634.5,162.5 Z M 1769.5,586.5 C 1817.07,586.446 1863.74,592.946 1909.5,606C 2017.55,640.415 2067.05,714.248 2058,827.5C 2049.93,886.851 2020.1,931.351 1968.5,961C 1935.84,978.655 1901.18,990.655 1864.5,997C 1846.28,1000.24 1827.95,1002.57 1809.5,1004C 1751.18,1005.18 1692.84,1006.01 1634.5,1006.5C 1634.5,866.833 1634.5,727.167 1634.5,587.5C 1679.67,587.832 1724.67,587.499 1769.5,586.5 Z"/></g>
<g><path style="opacity:0.995" fill="#005e6a" d="M 2356.5,64.5 C 2434.84,64.1667 2513.17,64.5 2591.5,65.5C 2594.53,73.8959 2598.36,81.8959 2603,89.5C 2792.6,347.035 2982.94,604.035 3174,860.5C 3174.67,650.833 3174.67,441.167 3174,231.5C 3174.64,200.955 3169.97,171.289 3160,142.5C 3146.06,111.225 3123.89,87.725 3093.5,72C 3091.72,69.8646 3091.05,67.3646 3091.5,64.5C 3185.17,64.5 3278.83,64.5 3372.5,64.5C 3372.95,67.3646 3372.28,69.8646 3370.5,72C 3331.71,92.7956 3307.21,124.629 3297,167.5C 3293.69,182.661 3291.69,197.994 3291,213.5C 3289.7,533.829 3289.04,854.163 3289,1174.5C 3269.13,1164.62 3250.3,1153.12 3232.5,1140C 3139.18,1068.01 3057.35,984.846 2987,890.5C 2844.05,697.884 2700.72,505.551 2557,313.5C 2556.33,528.5 2556.33,743.5 2557,958.5C 2557.06,983.625 2560.39,1008.29 2567,1032.5C 2575.21,1057.1 2589.05,1077.93 2608.5,1095C 2618.39,1102.56 2628.56,1109.72 2639,1116.5C 2639.5,1118.47 2639.66,1120.47 2639.5,1122.5C 2545.17,1122.5 2450.83,1122.5 2356.5,1122.5C 2356.24,1120.21 2356.58,1118.04 2357.5,1116C 2400.76,1092.39 2426.59,1056.22 2435,1007.5C 2437.24,992.581 2438.57,977.581 2439,962.5C 2439.67,717.833 2439.67,473.167 2439,228.5C 2438.98,199.703 2434.32,171.703 2425,144.5C 2410.86,112.357 2388.36,87.8569 2357.5,71C 2356.58,68.9592 2356.24,66.7925 2356.5,64.5 Z"/></g>
<g><path style="opacity:0.994" fill="#005e6a" d="M 3550.5,64.5 C 3660.83,64.5 3771.17,64.5 3881.5,64.5C 3881.81,66.924 3881.47,69.2573 3880.5,71.5C 3835.6,95.9306 3809.77,133.597 3803,184.5C 3801.4,196.113 3800.4,207.78 3800,219.5C 3799.33,468.833 3799.33,718.167 3800,967.5C 3800.23,992.903 3804.57,1017.57 3813,1041.5C 3826.6,1074.27 3849.1,1098.94 3880.5,1115.5C 3881.47,1117.74 3881.81,1120.08 3881.5,1122.5C 3771.17,1122.5 3660.83,1122.5 3550.5,1122.5C 3550.24,1120.21 3550.58,1118.04 3551.5,1116C 3596.38,1091.75 3622.54,1054.25 3630,1003.5C 3631.59,991.885 3632.59,980.218 3633,968.5C 3633.67,719.167 3633.67,469.833 3633,220.5C 3632.69,197.705 3629.36,175.372 3623,153.5C 3609.32,116.828 3585.32,89.161 3551,70.5C 3550.5,68.5273 3550.34,66.5273 3550.5,64.5 Z"/></g>
<g><path style="opacity:0.995" fill="#f05921" d="M 891.5,286.5 C 928.179,284.069 963.179,290.569 996.5,306C 1036.69,325.351 1072.19,351.184 1103,383.5C 1103.67,521.833 1103.67,660.167 1103,798.5C 1055.86,820.308 1008.02,821.808 959.5,803C 923.775,787.911 891.775,767.244 863.5,741C 821.206,701.173 786.039,656.006 758,605.5C 735.393,564.736 723.226,521.07 721.5,474.5C 723.422,410.148 750.422,359.315 802.5,322C 829.194,302.604 858.861,290.771 891.5,286.5 Z"/></g>
<g><path style="opacity:0.995" fill="#f05921" d="M 53.5,461.5 C 159.826,593.168 265.826,725.168 371.5,857.5C 265.836,943.659 160.003,1029.66 54,1115.5C 53.5,897.5 53.3333,679.5 53.5,461.5 Z"/></g>
<g><path style="opacity:0.992" fill="#f05921" d="M 629.5,734.5 C 630.239,734.369 630.906,734.536 631.5,735C 667.912,775.765 708.245,811.765 752.5,843C 797.576,874.368 847.243,895.035 901.5,905C 973.067,914.42 1040.23,901.253 1103,865.5C 1103.5,948.833 1103.67,1032.17 1103.5,1115.5C 982.831,1115.83 862.165,1115.5 741.5,1114.5C 765.997,1094.17 790.663,1074.01 815.5,1054C 818.005,1051.43 817.505,1049.26 814,1047.5C 783.07,1056.95 752.903,1054.79 723.5,1041C 701.918,1030.41 682.252,1017.07 664.5,1001C 650.637,987.471 637.137,973.638 624,959.5C 588.5,915.333 553,871.167 517.5,827C 555.088,796.387 592.421,765.553 629.5,734.5 Z"/></g>
<g><path style="opacity:0.986" fill="#f05921" d="M 413.5,910.5 C 437.802,939.644 461.969,968.977 486,998.5C 508.378,1025.59 529.045,1053.93 548,1083.5C 554.009,1093.52 559.509,1103.85 564.5,1114.5C 429.5,1115.83 294.5,1115.83 159.5,1114.5C 244.197,1046.49 328.864,978.492 413.5,910.5 Z"/></g>
</svg>
