<?xml version="1.0" encoding="UTF-8"?>
<!DOCTYPE svg PUBLIC "-//W3C//DTD SVG 1.1//EN" "http://www.w3.org/Graphics/SVG/1.1/DTD/svg11.dtd">
<svg xmlns="http://www.w3.org/2000/svg" version="1.1" width="1200px" height="454px" style="shape-rendering:geometricPrecision; text-rendering:geometricPrecision; image-rendering:optimizeQuality; fill-rule:evenodd; clip-rule:evenodd" xmlns:xlink="http://www.w3.org/1999/xlink">
<g><path style="opacity:0.992" fill="#00529c" d="M 56.5,-0.5 C 169.5,-0.5 282.5,-0.5 395.5,-0.5C 428.24,7.41187 447.407,28.0785 453,61.5C 453.667,171.167 453.667,280.833 453,390.5C 449.307,417.076 435.474,436.243 411.5,448C 405.863,450.318 400.197,452.151 394.5,453.5C 282.5,453.5 170.5,453.5 58.5,453.5C 26.5416,446.208 6.8749,426.542 -0.5,394.5C -0.5,282.5 -0.5,170.5 -0.5,58.5C 6.61632,27.3832 25.6163,7.71655 56.5,-0.5 Z M 88.5,35.5 C 103.198,35.197 117.865,35.697 132.5,37C 158.292,43.6992 173.792,60.1992 179,86.5C 181.141,102.13 177.808,116.463 169,129.5C 137.851,162.316 106.351,194.816 74.5,227C 100.595,255.097 127.429,282.597 155,309.5C 171.667,325.839 177.667,345.506 173,368.5C 163.012,396.587 143.179,412.42 113.5,416C 103.167,416.667 92.8333,416.667 82.5,416C 65.021,411.52 54.8544,400.353 52,382.5C 51.3333,278.5 51.3333,174.5 52,70.5C 55.3081,49.3545 67.4748,37.6878 88.5,35.5 Z M 211.5,36.5 C 227.021,35.1969 242.688,35.3635 258.5,37C 287.178,45.6444 302.844,64.9777 305.5,95C 305.086,108.505 300.92,120.672 293,131.5C 263,162.167 233,192.833 203,223.5C 202.5,224.5 202,225.5 201.5,226.5C 261.29,288.457 321.623,349.957 382.5,411C 377.562,413.902 372.229,415.568 366.5,416C 313.83,416.833 261.164,416.667 208.5,415.5C 215.908,398.776 221.408,381.443 225,363.5C 227.601,335.572 221.268,309.905 206,286.5C 186.456,266.624 167.289,246.457 148.5,226C 168.65,204.232 189.15,182.732 210,161.5C 230.007,128.433 234.007,93.4331 222,56.5C 219.25,49.3296 215.75,42.663 211.5,36.5 Z M 337.5,36.5 C 350.838,35.0019 364.171,35.8352 377.5,39C 389.611,44.3866 397.111,53.5533 400,66.5C 400.667,163.167 400.667,259.833 400,356.5C 357.319,313.319 314.819,269.986 272.5,226.5C 292.123,205.377 312.289,184.71 333,164.5C 350.593,139.219 357.26,111.219 353,80.5C 351.077,64.5576 345.91,49.8909 337.5,36.5 Z"/></g>
<g><path style="opacity:0.995" fill="#00529c" d="M 497.5,34.5 C 546.834,34.3333 596.168,34.5 645.5,35C 677.765,35.0864 706.431,45.0864 731.5,65C 756.954,90.6998 766.787,121.533 761,157.5C 756.34,175.993 747.173,191.827 733.5,205C 775.037,238.306 789.871,281.139 778,333.5C 765.41,375.753 737.577,401.92 694.5,412C 685.597,413.986 676.597,415.319 667.5,416C 610.834,416.5 554.168,416.667 497.5,416.5C 497.5,289.167 497.5,161.833 497.5,34.5 Z M 569.5,101.5 C 596.169,101.333 622.835,101.5 649.5,102C 674.139,105.138 687.805,118.971 690.5,143.5C 690.268,158.788 684.935,171.955 674.5,183C 639.502,183.5 604.502,183.667 569.5,183.5C 569.5,156.167 569.5,128.833 569.5,101.5 Z M 569.5,250.5 C 599.835,250.333 630.168,250.5 660.5,251C 690.589,253.255 706.922,269.422 709.5,299.5C 707.927,321.564 696.927,336.731 676.5,345C 668.002,347.416 659.335,348.75 650.5,349C 623.502,349.5 596.502,349.667 569.5,349.5C 569.5,316.5 569.5,283.5 569.5,250.5 Z"/></g>
<g><path style="opacity:0.996" fill="#00529c" d="M 805.5,34.5 C 858.834,34.3333 912.168,34.5 965.5,35C 998.046,35.2936 1027.38,44.9602 1053.5,64C 1078.97,87.6263 1091.64,116.96 1091.5,152C 1089.3,212.691 1059.3,252.191 1001.5,270.5C 1034.92,319.415 1068.92,367.915 1103.5,416C 1074.83,416.667 1046.17,416.667 1017.5,416C 984.254,369.509 951.254,322.842 918.5,276C 905.171,275.5 891.837,275.333 878.5,275.5C 878.5,322.5 878.5,369.5 878.5,416.5C 854.167,416.5 829.833,416.5 805.5,416.5C 805.5,289.167 805.5,161.833 805.5,34.5 Z M 878.5,101.5 C 908.835,101.333 939.168,101.5 969.5,102C 990.925,104.875 1005.93,116.208 1014.5,136C 1022.17,173.676 1007.51,197.342 970.5,207C 967.5,207.333 964.5,207.667 961.5,208C 933.835,208.5 906.169,208.667 878.5,208.5C 878.5,172.833 878.5,137.167 878.5,101.5 Z"/></g>
<g><path style="opacity:0.98" fill="#00529b" d="M 1199.5,34.5 C 1199.5,161.833 1199.5,289.167 1199.5,416.5C 1174.5,416.5 1149.5,416.5 1124.5,416.5C 1124.5,289.167 1124.5,161.833 1124.5,34.5C 1149.5,34.5 1174.5,34.5 1199.5,34.5 Z"/></g>
</svg>
