<?xml version="1.0" encoding="UTF-8"?>
<!DOCTYPE svg PUBLIC "-//W3C//DTD SVG 1.1//EN" "http://www.w3.org/Graphics/SVG/1.1/DTD/svg11.dtd">
<svg xmlns="http://www.w3.org/2000/svg" version="1.1" width="7006px" height="1200px" style="shape-rendering:geometricPrecision; text-rendering:geometricPrecision; image-rendering:optimizeQuality; fill-rule:evenodd; clip-rule:evenodd" xmlns:xlink="http://www.w3.org/1999/xlink">
<g><path style="opacity:0.998" fill="#7b141f" d="M 103.5,107.5 C 458.167,107.5 812.833,107.5 1167.5,107.5C 1167.5,435.5 1167.5,763.5 1167.5,1091.5C 812.833,1091.5 458.167,1091.5 103.5,1091.5C 103.5,763.5 103.5,435.5 103.5,107.5 Z"/></g>
<g><path style="opacity:0.993" fill="#7a141e" d="M 1750.5,272.5 C 1811.9,268.813 1870.23,280.313 1925.5,307C 1955.33,322.825 1981,343.825 2002.5,370C 1964.33,400.833 1926.17,431.667 1888,462.5C 1863.71,434.597 1833.21,417.431 1796.5,411C 1727.33,399.944 1668.83,419.778 1621,470.5C 1589.88,508.111 1572.54,551.445 1569,600.5C 1563.93,664.604 1581.26,721.604 1621,771.5C 1665.66,820.056 1720.82,839.889 1786.5,831C 1832.14,822.942 1868.31,800.109 1895,762.5C 1936.24,792.539 1977.4,822.706 2018.5,853C 1980.84,904.358 1931.18,938.691 1869.5,956C 1785.29,976.882 1702.62,971.882 1621.5,941C 1506.18,892.315 1438.52,805.982 1418.5,682C 1407.66,609.559 1415.83,539.392 1443,471.5C 1484.21,380.965 1552.38,320.799 1647.5,291C 1681.28,280.928 1715.61,274.761 1750.5,272.5 Z"/></g>
<g><path style="opacity:1" fill="#fefefe" d="M 1091.5,596.5 C 892.001,597.5 692.334,597.833 492.5,597.5C 407.639,491.645 322.639,385.812 237.5,280C 427.833,279.333 618.167,279.333 808.5,280C 902.67,385.669 997.004,491.169 1091.5,596.5 Z"/></g>
<g><path style="opacity:0.989" fill="#7a141e" d="M 5867.5,283.5 C 5920.54,280.254 5972.2,287.087 6022.5,304C 6060.68,317.993 6094.18,339.16 6123,367.5C 6123.67,368.5 6123.67,369.5 6123,370.5C 6103.62,390.375 6084.46,410.375 6065.5,430.5C 6016.74,381.554 5957.57,356.554 5888,355.5C 5803.62,356.696 5734.95,389.696 5682,454.5C 5640.37,512.329 5622.37,576.996 5628,648.5C 5633.08,721.154 5662.24,781.988 5715.5,831C 5767.56,873.828 5827.56,894.994 5895.5,894.5C 5951.53,893.629 6004.86,881.296 6055.5,857.5C 6056.5,791.17 6056.83,724.837 6056.5,658.5C 6006.5,658.5 5956.5,658.5 5906.5,658.5C 5906.5,634.5 5906.5,610.5 5906.5,586.5C 5982.5,586.5 6058.5,586.5 6134.5,586.5C 6134.67,693.167 6134.5,799.834 6134,906.5C 6068.49,942.423 5998.32,962.256 5923.5,966C 5858.36,971.077 5795.7,961.077 5735.5,936C 5643.28,893.104 5583.45,822.604 5556,724.5C 5534.67,640.103 5540.67,557.77 5574,477.5C 5615.9,389.936 5683.07,331.103 5775.5,301C 5805.67,291.808 5836.34,285.975 5867.5,283.5 Z"/></g>
<g><path style="opacity:0.991" fill="#7a141e" d="M 2095.5,289.5 C 2145.17,289.5 2194.83,289.5 2244.5,289.5C 2244.5,510.5 2244.5,731.5 2244.5,952.5C 2194.83,952.5 2145.17,952.5 2095.5,952.5C 2095.5,731.5 2095.5,510.5 2095.5,289.5 Z"/></g>
<g><path style="opacity:0.994" fill="#7a141e" d="M 2377.5,289.5 C 2452.17,289.167 2526.84,289.5 2601.5,290.5C 2652.71,434.314 2704.21,577.981 2756,721.5C 2807.67,577.833 2859.33,434.167 2911,290.5C 2985.43,289.502 3059.93,289.168 3134.5,289.5C 3134.5,510.5 3134.5,731.5 3134.5,952.5C 3084.83,952.5 3035.17,952.5 2985.5,952.5C 2985.67,783.166 2985.5,613.833 2985,444.5C 2926.19,613.756 2867.69,783.089 2809.5,952.5C 2771.5,952.5 2733.5,952.5 2695.5,952.5C 2639.69,782.91 2583.19,613.577 2526,444.5C 2525.5,613.833 2525.33,783.166 2525.5,952.5C 2476.17,952.5 2426.83,952.5 2377.5,952.5C 2377.5,731.5 2377.5,510.5 2377.5,289.5 Z"/></g>
<g><path style="opacity:0.994" fill="#7a141e" d="M 3269.5,289.5 C 3364.5,289.333 3459.5,289.5 3554.5,290C 3592.55,290.953 3629.55,297.619 3665.5,310C 3732.18,335.802 3765.18,384.636 3764.5,456.5C 3764.06,515.904 3738.06,560.071 3686.5,589C 3674.49,595.176 3662.15,600.51 3649.5,605C 3700.94,611.447 3741.44,635.613 3771,677.5C 3793.16,714.625 3800.82,754.625 3794,797.5C 3786.66,842.359 3764.5,877.859 3727.5,904C 3695.79,924.845 3661.12,938.511 3623.5,945C 3607.95,947.902 3592.28,949.902 3576.5,951C 3474.18,952.449 3371.84,952.949 3269.5,952.5C 3269.5,731.5 3269.5,510.5 3269.5,289.5 Z M 3417.5,413.5 C 3454.5,413.333 3491.5,413.5 3528.5,414C 3552.55,414.243 3574.55,420.91 3594.5,434C 3615.42,453.862 3621.59,477.695 3613,505.5C 3605.86,524.641 3592.69,537.808 3573.5,545C 3562.53,549.241 3551.2,551.908 3539.5,553C 3498.83,553.5 3458.17,553.667 3417.5,553.5C 3417.5,506.833 3417.5,460.167 3417.5,413.5 Z M 3417.5,678.5 C 3462.17,678.333 3506.83,678.5 3551.5,679C 3574.93,680.022 3596.93,686.022 3617.5,697C 3644,715.149 3653.17,739.983 3645,771.5C 3639.79,789.713 3628.96,803.546 3612.5,813C 3597.45,820.905 3581.45,825.571 3564.5,827C 3515.5,827.5 3466.5,827.667 3417.5,827.5C 3417.5,777.833 3417.5,728.167 3417.5,678.5 Z"/></g>
<g><path style="opacity:0.987" fill="#7a141e" d="M 3982.5,299.5 C 4015.51,299.167 4048.51,299.5 4081.5,300.5C 4206.83,480.167 4332.17,659.833 4457.5,839.5C 4458.5,659.501 4458.83,479.501 4458.5,299.5C 4484.5,299.5 4510.5,299.5 4536.5,299.5C 4536.5,516.5 4536.5,733.5 4536.5,950.5C 4503.26,950.829 4470.09,950.496 4437,949.5C 4312,770.167 4187,590.833 4062,411.5C 4061.5,591.166 4061.33,770.833 4061.5,950.5C 4035.17,950.5 4008.83,950.5 3982.5,950.5C 3982.5,733.5 3982.5,516.5 3982.5,299.5 Z"/></g>
<g><path style="opacity:0.992" fill="#7a141e" d="M 4696.5,299.5 C 4722.5,299.5 4748.5,299.5 4774.5,299.5C 4774.5,516.5 4774.5,733.5 4774.5,950.5C 4748.5,950.5 4722.5,950.5 4696.5,950.5C 4696.5,733.5 4696.5,516.5 4696.5,299.5 Z"/></g>
<g><path style="opacity:0.99" fill="#7a141e" d="M 5146.5,299.5 C 5171.07,299.172 5195.57,299.506 5220,300.5C 5312.17,517.017 5404.34,733.517 5496.5,950C 5465.83,950.833 5435.16,950.667 5404.5,949.5C 5382.54,896.582 5360.87,843.582 5339.5,790.5C 5231.5,790.333 5123.5,790.5 5015.5,791C 4992.88,843.694 4970.55,896.527 4948.5,949.5C 4918.84,950.667 4889.17,950.833 4859.5,950C 4955.46,733.279 5051.13,516.446 5146.5,299.5 Z M 5180.5,399.5 C 5223.58,505.544 5266.58,611.71 5309.5,718C 5221.83,718.5 5134.17,718.667 5046.5,718.5C 5090.89,612.058 5135.55,505.725 5180.5,399.5 Z"/></g>
<g><path style="opacity:0.99" fill="#7a141e" d="M 6506.5,299.5 C 6531.07,299.172 6555.57,299.506 6580,300.5C 6672.52,516.917 6764.36,733.584 6855.5,950.5C 6825.17,950.5 6794.83,950.5 6764.5,950.5C 6743.19,897.069 6721.19,843.903 6698.5,791C 6590.83,790.333 6483.17,790.333 6375.5,791C 6352.76,843.645 6330.43,896.478 6308.5,949.5C 6278.84,950.667 6249.17,950.833 6219.5,950C 6315.46,733.279 6411.13,516.446 6506.5,299.5 Z M 6540.5,399.5 C 6583.58,505.544 6626.58,611.71 6669.5,718C 6581.5,718.667 6493.5,718.667 6405.5,718C 6450.8,611.944 6495.8,505.777 6540.5,399.5 Z"/></g>
<g><path style="opacity:1" fill="#ef8f93" d="M 1091.5,596.5 C 1092.83,597.167 1092.83,597.833 1091.5,598.5C 891.833,598.5 692.167,598.5 492.5,598.5C 492.5,598.167 492.5,597.833 492.5,597.5C 692.334,597.833 892.001,597.5 1091.5,596.5 Z"/></g>
<g><path style="opacity:1" fill="#e01e25" d="M 492.5,598.5 C 692.167,598.5 891.833,598.5 1091.5,598.5C 997.568,714.438 903.235,830.105 808.5,945.5C 618.333,945.833 428.333,945.5 238.5,944.5C 322.812,828.862 407.479,713.529 492.5,598.5 Z"/></g>
<g><path style="opacity:1" fill="#ad1922" d="M 238.5,944.5 C 428.333,945.5 618.333,945.833 808.5,945.5C 618.333,946.833 428,946.833 237.5,945.5C 237.624,944.893 237.957,944.56 238.5,944.5 Z"/></g>
</svg>
