<?xml version="1.0" encoding="UTF-8"?>
<!DOCTYPE svg PUBLIC "-//W3C//DTD SVG 1.1//EN" "http://www.w3.org/Graphics/SVG/1.1/DTD/svg11.dtd">
<svg xmlns="http://www.w3.org/2000/svg" version="1.1" width="399px" height="307px" style="shape-rendering:geometricPrecision; text-rendering:geometricPrecision; image-rendering:optimizeQuality; fill-rule:evenodd; clip-rule:evenodd" xmlns:xlink="http://www.w3.org/1999/xlink">
<g><path style="opacity:0.996" fill="#fdfdfd" d="M 50.5,-0.5 C 166.5,-0.5 282.5,-0.5 398.5,-0.5C 398.5,84.1667 398.5,168.833 398.5,253.5C 392.691,281.975 375.691,299.642 347.5,306.5C 231.5,306.5 115.5,306.5 -0.5,306.5C -0.5,221.167 -0.5,135.833 -0.5,50.5C 6.16667,23.1667 23.1667,6.16667 50.5,-0.5 Z"/></g>
<g><path style="opacity:1" fill="#10468f" d="M 56.5,21.5 C 62.979,20.5093 69.6457,20.176 76.5,20.5C 76.5,73.1667 76.5,125.833 76.5,178.5C 71.8339,182.166 66.5005,183.832 60.5,183.5C 60.5,129.5 60.5,75.5 60.5,21.5C 59.1667,21.5 57.8333,21.5 56.5,21.5 Z"/></g>
<g><path style="opacity:1" fill="#0d4d97" d="M 76.5,20.5 C 80.1667,20.5 83.8333,20.5 87.5,20.5C 87.5,50.1667 87.5,79.8333 87.5,109.5C 85.901,109.232 84.5676,109.566 83.5,110.5C 83.6666,129.503 83.4999,148.503 83,167.5C 81.8277,171.858 79.6611,175.525 76.5,178.5C 76.5,125.833 76.5,73.1667 76.5,20.5 Z"/></g>
<g><path style="opacity:1" fill="#09549f" d="M 87.5,20.5 C 90.8333,20.5 94.1667,20.5 97.5,20.5C 97.5,50.1667 97.5,79.8333 97.5,109.5C 94.1667,109.5 90.8333,109.5 87.5,109.5C 87.5,79.8333 87.5,50.1667 87.5,20.5 Z"/></g>
<g><path style="opacity:1" fill="#065ca7" d="M 97.5,20.5 C 103.833,20.5 110.167,20.5 116.5,20.5C 116.5,50.1667 116.5,79.8333 116.5,109.5C 110.167,109.5 103.833,109.5 97.5,109.5C 97.5,79.8333 97.5,50.1667 97.5,20.5 Z"/></g>
<g><path style="opacity:1" fill="#0667b3" d="M 116.5,20.5 C 121.167,20.5 125.833,20.5 130.5,20.5C 130.667,97.1674 130.5,173.834 130,250.5C 127.089,264.006 119.589,274.006 107.5,280.5C 107.831,250.329 107.498,220.329 106.5,190.5C 114.2,185.608 119.033,178.608 121,169.5C 121.5,149.836 121.667,130.169 121.5,110.5C 108.833,110.5 96.1667,110.5 83.5,110.5C 84.5676,109.566 85.901,109.232 87.5,109.5C 90.8333,109.5 94.1667,109.5 97.5,109.5C 103.833,109.5 110.167,109.5 116.5,109.5C 116.5,79.8333 116.5,50.1667 116.5,20.5 Z"/></g>
<g><path style="opacity:1" fill="#9b1c33" d="M 182.5,20.5 C 186.167,20.5 189.833,20.5 193.5,20.5C 193.5,49.5 193.5,78.5 193.5,107.5C 197.702,107.183 201.702,107.517 205.5,108.5C 197.5,108.5 189.5,108.5 181.5,108.5C 181.175,79.0929 181.509,49.7596 182.5,20.5 Z"/></g>
<g><path style="opacity:1" fill="#aa1433" d="M 193.5,20.5 C 198.167,20.5 202.833,20.5 207.5,20.5C 206.854,50.0581 207.521,79.3914 209.5,108.5C 208.167,108.5 206.833,108.5 205.5,108.5C 201.702,107.517 197.702,107.183 193.5,107.5C 193.5,78.5 193.5,49.5 193.5,20.5 Z"/></g>
<g><path style="opacity:1" fill="#b71134" d="M 207.5,20.5 C 210.833,20.5 214.167,20.5 217.5,20.5C 217.5,50.1667 217.5,79.8333 217.5,109.5C 214.833,109.167 212.167,108.833 209.5,108.5C 207.521,79.3914 206.854,50.0581 207.5,20.5 Z"/></g>
<g><path style="opacity:1" fill="#c20d35" d="M 217.5,20.5 C 221.167,20.5 224.833,20.5 228.5,20.5C 228.5,50.5 228.5,80.5 228.5,110.5C 229.791,110.263 230.791,110.596 231.5,111.5C 226.833,110.833 222.167,110.167 217.5,109.5C 217.5,79.8333 217.5,50.1667 217.5,20.5 Z"/></g>
<g><path style="opacity:1" fill="#cf0836" d="M 228.5,20.5 C 232.5,20.5 236.5,20.5 240.5,20.5C 240.175,51.5735 240.508,82.5735 241.5,113.5C 238.167,112.833 234.833,112.167 231.5,111.5C 230.791,110.596 229.791,110.263 228.5,110.5C 228.5,80.5 228.5,50.5 228.5,20.5 Z"/></g>
<g><path style="opacity:1" fill="#d60637" d="M 240.5,20.5 C 242.5,20.5 244.5,20.5 246.5,20.5C 246.167,101.668 246.501,182.668 247.5,263.5C 244.865,269.134 240.865,273.467 235.5,276.5C 234.855,248.607 235.522,220.941 237.5,193.5C 238.708,192.766 240.041,192.433 241.5,192.5C 241.5,186.5 241.5,180.5 241.5,174.5C 239.784,174.629 238.117,174.962 236.5,175.5C 235.167,160.5 235.167,145.5 236.5,130.5C 238.17,130.751 239.67,131.418 241,132.5C 241.5,126.175 241.666,119.842 241.5,113.5C 240.508,82.5735 240.175,51.5735 240.5,20.5 Z"/></g>
<g><path style="opacity:1" fill="#de0438" d="M 246.5,20.5 C 248.833,20.5 251.167,20.5 253.5,20.5C 253.667,96.5007 253.5,172.501 253,248.5C 251.85,253.786 250.017,258.786 247.5,263.5C 246.501,182.668 246.167,101.668 246.5,20.5 Z"/></g>
<g><path style="opacity:1" fill="#209039" d="M 315.5,20.5 C 315.5,50.1667 315.5,79.8333 315.5,109.5C 314.209,109.263 313.209,109.596 312.5,110.5C 306.833,110.5 301.167,110.5 295.5,110.5C 296.568,109.566 297.901,109.232 299.5,109.5C 299.5,80.1667 299.5,50.8333 299.5,21.5C 304.772,20.5998 310.105,20.2665 315.5,20.5 Z"/></g>
<g><path style="opacity:1" fill="#2c9837" d="M 315.5,20.5 C 320.833,20.5 326.167,20.5 331.5,20.5C 331.5,50.5 331.5,80.5 331.5,110.5C 325.167,110.5 318.833,110.5 312.5,110.5C 313.209,109.596 314.209,109.263 315.5,109.5C 315.5,79.8333 315.5,50.1667 315.5,20.5 Z"/></g>
<g><path style="opacity:1" fill="#39a034" d="M 331.5,20.5 C 336.833,20.5 342.167,20.5 347.5,20.5C 347.5,51.5 347.5,82.5 347.5,113.5C 342.327,111.665 336.994,110.665 331.5,110.5C 331.5,80.5 331.5,50.5 331.5,20.5 Z"/></g>
<g><path style="opacity:1" fill="#46a833" d="M 347.5,20.5 C 352.5,20.5 357.5,20.5 362.5,20.5C 362.5,68.8333 362.5,117.167 362.5,165.5C 356.796,157.142 348.796,152.642 338.5,152C 354.409,148.659 360.576,139.159 357,123.5C 354.641,119.31 351.474,115.977 347.5,113.5C 347.5,82.5 347.5,51.5 347.5,20.5 Z"/></g>
<g><path style="opacity:1" fill="#4dad31" d="M 362.5,20.5 C 366.833,20.5 371.167,20.5 375.5,20.5C 375.667,97.5007 375.5,174.501 375,251.5C 372.492,262.876 366.326,271.543 356.5,277.5C 356.825,248.093 356.491,218.76 355.5,189.5C 363.056,183.153 365.39,175.153 362.5,165.5C 362.5,117.167 362.5,68.8333 362.5,20.5 Z"/></g>
<g><path style="opacity:1" fill="#143c85" d="M 56.5,21.5 C 57.8333,21.5 59.1667,21.5 60.5,21.5C 60.5,75.5 60.5,129.5 60.5,183.5C 55.9677,183.818 51.6344,183.485 47.5,182.5C 48.1623,129.823 47.4956,77.4894 45.5,25.5C 48.8004,23.3582 52.467,22.0249 56.5,21.5 Z"/></g>
<g><path style="opacity:1" fill="#921e31" d="M 182.5,20.5 C 181.509,49.7596 181.175,79.0929 181.5,108.5C 180.167,108.5 178.833,108.5 177.5,108.5C 176.172,79.5977 176.172,50.5977 177.5,21.5C 179.042,20.6993 180.708,20.366 182.5,20.5 Z"/></g>
<g><path style="opacity:1" fill="#8a2031" d="M 177.5,21.5 C 176.172,50.5977 176.172,79.5977 177.5,108.5C 173.615,109.49 169.615,110.49 165.5,111.5C 165.5,83.1667 165.5,54.8333 165.5,26.5C 169.266,24.2839 173.266,22.6172 177.5,21.5 Z"/></g>
<g><path style="opacity:1" fill="#13863c" d="M 299.5,21.5 C 299.5,50.8333 299.5,80.1667 299.5,109.5C 297.901,109.232 296.568,109.566 295.5,110.5C 290.5,110.5 285.5,110.5 280.5,110.5C 281.568,109.566 282.901,109.232 284.5,109.5C 284.5,82.8333 284.5,56.1667 284.5,29.5C 288.729,25.5499 293.729,22.8833 299.5,21.5 Z"/></g>
<g><path style="opacity:1" fill="#19337b" d="M 45.5,25.5 C 47.4956,77.4894 48.1623,129.823 47.5,182.5C 41.4482,181.813 35.7815,180.146 30.5,177.5C 31.8331,154.51 32.4998,131.176 32.5,107.5C 32.5,83.9976 32.1666,60.6643 31.5,37.5C 34.9596,32.1018 39.6263,28.1018 45.5,25.5 Z"/></g>
<g><path style="opacity:1" fill="#7c2630" d="M 165.5,26.5 C 165.5,54.8333 165.5,83.1667 165.5,111.5C 161.49,112.84 157.49,114.174 153.5,115.5C 152.502,90.3388 152.169,65.0055 152.5,39.5C 155.812,34.1879 160.145,29.8546 165.5,26.5 Z"/></g>
<g><path style="opacity:1" fill="#732a30" d="M 152.5,39.5 C 152.169,65.0055 152.502,90.3388 153.5,115.5C 150.833,117.5 148.167,119.5 145.5,121.5C 144.503,101.007 144.169,80.3401 144.5,59.5C 145.03,51.8948 147.697,45.2282 152.5,39.5 Z"/></g>
<g><path style="opacity:1" fill="#0d8041" d="M 284.5,29.5 C 284.5,56.1667 284.5,82.8333 284.5,109.5C 282.901,109.232 281.568,109.566 280.5,110.5C 275.833,110.5 271.167,110.5 266.5,110.5C 266.064,91.1203 266.564,71.7869 268,52.5C 271.084,42.9594 276.584,35.2928 284.5,29.5 Z"/></g>
<g><path style="opacity:1" fill="#1e2d74" d="M 31.5,37.5 C 32.1666,60.6643 32.5,83.9976 32.5,107.5C 32.4998,131.176 31.8331,154.51 30.5,177.5C 27.5939,176.213 24.5939,175.213 21.5,174.5C 21.3333,135.832 21.5,97.1652 22,58.5C 23.0382,50.4314 26.2049,43.4314 31.5,37.5 Z"/></g>
<g><path style="opacity:1" fill="#d5c2c3" d="M 144.5,59.5 C 144.169,80.3401 144.503,101.007 145.5,121.5C 145.44,122.043 145.107,122.376 144.5,122.5C 143.172,101.337 143.172,80.3372 144.5,59.5 Z"/></g>
<g><path style="opacity:1" fill="#aa1533" d="M 196.5,122.5 C 201.695,122.179 206.695,122.513 211.5,123.5C 210.167,123.5 208.833,123.5 207.5,123.5C 207.5,143.5 207.5,163.5 207.5,183.5C 203.833,183.5 200.167,183.5 196.5,183.5C 195.791,182.596 194.791,182.263 193.5,182.5C 193.5,162.833 193.5,143.167 193.5,123.5C 194.791,123.737 195.791,123.404 196.5,122.5 Z"/></g>
<g><path style="opacity:1" fill="#b91134" d="M 211.5,123.5 C 215.733,123.539 219.733,124.205 223.5,125.5C 222.503,143.659 222.17,161.992 222.5,180.5C 217.795,182.322 212.795,183.322 207.5,183.5C 207.5,163.5 207.5,143.5 207.5,123.5C 208.833,123.5 210.167,123.5 211.5,123.5 Z"/></g>
<g><path style="opacity:1" fill="#22903b" d="M 288.5,123.5 C 297.173,123.334 305.84,123.5 314.5,124C 319.938,125.373 322.605,128.873 322.5,134.5C 322.62,140.084 319.953,143.584 314.5,145C 305.84,145.5 297.173,145.666 288.5,145.5C 288.5,138.167 288.5,130.833 288.5,123.5 Z"/></g>
<g><path style="opacity:1" fill="#9b1c33" d="M 196.5,122.5 C 195.791,123.404 194.791,123.737 193.5,123.5C 193.5,143.167 193.5,162.833 193.5,182.5C 194.791,182.263 195.791,182.596 196.5,183.5C 190.78,183.044 185.78,181.044 181.5,177.5C 181.5,161.167 181.5,144.833 181.5,128.5C 185.78,124.956 190.78,122.956 196.5,122.5 Z"/></g>
<g><path style="opacity:1" fill="#c90c36" d="M 223.5,125.5 C 228.144,126.599 232.478,128.266 236.5,130.5C 235.167,145.5 235.167,160.5 236.5,175.5C 232.201,177.935 227.534,179.602 222.5,180.5C 222.17,161.992 222.503,143.659 223.5,125.5 Z"/></g>
<g><path style="opacity:1" fill="#922133" d="M 181.5,128.5 C 181.5,144.833 181.5,161.167 181.5,177.5C 175.175,173.649 171.342,167.983 170,160.5C 168.162,150.776 169.829,141.776 175,133.5C 176.777,131.21 178.944,129.543 181.5,128.5 Z"/></g>
<g><path style="opacity:1" fill="#16893b" d="M 307.5,158.5 C 307.5,166.167 307.5,173.833 307.5,181.5C 301.167,181.5 294.833,181.5 288.5,181.5C 288.5,173.833 288.5,166.167 288.5,158.5C 294.833,158.5 301.167,158.5 307.5,158.5 Z"/></g>
<g><path style="opacity:1" fill="#28943a" d="M 307.5,158.5 C 317.681,156.361 324.014,160.195 326.5,170C 324.119,179.874 317.785,183.707 307.5,181.5C 307.5,173.833 307.5,166.167 307.5,158.5 Z"/></g>
<g><path style="opacity:1" fill="#d4c1c2" d="M 145.5,184.5 C 144.502,217.996 144.168,251.663 144.5,285.5C 143.17,251.664 143.17,217.664 144.5,183.5C 145.107,183.624 145.44,183.957 145.5,184.5 Z"/></g>
<g><path style="opacity:1" fill="#72292f" d="M 145.5,184.5 C 148.167,186.5 150.833,188.5 153.5,190.5C 152.502,221.996 152.168,253.662 152.5,285.5C 149.833,285.5 147.167,285.5 144.5,285.5C 144.168,251.663 144.502,217.996 145.5,184.5 Z"/></g>
<g><path style="opacity:1" fill="#7e242f" d="M 153.5,190.5 C 157.5,191.833 161.5,193.167 165.5,194.5C 165.5,224.833 165.5,255.167 165.5,285.5C 161.167,285.5 156.833,285.5 152.5,285.5C 152.168,253.662 152.502,221.996 153.5,190.5 Z"/></g>
<g><path style="opacity:1" fill="#394381" d="M 23.5,193.5 C 22.5019,223.995 22.1685,254.662 22.5,285.5C 21.1702,254.664 21.1702,223.664 22.5,192.5C 23.1067,192.624 23.44,192.957 23.5,193.5 Z"/></g>
<g><path style="opacity:1" fill="#1a2c73" d="M 23.5,193.5 C 26.5827,193.916 29.5827,194.583 32.5,195.5C 32.5,225.5 32.5,255.5 32.5,285.5C 29.1667,285.5 25.8333,285.5 22.5,285.5C 22.1685,254.662 22.5019,223.995 23.5,193.5 Z"/></g>
<g><path style="opacity:1" fill="#0a56a1" d="M 106.5,190.5 C 107.498,220.329 107.831,250.329 107.5,280.5C 101.265,283.799 94.5985,285.465 87.5,285.5C 88.1587,255.814 87.492,226.481 85.5,197.5C 92.5618,195.644 99.5618,193.311 106.5,190.5 Z"/></g>
<g><path style="opacity:1" fill="#c60c35" d="M 237.5,193.5 C 235.522,220.941 234.855,248.607 235.5,276.5C 231.941,280.115 227.607,282.449 222.5,283.5C 222.5,254.5 222.5,225.5 222.5,196.5C 227.395,195.121 232.395,194.121 237.5,193.5 Z"/></g>
<g><path style="opacity:1" fill="#3ea334" d="M 355.5,189.5 C 356.491,218.76 356.825,248.093 356.5,277.5C 352.192,281.152 347.192,283.486 341.5,284.5C 340.502,255.005 340.169,225.338 340.5,195.5C 346.006,194.667 351.006,192.667 355.5,189.5 Z"/></g>
<g><path style="opacity:1" fill="#17347d" d="M 32.5,195.5 C 37.5,196.167 42.5,196.833 47.5,197.5C 47.5,226.833 47.5,256.167 47.5,285.5C 42.5,285.5 37.5,285.5 32.5,285.5C 32.5,255.5 32.5,225.5 32.5,195.5 Z"/></g>
<g><path style="opacity:1" fill="#8c1f31" d="M 165.5,194.5 C 170.728,196.012 176.062,197.012 181.5,197.5C 181.5,226.833 181.5,256.167 181.5,285.5C 176.167,285.5 170.833,285.5 165.5,285.5C 165.5,255.167 165.5,224.833 165.5,194.5 Z"/></g>
<g><path style="opacity:1" fill="#0d8140" d="M 267.5,195.5 C 272.975,196.489 278.642,196.822 284.5,196.5C 284.5,226.167 284.5,255.833 284.5,285.5C 278.5,285.5 272.5,285.5 266.5,285.5C 266.169,255.329 266.502,225.329 267.5,195.5 Z"/></g>
<g><path style="opacity:1" fill="#14883c" d="M 267.5,195.5 C 281.5,195.5 295.5,195.5 309.5,195.5C 306.375,196.479 303.042,196.813 299.5,196.5C 299.5,226.167 299.5,255.833 299.5,285.5C 294.5,285.5 289.5,285.5 284.5,285.5C 284.5,255.833 284.5,226.167 284.5,196.5C 278.642,196.822 272.975,196.489 267.5,195.5 Z"/></g>
<g><path style="opacity:1" fill="#21903a" d="M 309.5,195.5 C 318.833,195.5 328.167,195.5 337.5,195.5C 330.352,196.492 323.019,196.825 315.5,196.5C 315.5,226.167 315.5,255.833 315.5,285.5C 310.167,285.5 304.833,285.5 299.5,285.5C 299.5,255.833 299.5,226.167 299.5,196.5C 303.042,196.813 306.375,196.479 309.5,195.5 Z"/></g>
<g><path style="opacity:1" fill="#2f9936" d="M 337.5,195.5 C 338.5,195.5 339.5,195.5 340.5,195.5C 340.169,225.338 340.502,255.005 341.5,284.5C 333.016,285.493 324.349,285.826 315.5,285.5C 315.5,255.833 315.5,226.167 315.5,196.5C 323.019,196.825 330.352,196.492 337.5,195.5 Z"/></g>
<g><path style="opacity:1" fill="#133d86" d="M 47.5,197.5 C 53.8097,198.19 60.143,198.524 66.5,198.5C 66.5,227.5 66.5,256.5 66.5,285.5C 60.1667,285.5 53.8333,285.5 47.5,285.5C 47.5,256.167 47.5,226.833 47.5,197.5 Z"/></g>
<g><path style="opacity:1" fill="#0c4e98" d="M 75.5,198.5 C 78.6248,197.521 81.9581,197.187 85.5,197.5C 87.492,226.481 88.1587,255.814 87.5,285.5C 83.8333,285.5 80.1667,285.5 76.5,285.5C 76.8314,256.329 76.498,227.329 75.5,198.5 Z"/></g>
<g><path style="opacity:1" fill="#9c1d34" d="M 181.5,197.5 C 190.5,197.5 199.5,197.5 208.5,197.5C 208.5,198.167 208.167,198.5 207.5,198.5C 202.833,198.5 198.167,198.5 193.5,198.5C 193.5,227.5 193.5,256.5 193.5,285.5C 189.5,285.5 185.5,285.5 181.5,285.5C 181.5,256.167 181.5,226.833 181.5,197.5 Z"/></g>
<g><path style="opacity:1" fill="#b81034" d="M 222.5,196.5 C 222.5,225.5 222.5,254.5 222.5,283.5C 217.697,285.242 212.697,285.909 207.5,285.5C 207.5,256.5 207.5,227.5 207.5,198.5C 208.167,198.5 208.5,198.167 208.5,197.5C 213.193,197.46 217.859,197.127 222.5,196.5 Z"/></g>
<g><path style="opacity:1" fill="#0f4791" d="M 66.5,198.5 C 69.5,198.5 72.5,198.5 75.5,198.5C 76.498,227.329 76.8314,256.329 76.5,285.5C 73.1667,285.5 69.8333,285.5 66.5,285.5C 66.5,256.5 66.5,227.5 66.5,198.5 Z"/></g>
<g><path style="opacity:1" fill="#aa1433" d="M 207.5,198.5 C 207.5,227.5 207.5,256.5 207.5,285.5C 202.833,285.5 198.167,285.5 193.5,285.5C 193.5,256.5 193.5,227.5 193.5,198.5C 198.167,198.5 202.833,198.5 207.5,198.5 Z"/></g>
</svg>
