<?xml version="1.0" encoding="UTF-8"?>
<!DOCTYPE svg PUBLIC "-//W3C//DTD SVG 1.1//EN" "http://www.w3.org/Graphics/SVG/1.1/DTD/svg11.dtd">
<svg xmlns="http://www.w3.org/2000/svg" version="1.1" width="4060px" height="1200px" style="shape-rendering:geometricPrecision; text-rendering:geometricPrecision; image-rendering:optimizeQuality; fill-rule:evenodd; clip-rule:evenodd" xmlns:xlink="http://www.w3.org/1999/xlink">
<g><path style="opacity:0.997" fill="#ffc805" d="M 3096.5,25.5 C 3119.65,76.4719 3143.32,127.139 3167.5,177.5C 3168.71,182.251 3170.71,186.584 3173.5,190.5C 3174.71,195.251 3176.71,199.584 3179.5,203.5C 3180.71,208.251 3182.71,212.584 3185.5,216.5C 3186.71,221.251 3188.71,225.584 3191.5,229.5C 3192.71,234.251 3194.71,238.584 3197.5,242.5C 3198.71,247.251 3200.71,251.584 3203.5,255.5C 3204.28,259.052 3205.61,262.386 3207.5,265.5C 3190.65,266.531 3173.98,268.864 3157.5,272.5C 3152.74,261.98 3147.74,251.646 3142.5,241.5C 3141.29,236.749 3139.29,232.416 3136.5,228.5C 3135.29,223.749 3133.29,219.416 3130.5,215.5C 3129.29,210.749 3127.29,206.416 3124.5,202.5C 3123.29,197.749 3121.29,193.416 3118.5,189.5C 3117.29,184.749 3115.29,180.416 3112.5,176.5C 3111.29,171.749 3109.29,167.416 3106.5,163.5C 3086.73,118.848 3066.4,74.5145 3045.5,30.5C 3062.16,26.8628 3079.16,25.1961 3096.5,25.5 Z"/></g>
<g><path style="opacity:0.998" fill="#fec705" d="M 3096.5,25.5 C 3097.17,25.5 3097.83,25.5 3098.5,25.5C 3121.51,76.1775 3144.51,126.844 3167.5,177.5C 3143.32,127.139 3119.65,76.4719 3096.5,25.5 Z"/></g>
<g><path style="opacity:0.997" fill="#fec408" d="M 3098.5,25.5 C 3119.33,25.4276 3139.66,28.4276 3159.5,34.5C 3195.44,112.053 3231.11,189.72 3266.5,267.5C 3247.22,264.697 3227.89,264.031 3208.5,265.5C 3207.34,261.849 3205.67,258.515 3203.5,255.5C 3202.29,250.749 3200.29,246.416 3197.5,242.5C 3196.29,237.749 3194.29,233.416 3191.5,229.5C 3190.29,224.749 3188.29,220.416 3185.5,216.5C 3184.29,211.749 3182.29,207.416 3179.5,203.5C 3178.29,198.749 3176.29,194.416 3173.5,190.5C 3172.29,185.749 3170.29,181.416 3167.5,177.5C 3144.51,126.844 3121.51,76.1775 3098.5,25.5 Z"/></g>
<g><path style="opacity:0.996" fill="#fec408" d="M 3044.5,30.5 C 3064.8,75.0762 3085.46,119.41 3106.5,163.5C 3107.71,168.251 3109.71,172.584 3112.5,176.5C 3113.71,181.251 3115.71,185.584 3118.5,189.5C 3119.71,194.251 3121.71,198.584 3124.5,202.5C 3125.71,207.251 3127.71,211.584 3130.5,215.5C 3131.71,220.251 3133.71,224.584 3136.5,228.5C 3137.71,233.251 3139.71,237.584 3142.5,241.5C 3146.61,252.395 3151.28,263.061 3156.5,273.5C 3136.4,278.108 3116.74,284.108 3097.5,291.5C 3059.83,210.167 3022.17,128.833 2984.5,47.5C 3003.78,39.6764 3023.78,34.0098 3044.5,30.5 Z"/></g>
<g><path style="opacity:1" fill="#fec705" d="M 3044.5,30.5 C 3044.83,30.5 3045.17,30.5 3045.5,30.5C 3066.4,74.5145 3086.73,118.848 3106.5,163.5C 3085.46,119.41 3064.8,75.0762 3044.5,30.5 Z"/></g>
<g><path style="opacity:0.995" fill="#fdbf0b" d="M 3159.5,34.5 C 3182.16,41.1624 3202.82,51.4957 3221.5,65.5C 3254.83,138.167 3288.17,210.833 3321.5,283.5C 3303.64,276.547 3285.31,271.214 3266.5,267.5C 3231.11,189.72 3195.44,112.053 3159.5,34.5 Z"/></g>
<g><path style="opacity:0.996" fill="#fec408" d="M 2261.5,52.5 C 2296.9,130.291 2332.56,207.957 2368.5,285.5C 2341.05,283.511 2313.71,284.511 2286.5,288.5C 2249.69,208.082 2212.69,127.749 2175.5,47.5C 2204.5,43.7958 2233.16,45.4624 2261.5,52.5 Z"/></g>
<g><path style="opacity:0.997" fill="#ffc805" d="M 2172.5,47.5 C 2209.83,128.167 2247.17,208.833 2284.5,289.5C 2250.92,296.027 2218.59,306.361 2187.5,320.5C 2150.17,238.833 2112.83,157.167 2075.5,75.5C 2106.47,61.7351 2138.8,52.4017 2172.5,47.5 Z"/></g>
<g><path style="opacity:0.995" fill="#fec705" d="M 2172.5,47.5 C 2173.5,47.5 2174.5,47.5 2175.5,47.5C 2212.69,127.749 2249.69,208.082 2286.5,288.5C 2286.16,289.338 2285.49,289.672 2284.5,289.5C 2247.17,208.833 2209.83,128.167 2172.5,47.5 Z"/></g>
<g><path style="opacity:0.996" fill="#fdbf0b" d="M 2984.5,47.5 C 3022.17,128.833 3059.83,210.167 3097.5,291.5C 3082.9,298.129 3068.24,304.796 3053.5,311.5C 3015.83,229.505 2978.17,147.505 2940.5,65.5C 2954.72,58.3907 2969.38,52.3907 2984.5,47.5 Z"/></g>
<g><path style="opacity:0.994" fill="#fdbf0b" d="M 2261.5,52.5 C 2295.03,61.2564 2324.36,77.2564 2349.5,100.5C 2381.17,169.833 2412.83,239.167 2444.5,308.5C 2420.19,297.171 2394.85,289.504 2368.5,285.5C 2332.56,207.957 2296.9,130.291 2261.5,52.5 Z"/></g>
<g><path style="opacity:0.996" fill="#fdbc0c" d="M 2940.5,65.5 C 2978.17,147.505 3015.83,229.505 3053.5,311.5C 3049.82,314.008 3045.82,316.008 3041.5,317.5C 3004.07,235.645 2966.4,153.978 2928.5,72.5C 2932.14,69.677 2936.14,67.3437 2940.5,65.5 Z"/></g>
<g><path style="opacity:0.993" fill="#fdbc0c" d="M 3221.5,65.5 C 3228.81,70.8178 3235.81,76.4845 3242.5,82.5C 3274.5,152.5 3306.5,222.5 3338.5,292.5C 3332.88,289.303 3327.22,286.303 3321.5,283.5C 3288.17,210.833 3254.83,138.167 3221.5,65.5 Z"/></g>
<g><path style="opacity:0.996" fill="#fcb80e" d="M 2928.5,72.5 C 2966.4,153.978 3004.07,235.645 3041.5,317.5C 3023.83,328.336 3005.83,338.669 2987.5,348.5C 2949.56,266.958 2911.9,185.291 2874.5,103.5C 2892.46,93.1819 2910.46,82.8485 2928.5,72.5 Z"/></g>
<g><path style="opacity:0.996" fill="#fec806" d="M 2075.5,75.5 C 2112.83,157.167 2150.17,238.833 2187.5,320.5C 2182.02,323.403 2176.36,326.07 2170.5,328.5C 2132.74,246.649 2094.74,164.982 2056.5,83.5C 2062.44,80.0695 2068.78,77.4028 2075.5,75.5 Z"/></g>
<g><path style="opacity:0.982" fill="#fcb80e" d="M 3242.5,82.5 C 3264.82,102.973 3283.98,125.973 3300,151.5C 3308.94,166.765 3318.27,181.765 3328,196.5C 3339.82,209.145 3353.32,219.478 3368.5,227.5C 3392.44,280.99 3416.78,334.323 3441.5,387.5C 3419.44,355.943 3392.78,328.776 3361.5,306C 3354.13,300.984 3346.47,296.484 3338.5,292.5C 3306.5,222.5 3274.5,152.5 3242.5,82.5 Z"/></g>
<g><path style="opacity:0.996" fill="#fec409" d="M 2056.5,83.5 C 2094.74,164.982 2132.74,246.649 2170.5,328.5C 2108.85,362.991 2047.52,397.991 1986.5,433.5C 1948.74,351.649 1910.74,269.982 1872.5,188.5C 1933.31,152.708 1994.65,117.708 2056.5,83.5 Z"/></g>
<g><path style="opacity:0.992" fill="#ffc905" d="M 3843.5,346.5 C 3806.64,267.251 3769.97,187.918 3733.5,108.5C 3786.99,88.2474 3832.49,99.5807 3870,142.5C 3905.59,183.713 3939.26,226.379 3971,270.5C 3971.68,271.784 3971.52,272.951 3970.5,274C 3928.26,298.422 3885.93,322.589 3843.5,346.5 Z"/></g>
<g><path style="opacity:0.989" fill="#fdbc0c" d="M 2349.5,100.5 C 2363.27,111.596 2375.27,124.263 2385.5,138.5C 2414.22,200.344 2442.56,262.344 2470.5,324.5C 2462.08,318.736 2453.41,313.402 2444.5,308.5C 2412.83,239.167 2381.17,169.833 2349.5,100.5 Z"/></g>
<g><path style="opacity:0.996" fill="#fbb311" d="M 2874.5,103.5 C 2911.9,185.291 2949.56,266.958 2987.5,348.5C 2978.33,354.92 2968.67,360.587 2958.5,365.5C 2920.04,284.251 2882.38,202.584 2845.5,120.5C 2854.97,114.596 2864.63,108.929 2874.5,103.5 Z"/></g>
<g><path style="opacity:0.997" fill="#fec705" d="M 3733.5,108.5 C 3769.97,187.918 3806.64,267.251 3843.5,346.5C 3843.16,347.338 3842.49,347.672 3841.5,347.5C 3804.32,268.475 3767.66,189.142 3731.5,109.5C 3732.17,109.167 3732.83,108.833 3733.5,108.5 Z"/></g>
<g><path style="opacity:0.996" fill="#fec408" d="M 3731.5,109.5 C 3767.66,189.142 3804.32,268.475 3841.5,347.5C 3821.17,360.002 3800.5,372.002 3779.5,383.5C 3742.44,302.376 3705.1,221.376 3667.5,140.5C 3688,128.582 3709.34,118.249 3731.5,109.5 Z"/></g>
<g><path style="opacity:0.996" fill="#fbb013" d="M 2845.5,120.5 C 2882.38,202.584 2920.04,284.251 2958.5,365.5C 2947.76,372.225 2936.76,378.558 2925.5,384.5C 2887.6,303.022 2849.93,221.355 2812.5,139.5C 2823,132.412 2834,126.079 2845.5,120.5 Z"/></g>
<g><path style="opacity:0.986" fill="#fcb80f" d="M 2385.5,138.5 C 2392.85,147.032 2399.69,156.032 2406,165.5C 2414.92,179.667 2423.58,194 2432,208.5C 2456.43,239.309 2488.26,257.642 2527.5,263.5C 2563.36,340.415 2599.03,417.415 2634.5,494.5C 2607.68,482.858 2586.51,464.525 2571,439.5C 2546.61,393.268 2513.11,354.935 2470.5,324.5C 2442.56,262.344 2414.22,200.344 2385.5,138.5 Z"/></g>
<g><path style="opacity:0.996" fill="#faab16" d="M 2812.5,139.5 C 2849.93,221.355 2887.6,303.022 2925.5,384.5C 2908.1,395.224 2890.43,405.558 2872.5,415.5C 2834.23,333.954 2796.23,252.287 2758.5,170.5C 2776.17,159.664 2794.17,149.331 2812.5,139.5 Z"/></g>
<g><path style="opacity:0.996" fill="#fdbf0b" d="M 3667.5,140.5 C 3705.1,221.376 3742.44,302.376 3779.5,383.5C 3768.76,390.225 3757.76,396.558 3746.5,402.5C 3709.71,320.923 3672.38,239.59 3634.5,158.5C 3645.37,152.234 3656.37,146.234 3667.5,140.5 Z"/></g>
<g><path style="opacity:0.996" fill="#fdbc0c" d="M 3634.5,158.5 C 3672.38,239.59 3709.71,320.923 3746.5,402.5C 3744.66,404.588 3742.33,405.921 3739.5,406.5C 3701.59,325.685 3663.93,244.685 3626.5,163.5C 3628.79,161.347 3631.46,159.68 3634.5,158.5 Z"/></g>
<g><path style="opacity:1" fill="#fec705" d="M 3106.5,163.5 C 3109.29,167.416 3111.29,171.749 3112.5,176.5C 3109.71,172.584 3107.71,168.251 3106.5,163.5 Z"/></g>
<g><path style="opacity:0.996" fill="#fcb80e" d="M 3626.5,163.5 C 3663.93,244.685 3701.59,325.685 3739.5,406.5C 3729.2,413.322 3718.53,419.656 3707.5,425.5C 3669.82,344.094 3632.15,262.761 3594.5,181.5C 3604.84,174.997 3615.5,168.997 3626.5,163.5 Z"/></g>
<g><path style="opacity:0.997" fill="#f9a817" d="M 2758.5,170.5 C 2796.23,252.287 2834.23,333.954 2872.5,415.5C 2871.04,416.737 2869.37,417.737 2867.5,418.5C 2829.83,336.505 2792.17,254.505 2754.5,172.5C 2755.51,171.326 2756.85,170.66 2758.5,170.5 Z"/></g>
<g><path style="opacity:0.996" fill="#f8a817" d="M 2754.5,172.5 C 2792.17,254.505 2829.83,336.505 2867.5,418.5C 2866.71,419.401 2865.71,420.068 2864.5,420.5C 2826.5,338.5 2788.5,256.5 2750.5,174.5C 2751.6,173.4 2752.94,172.733 2754.5,172.5 Z"/></g>
<g><path style="opacity:0.996" fill="#f9a619" d="M 2750.5,174.5 C 2788.5,256.5 2826.5,338.5 2864.5,420.5C 2846.5,430.833 2828.5,441.167 2810.5,451.5C 2773.11,369.047 2735.44,286.714 2697.5,204.5C 2715.17,194.5 2732.83,184.5 2750.5,174.5 Z"/></g>
<g><path style="opacity:1" fill="#fec705" d="M 3112.5,176.5 C 3115.29,180.416 3117.29,184.749 3118.5,189.5C 3115.71,185.584 3113.71,181.251 3112.5,176.5 Z"/></g>
<g><path style="opacity:1" fill="#fec705" d="M 3167.5,177.5 C 3170.29,181.416 3172.29,185.749 3173.5,190.5C 3170.71,186.584 3168.71,182.251 3167.5,177.5 Z"/></g>
<g><path style="opacity:0.996" fill="#fbb311" d="M 3594.5,181.5 C 3632.15,262.761 3669.82,344.094 3707.5,425.5C 3702.63,428.434 3697.63,431.1 3692.5,433.5C 3654.82,352.094 3617.15,270.761 3579.5,189.5C 3584.02,186.073 3589.02,183.407 3594.5,181.5 Z"/></g>
<g><path style="opacity:0.996" fill="#fdc00b" d="M 1872.5,188.5 C 1910.74,269.982 1948.74,351.649 1986.5,433.5C 1975.33,440.922 1963.66,447.589 1951.5,453.5C 1913.23,371.954 1875.23,290.287 1837.5,208.5C 1848.67,201.078 1860.34,194.411 1872.5,188.5 Z"/></g>
<g><path style="opacity:1" fill="#fec705" d="M 3118.5,189.5 C 3121.29,193.416 3123.29,197.749 3124.5,202.5C 3121.71,198.584 3119.71,194.251 3118.5,189.5 Z"/></g>
<g><path style="opacity:0.996" fill="#fbb013" d="M 3579.5,189.5 C 3617.15,270.761 3654.82,352.094 3692.5,433.5C 3687.46,437.195 3682.12,440.528 3676.5,443.5C 3639.4,361.502 3601.73,279.835 3563.5,198.5C 3568.47,195.009 3573.81,192.009 3579.5,189.5 Z"/></g>
<g><path style="opacity:1" fill="#fec705" d="M 3173.5,190.5 C 3176.29,194.416 3178.29,198.749 3179.5,203.5C 3176.71,199.584 3174.71,195.251 3173.5,190.5 Z"/></g>
<g><path style="opacity:0.996" fill="#faab16" d="M 3563.5,198.5 C 3601.73,279.835 3639.4,361.502 3676.5,443.5C 3669,448.087 3661.33,452.42 3653.5,456.5C 3635.83,419.167 3618.17,381.833 3600.5,344.5C 3589.07,318.18 3577.07,292.18 3564.5,266.5C 3556.5,248.167 3548.5,229.833 3540.5,211.5C 3547.97,206.929 3555.64,202.596 3563.5,198.5 Z"/></g>
<g><path style="opacity:1" fill="#fec705" d="M 3124.5,202.5 C 3127.29,206.416 3129.29,210.749 3130.5,215.5C 3127.71,211.584 3125.71,207.251 3124.5,202.5 Z"/></g>
<g><path style="opacity:1" fill="#fec705" d="M 3179.5,203.5 C 3182.29,207.416 3184.29,211.749 3185.5,216.5C 3182.71,212.584 3180.71,208.251 3179.5,203.5 Z"/></g>
<g><path style="opacity:0.996" fill="#f8a817" d="M 2697.5,204.5 C 2735.44,286.714 2773.11,369.047 2810.5,451.5C 2809.49,452.674 2808.15,453.34 2806.5,453.5C 2768.5,371.5 2730.5,289.5 2692.5,207.5C 2694.33,206.752 2696,205.752 2697.5,204.5 Z"/></g>
<g><path style="opacity:0.996" fill="#f9a817" d="M 2692.5,207.5 C 2730.5,289.5 2768.5,371.5 2806.5,453.5C 2805.34,455.25 2803.67,456.25 2801.5,456.5C 2763.83,374.496 2726.16,292.496 2688.5,210.5C 2689.44,209.026 2690.77,208.026 2692.5,207.5 Z"/></g>
<g><path style="opacity:0.996" fill="#fdbd0e" d="M 1837.5,208.5 C 1875.23,290.287 1913.23,371.954 1951.5,453.5C 1921.34,471.47 1891,489.303 1860.5,507C 1839.5,516.583 1817.5,522.416 1794.5,524.5C 1759.03,447.415 1723.36,370.415 1687.5,293.5C 1737.2,264.648 1787.2,236.315 1837.5,208.5 Z"/></g>
<g><path style="opacity:0.996" fill="#faab16" d="M 2688.5,210.5 C 2726.16,292.496 2763.83,374.496 2801.5,456.5C 2779.6,470.361 2756.94,483.028 2733.5,494.5C 2695.28,412.733 2657.62,330.733 2620.5,248.5C 2642.93,235.404 2665.6,222.738 2688.5,210.5 Z"/></g>
<g><path style="opacity:0.994" fill="#f9a817" d="M 3540.5,211.5 C 3548.5,229.833 3556.5,248.167 3564.5,266.5C 3555.41,248.905 3547.07,230.905 3539.5,212.5C 3539.5,211.833 3539.83,211.5 3540.5,211.5 Z"/></g>
<g><path style="opacity:0.997" fill="#f9a817" d="M 3539.5,212.5 C 3547.07,230.905 3555.41,248.905 3564.5,266.5C 3577.07,292.18 3589.07,318.18 3600.5,344.5C 3617.22,382.275 3634.22,419.941 3651.5,457.5C 3651.16,458.338 3650.49,458.672 3649.5,458.5C 3611.64,376.918 3573.97,295.251 3536.5,213.5C 3537.39,212.89 3538.39,212.557 3539.5,212.5 Z"/></g>
<g><path style="opacity:0.996" fill="#f9a619" d="M 3536.5,213.5 C 3573.97,295.251 3611.64,376.918 3649.5,458.5C 3640.14,464.85 3630.14,470.183 3619.5,474.5C 3581.97,393.256 3544.64,311.923 3507.5,230.5C 3516.97,224.596 3526.63,218.929 3536.5,213.5 Z"/></g>
<g><path style="opacity:1" fill="#fec705" d="M 3130.5,215.5 C 3133.29,219.416 3135.29,223.749 3136.5,228.5C 3133.71,224.584 3131.71,220.251 3130.5,215.5 Z"/></g>
<g><path style="opacity:1" fill="#fec705" d="M 3185.5,216.5 C 3188.29,220.416 3190.29,224.749 3191.5,229.5C 3188.71,225.584 3186.71,221.251 3185.5,216.5 Z"/></g>
<g><path style="opacity:0.989" fill="#fbb311" d="M 3368.5,227.5 C 3380.93,233.754 3393.93,238.421 3407.5,241.5C 3442.44,317.047 3477.11,392.714 3511.5,468.5C 3489.9,455.4 3472.4,438.066 3459,416.5C 3453.31,406.667 3447.48,397.001 3441.5,387.5C 3416.78,334.323 3392.44,280.99 3368.5,227.5 Z"/></g>
<g><path style="opacity:1" fill="#fec705" d="M 3136.5,228.5 C 3139.29,232.416 3141.29,236.749 3142.5,241.5C 3139.71,237.584 3137.71,233.251 3136.5,228.5 Z"/></g>
<g><path style="opacity:1" fill="#fec705" d="M 3191.5,229.5 C 3194.29,233.416 3196.29,237.749 3197.5,242.5C 3194.71,238.584 3192.71,234.251 3191.5,229.5 Z"/></g>
<g><path style="opacity:0.996" fill="#f8a817" d="M 3507.5,230.5 C 3544.64,311.923 3581.97,393.256 3619.5,474.5C 3618.17,474.833 3616.83,475.167 3615.5,475.5C 3578.17,394.167 3540.83,312.833 3503.5,231.5C 3504.71,230.766 3506.04,230.433 3507.5,230.5 Z"/></g>
<g><path style="opacity:0.997" fill="#f9a817" d="M 3503.5,231.5 C 3540.83,312.833 3578.17,394.167 3615.5,475.5C 3614.61,476.11 3613.61,476.443 3612.5,476.5C 3574.59,395.685 3536.93,314.685 3499.5,233.5C 3500.67,232.655 3502,231.989 3503.5,231.5 Z"/></g>
<g><path style="opacity:0.997" fill="#faab16" d="M 3499.5,233.5 C 3536.93,314.685 3574.59,395.685 3612.5,476.5C 3594.45,484.064 3575.79,486.398 3556.5,483.5C 3519.56,403.957 3482.9,324.291 3446.5,244.5C 3464.64,243.005 3482.31,239.339 3499.5,233.5 Z"/></g>
<g><path style="opacity:0.98" fill="#fec705" d="M 3142.5,241.5 C 3147.74,251.646 3152.74,261.98 3157.5,272.5C 3157.5,273.167 3157.17,273.5 3156.5,273.5C 3151.28,263.061 3146.61,252.395 3142.5,241.5 Z"/></g>
<g><path style="opacity:0.996" fill="#fbb013" d="M 3407.5,241.5 C 3420.38,243.861 3433.38,244.861 3446.5,244.5C 3482.9,324.291 3519.56,403.957 3556.5,483.5C 3540.13,482.265 3525.13,477.265 3511.5,468.5C 3477.11,392.714 3442.44,317.047 3407.5,241.5 Z"/></g>
<g><path style="opacity:1" fill="#fec705" d="M 3197.5,242.5 C 3200.29,246.416 3202.29,250.749 3203.5,255.5C 3200.71,251.584 3198.71,247.251 3197.5,242.5 Z"/></g>
<g><path style="opacity:0.997" fill="#fbb013" d="M 2620.5,248.5 C 2657.62,330.733 2695.28,412.733 2733.5,494.5C 2718.64,501.464 2702.98,505.131 2686.5,505.5C 2649.44,424.376 2612.1,343.376 2574.5,262.5C 2590.69,260.436 2606.02,255.769 2620.5,248.5 Z"/></g>
<g><path style="opacity:0.946" fill="#fec705" d="M 3203.5,255.5 C 3205.67,258.515 3207.34,261.849 3208.5,265.5C 3208.17,265.5 3207.83,265.5 3207.5,265.5C 3205.61,262.386 3204.28,259.052 3203.5,255.5 Z"/></g>
<g><path style="opacity:0.996" fill="#fbb311" d="M 2574.5,262.5 C 2612.1,343.376 2649.44,424.376 2686.5,505.5C 2668.24,505.597 2650.91,501.93 2634.5,494.5C 2599.03,417.415 2563.36,340.415 2527.5,263.5C 2543.26,265.083 2558.93,264.749 2574.5,262.5 Z"/></g>
<g><path style="opacity:0.994" fill="#fcba11" d="M 1687.5,293.5 C 1723.36,370.415 1759.03,447.415 1794.5,524.5C 1754.09,526.307 1717.76,515.14 1685.5,491C 1674.71,483.045 1664.71,474.212 1655.5,464.5C 1637.44,424.048 1619.11,383.714 1600.5,343.5C 1629.3,326.596 1658.3,309.929 1687.5,293.5 Z"/></g>
<g><path style="opacity:0.963" fill="#fcb812" d="M 1600.5,343.5 C 1619.11,383.714 1637.44,424.048 1655.5,464.5C 1626.65,430.48 1598.32,395.98 1570.5,361C 1580.36,354.903 1590.36,349.069 1600.5,343.5 Z"/></g>
<g><path style="opacity:0.991" fill="#f9a817" d="M 3600.5,344.5 C 3618.17,381.833 3635.83,419.167 3653.5,456.5C 3653.16,457.338 3652.49,457.672 3651.5,457.5C 3634.22,419.941 3617.22,382.275 3600.5,344.5 Z"/></g>
<g><path style="opacity:0.992" fill="#0d3a70" d="M 2205.5,464.5 C 2247.17,464.5 2288.83,464.5 2330.5,464.5C 2330.33,663.834 2330.5,863.167 2331,1062.5C 2331.7,1093.19 2332.87,1123.86 2334.5,1154.5C 2297.17,1154.5 2259.83,1154.5 2222.5,1154.5C 2221,1128.48 2219.17,1102.48 2217,1076.5C 2191.83,1120.19 2154.67,1148.02 2105.5,1160C 2027.51,1176.89 1961.34,1156.39 1907,1098.5C 1870.08,1053.27 1849.75,1001.27 1846,942.5C 1841.52,890.982 1848.19,840.982 1866,792.5C 1885.9,742.275 1919.06,703.441 1965.5,676C 2021,647.551 2078.33,643.218 2137.5,663C 2165.6,673.282 2187.93,690.782 2204.5,715.5C 2205.5,631.836 2205.83,548.169 2205.5,464.5 Z M 2088.5,747.5 C 2147.89,748.394 2185.73,777.394 2202,834.5C 2203.56,842.092 2204.56,849.759 2205,857.5C 2205.67,889.167 2205.67,920.833 2205,952.5C 2201.97,1002.45 2177.8,1037.61 2132.5,1058C 2090.02,1071.57 2051.69,1064.24 2017.5,1036C 1990.07,1006.75 1975.23,971.919 1973,931.5C 1969.51,894.279 1974.51,858.279 1988,823.5C 2006.52,778.126 2040.02,752.793 2088.5,747.5 Z"/></g>
<g><path style="opacity:0.991" fill="#0d3a70" d="M 315.5,650.5 C 385.214,648.33 434.547,678.663 463.5,741.5C 489.159,701.49 524.492,673.657 569.5,658C 616.771,644.604 662.104,649.271 705.5,672C 738.022,692.874 760.522,721.707 773,758.5C 780.095,779.639 784.761,801.306 787,823.5C 788.475,933.817 788.975,1044.15 788.5,1154.5C 747.833,1154.5 707.167,1154.5 666.5,1154.5C 666.667,1056.17 666.5,957.833 666,859.5C 664.913,830.242 656.246,803.575 640,779.5C 618.209,756.461 591.709,748.294 560.5,755C 529.593,764.235 507.76,783.735 495,813.5C 491.518,823.911 489.184,834.578 488,845.5C 487.5,948.499 487.333,1051.5 487.5,1154.5C 446.5,1154.5 405.5,1154.5 364.5,1154.5C 364.667,1052.5 364.5,950.499 364,848.5C 362.581,822.568 354.248,799.235 339,778.5C 319.309,757.38 295.142,749.214 266.5,754C 237.93,760.237 216.43,776.071 202,801.5C 194.066,816.302 188.733,831.968 186,848.5C 185.5,950.499 185.333,1052.5 185.5,1154.5C 144.833,1154.5 104.167,1154.5 63.5,1154.5C 63.6667,1031.5 63.5,908.5 63,785.5C 62.7828,744.137 61.6161,702.803 59.5,661.5C 95.5,661.5 131.5,661.5 167.5,661.5C 168.668,685.183 170.168,708.85 172,732.5C 172.308,733.308 172.808,733.975 173.5,734.5C 206.66,682.699 253.993,654.699 315.5,650.5 Z"/></g>
<g><path style="opacity:0.991" fill="#0d3a70" d="M 1043.5,650.5 C 1083.18,648.584 1121.52,654.751 1158.5,669C 1200.03,687.524 1228.86,718.024 1245,760.5C 1255.81,790.53 1261.15,821.53 1261,853.5C 1261.33,931.167 1261.67,1008.83 1262,1086.5C 1262.61,1109.2 1264.78,1131.7 1268.5,1154C 1230.5,1154.5 1192.5,1154.67 1154.5,1154.5C 1152.17,1136.5 1149.83,1118.5 1147.5,1100.5C 1146.45,1100.35 1145.45,1100.52 1144.5,1101C 1111.09,1139.54 1068.76,1160.87 1017.5,1165C 973.222,1169.6 933.222,1158.93 897.5,1133C 867.357,1107.89 849.857,1075.73 845,1036.5C 838.89,962.538 868.057,907.704 932.5,872C 973.541,851.905 1016.87,839.905 1062.5,836C 1086.78,833.669 1111.11,832.503 1135.5,832.5C 1138.35,784.64 1116.68,754.807 1070.5,743C 1012.15,734.937 957.483,745.603 906.5,775C 905.216,775.684 904.049,775.517 903,774.5C 895.333,748.833 887.667,723.167 880,697.5C 879.219,696.056 879.386,694.723 880.5,693.5C 914.904,674.532 951.571,662.032 990.5,656C 1008.24,653.404 1025.91,651.571 1043.5,650.5 Z M 1101.5,914.5 C 1113.83,914.5 1126.17,914.5 1138.5,914.5C 1138.67,940.835 1138.5,967.169 1138,993.5C 1129.4,1035.11 1104.56,1061.61 1063.5,1073C 1044.2,1077.13 1025.2,1076.13 1006.5,1070C 984.395,1060 971.895,1042.84 969,1018.5C 965.086,978.485 981.253,949.985 1017.5,933C 1044.55,922.025 1072.55,915.858 1101.5,914.5 Z"/></g>
<g><path style="opacity:0.989" fill="#0d3a70" d="M 1606.5,650.5 C 1688.53,648.4 1745.03,685.066 1776,760.5C 1786.52,790.937 1791.85,822.271 1792,854.5C 1792.5,954.499 1792.67,1054.5 1792.5,1154.5C 1750.5,1154.5 1708.5,1154.5 1666.5,1154.5C 1666.67,1054.83 1666.5,955.166 1666,855.5C 1664.56,831.037 1657.56,808.37 1645,787.5C 1627.31,764.156 1603.64,752.49 1574,752.5C 1534.17,754.573 1504.5,772.906 1485,807.5C 1478.39,818.987 1474.39,831.32 1473,844.5C 1472.5,947.833 1472.33,1051.17 1472.5,1154.5C 1430.17,1154.5 1387.83,1154.5 1345.5,1154.5C 1345.67,1014.17 1345.5,873.833 1345,733.5C 1344.51,709.448 1343.35,685.448 1341.5,661.5C 1378.17,661.5 1414.83,661.5 1451.5,661.5C 1453.94,686.12 1455.94,710.786 1457.5,735.5C 1458.68,735.719 1459.68,735.386 1460.5,734.5C 1484.53,696.002 1518.53,670.502 1562.5,658C 1577.11,654.288 1591.78,651.788 1606.5,650.5 Z"/></g>
<g><path style="opacity:0.994" fill="#0d3a70" d="M 2417.5,661.5 C 2459.5,661.5 2501.5,661.5 2543.5,661.5C 2543.5,825.833 2543.5,990.167 2543.5,1154.5C 2501.5,1154.5 2459.5,1154.5 2417.5,1154.5C 2417.5,990.167 2417.5,825.833 2417.5,661.5 Z"/></g>
<g><path style="opacity:0.993" fill="#0d3a70" d="M 2626.5,661.5 C 2662.83,661.5 2699.17,661.5 2735.5,661.5C 2736.67,692.842 2738,724.176 2739.5,755.5C 2740.82,755.67 2741.99,755.337 2743,754.5C 2765.58,695.962 2808.42,665.129 2871.5,662C 2883.16,661.5 2894.83,661.333 2906.5,661.5C 2906.67,698.502 2906.5,735.502 2906,772.5C 2874.85,764.476 2844.69,767.309 2815.5,781C 2788.31,797.219 2770.47,820.719 2762,851.5C 2758.92,863.993 2756.92,876.66 2756,889.5C 2755.5,977.833 2755.33,1066.17 2755.5,1154.5C 2713.83,1154.5 2672.17,1154.5 2630.5,1154.5C 2630.67,1023.83 2630.5,893.166 2630,762.5C 2629.55,728.805 2628.38,695.138 2626.5,661.5 Z"/></g>
<g><path style="opacity:0.992" fill="#0d3a70" d="M 2963.5,661.5 C 3005.5,661.5 3047.5,661.5 3089.5,661.5C 3089.5,825.833 3089.5,990.167 3089.5,1154.5C 3047.5,1154.5 3005.5,1154.5 2963.5,1154.5C 2963.5,990.167 2963.5,825.833 2963.5,661.5 Z"/></g>
</svg>
