<?xml version="1.0" encoding="UTF-8"?>
<!DOCTYPE svg PUBLIC "-//W3C//DTD SVG 1.1//EN" "http://www.w3.org/Graphics/SVG/1.1/DTD/svg11.dtd">
<svg xmlns="http://www.w3.org/2000/svg" version="1.1" width="1582px" height="1200px" style="shape-rendering:geometricPrecision; text-rendering:geometricPrecision; image-rendering:optimizeQuality; fill-rule:evenodd; clip-rule:evenodd" xmlns:xlink="http://www.w3.org/1999/xlink">
<g><path style="opacity:0.998" fill="#e01f25" d="M 784.5,146.5 C 664.014,247.677 610.014,377.177 622.5,535C 635.921,644.515 682.921,736.515 763.5,811C 771.036,816.711 778.036,822.878 784.5,829.5C 683.611,906.642 569.945,935.808 443.5,917C 318.387,893.739 220.554,829.572 150,724.5C 79.9886,611.085 62.9886,490.085 99,361.5C 139.079,238.088 217.579,148.255 334.5,92C 431.429,49.3951 531.096,41.7284 633.5,69C 689.302,84.8969 739.635,110.73 784.5,146.5 Z"/></g>
<g><path style="opacity:0.998" fill="#f19c1e" d="M 785.5,829.5 C 906.182,727.048 960.015,596.381 947,437.5C 933.454,331.903 888.287,242.736 811.5,170C 803.5,163.333 795.5,156.667 787.5,150C 786.177,149.184 785.511,148.017 785.5,146.5C 855.325,91.2925 934.991,60.4591 1024.5,54C 1168.29,47.3442 1288.13,97.1775 1384,203.5C 1475.32,314.46 1506.99,440.793 1479,582.5C 1449.56,705.213 1381.06,799.046 1273.5,864C 1167.37,923.433 1055.37,937.766 937.5,907C 881.264,891.385 830.598,865.552 785.5,829.5 Z"/></g>
<g><path style="opacity:1" fill="#e76223" d="M 784.5,146.5 C 784.833,146.5 785.167,146.5 785.5,146.5C 785.511,148.017 786.177,149.184 787.5,150C 795.5,156.667 803.5,163.333 811.5,170C 888.287,242.736 933.454,331.903 947,437.5C 960.015,596.381 906.182,727.048 785.5,829.5C 785.167,829.5 784.833,829.5 784.5,829.5C 778.036,822.878 771.036,816.711 763.5,811C 682.921,736.515 635.921,644.515 622.5,535C 610.014,377.177 664.014,247.677 784.5,146.5 Z"/></g>
<g><path style="opacity:0.836" fill="#f19d1d" d="M 1453.5,706.5 C 1458.5,706.5 1463.5,706.5 1468.5,706.5C 1468.5,707.833 1468.5,709.167 1468.5,710.5C 1466.83,710.5 1465.17,710.5 1463.5,710.5C 1463.5,714.833 1463.5,719.167 1463.5,723.5C 1461.83,723.5 1460.17,723.5 1458.5,723.5C 1458.5,719.167 1458.5,714.833 1458.5,710.5C 1456.83,710.5 1455.17,710.5 1453.5,710.5C 1453.5,709.167 1453.5,707.833 1453.5,706.5 Z"/></g>
<g><path style="opacity:0.841" fill="#f19d1d" d="M 1470.5,706.5 C 1472.86,706.337 1475.19,706.503 1477.5,707C 1478.48,709.602 1479.64,712.102 1481,714.5C 1481.98,711.898 1483.14,709.398 1484.5,707C 1486.47,706.505 1488.47,706.338 1490.5,706.5C 1490.5,712.167 1490.5,717.833 1490.5,723.5C 1488.83,723.5 1487.17,723.5 1485.5,723.5C 1485.66,721.473 1485.5,719.473 1485,717.5C 1484.31,721.19 1482.14,722.357 1478.5,721C 1477.28,719.352 1476.45,717.519 1476,715.5C 1475.5,718.146 1475.34,720.813 1475.5,723.5C 1473.83,723.5 1472.17,723.5 1470.5,723.5C 1470.5,717.833 1470.5,712.167 1470.5,706.5 Z"/></g>
<g><path style="opacity:0.968" fill="#1c1c19" d="M 1393.5,979.5 C 1402.17,979.5 1410.83,979.5 1419.5,979.5C 1419.5,1033.83 1419.5,1088.17 1419.5,1142.5C 1410.83,1142.5 1402.17,1142.5 1393.5,1142.5C 1393.67,1138.49 1393.5,1134.49 1393,1130.5C 1379.52,1144.18 1363.36,1148.68 1344.5,1144C 1315.39,1134.99 1300.39,1115.16 1299.5,1084.5C 1302.78,1041.72 1325.78,1021.55 1368.5,1024C 1378.26,1026.13 1386.42,1030.96 1393,1038.5C 1393.5,1018.84 1393.67,999.169 1393.5,979.5 Z M 1357.5,1047.5 C 1381.3,1048.3 1393.97,1060.64 1395.5,1084.5C 1392.9,1109.95 1378.9,1121.78 1353.5,1120C 1338.36,1115.93 1329.53,1106.09 1327,1090.5C 1324.95,1067.19 1335.12,1052.86 1357.5,1047.5 Z"/></g>
<g><path style="opacity:0.971" fill="#1c1c19" d="M 644.5,991.5 C 653.167,991.5 661.833,991.5 670.5,991.5C 670.5,1003.17 670.5,1014.83 670.5,1026.5C 683.833,1026.5 697.167,1026.5 710.5,1026.5C 710.5,1034.5 710.5,1042.5 710.5,1050.5C 697.167,1050.5 683.833,1050.5 670.5,1050.5C 670.333,1069.17 670.5,1087.84 671,1106.5C 674.577,1118.05 682.411,1122.55 694.5,1120C 699.258,1118.75 703.758,1116.92 708,1114.5C 710.972,1121.61 713.805,1128.78 716.5,1136C 707.385,1142.7 697.052,1145.87 685.5,1145.5C 662.958,1146.11 649.458,1135.45 645,1113.5C 644.5,1092.5 644.333,1071.5 644.5,1050.5C 636.833,1050.5 629.167,1050.5 621.5,1050.5C 621.5,1042.5 621.5,1034.5 621.5,1026.5C 629.167,1026.5 636.833,1026.5 644.5,1026.5C 644.5,1014.83 644.5,1003.17 644.5,991.5 Z"/></g>
<g><path style="opacity:0.962" fill="#1c1c19" d="M 200.5,1023.5 C 220.637,1020.15 236.804,1026.48 249,1042.5C 256.336,1032.41 266.17,1026.25 278.5,1024C 299.657,1019.93 316.491,1026.43 329,1043.5C 331.789,1048.53 333.789,1053.87 335,1059.5C 335.5,1087.16 335.667,1114.83 335.5,1142.5C 327.167,1142.5 318.833,1142.5 310.5,1142.5C 310.942,1117.13 310.442,1091.8 309,1066.5C 302.854,1050.18 291.354,1044.68 274.5,1050C 265.949,1052.92 260.449,1058.75 258,1067.5C 256.538,1092.45 256.038,1117.45 256.5,1142.5C 247.833,1142.5 239.167,1142.5 230.5,1142.5C 230.963,1116.45 230.463,1090.45 229,1064.5C 223.305,1051.02 213.139,1045.85 198.5,1049C 188.86,1051.31 182.36,1057.14 179,1066.5C 177.538,1091.78 177.038,1117.12 177.5,1142.5C 168.833,1142.5 160.167,1142.5 151.5,1142.5C 151.5,1103.83 151.5,1065.17 151.5,1026.5C 159.833,1026.5 168.167,1026.5 176.5,1026.5C 176.334,1030.51 176.501,1034.51 177,1038.5C 183.231,1030.81 191.065,1025.81 200.5,1023.5 Z"/></g>
<g><path style="opacity:0.96" fill="#1c1c19" d="M 404.5,1023.5 C 422.192,1020.46 437.359,1025.12 450,1037.5C 450.499,1033.85 450.665,1030.18 450.5,1026.5C 459.5,1026.5 468.5,1026.5 477.5,1026.5C 477.5,1065.17 477.5,1103.83 477.5,1142.5C 468.5,1142.5 459.5,1142.5 450.5,1142.5C 450.666,1138.49 450.499,1134.49 450,1130.5C 440.798,1140.91 429.132,1145.91 415,1145.5C 378.181,1141.85 359.014,1121.51 357.5,1084.5C 357.836,1052.18 373.503,1031.85 404.5,1023.5 Z M 415.5,1047.5 C 435.652,1047.82 447.818,1057.82 452,1077.5C 454.223,1092.85 449.39,1105.35 437.5,1115C 420.661,1124.03 405.494,1121.86 392,1108.5C 383.18,1094.41 382.18,1079.74 389,1064.5C 395.367,1054.9 404.2,1049.24 415.5,1047.5 Z"/></g>
<g><path style="opacity:0.96" fill="#1c1c19" d="M 541.5,1023.5 C 561.56,1021.48 580.56,1024.98 598.5,1034C 599.357,1034.69 600.023,1035.52 600.5,1036.5C 596.919,1043.33 593.086,1050 589,1056.5C 572.769,1046.14 555.602,1043.97 537.5,1050C 529.176,1060.11 531.509,1066.61 544.5,1069.5C 557.789,1071.05 570.789,1073.88 583.5,1078C 600.282,1086.07 606.448,1099.23 602,1117.5C 596.425,1131.4 586.259,1139.9 571.5,1143C 547.573,1148.12 524.906,1144.79 503.5,1133C 502.313,1131.98 501.313,1130.81 500.5,1129.5C 504.25,1123 508.25,1116.66 512.5,1110.5C 531.376,1123.48 551.376,1125.65 572.5,1117C 578.09,1111.29 577.756,1105.95 571.5,1101C 567.637,1099.27 563.637,1097.93 559.5,1097C 548.624,1096.08 537.957,1094.08 527.5,1091C 506.938,1082.03 500.438,1066.86 508,1045.5C 515.585,1032.75 526.752,1025.42 541.5,1023.5 Z"/></g>
<g><path style="opacity:0.956" fill="#1c1c19" d="M 777.5,1023.5 C 815.39,1020.69 837.223,1038.02 843,1075.5C 843.667,1081.17 843.667,1086.83 843,1092.5C 815.059,1094.49 786.892,1095.15 758.5,1094.5C 761.354,1110.19 770.687,1119.35 786.5,1122C 800.655,1123.09 813.322,1119.26 824.5,1110.5C 829.394,1115.9 833.728,1121.73 837.5,1128C 835.846,1130.99 833.513,1133.32 830.5,1135C 804.188,1149.28 778.188,1148.95 752.5,1134C 734.853,1118.07 727.686,1098.23 731,1074.5C 734.929,1046.75 750.429,1029.75 777.5,1023.5 Z M 782.5,1046.5 C 801.049,1045.71 812.382,1054.38 816.5,1072.5C 797.178,1073.5 777.845,1073.83 758.5,1073.5C 760.301,1058.85 768.301,1049.85 782.5,1046.5 Z"/></g>
<g><path style="opacity:0.962" fill="#1c1c19" d="M 917.5,1023.5 C 924.508,1023.33 931.508,1023.5 938.5,1024C 940.608,1024.36 942.608,1025.03 944.5,1026C 941.833,1034 939.167,1042 936.5,1050C 931.792,1049.15 926.958,1048.65 922,1048.5C 906.929,1048.9 897.929,1056.56 895,1071.5C 894.5,1095.16 894.333,1118.83 894.5,1142.5C 886.5,1142.5 878.5,1142.5 870.5,1142.5C 870.5,1103.83 870.5,1065.17 870.5,1026.5C 878.5,1026.5 886.5,1026.5 894.5,1026.5C 894.334,1030.51 894.501,1034.51 895,1038.5C 900.558,1030.42 908.058,1025.42 917.5,1023.5 Z"/></g>
<g><path style="opacity:0.959" fill="#1c1c19" d="M 1001.5,1023.5 C 1016.13,1021.91 1030.13,1024.07 1043.5,1030C 1047.28,1031.95 1050.61,1034.45 1053.5,1037.5C 1049.65,1044.54 1045.32,1051.21 1040.5,1057.5C 1022.33,1043.92 1004.49,1044.25 987,1058.5C 975.178,1074.36 974.511,1090.69 985,1107.5C 997.086,1120.48 1011.59,1123.98 1028.5,1118C 1033.08,1116.13 1037.25,1113.63 1041,1110.5C 1044.75,1117 1048.75,1123.34 1053,1129.5C 1053.67,1130.5 1053.67,1131.5 1053,1132.5C 1029.42,1148.02 1004.92,1149.52 979.5,1137C 954.492,1119.32 945.658,1095.49 953,1065.5C 961.282,1042.29 977.449,1028.29 1001.5,1023.5 Z"/></g>
<g><path style="opacity:0.965" fill="#1c1c19" d="M 1114.5,1023.5 C 1132.79,1020.27 1148.29,1025.27 1161,1038.5C 1161.5,1034.51 1161.67,1030.51 1161.5,1026.5C 1170.17,1026.5 1178.83,1026.5 1187.5,1026.5C 1187.5,1065.17 1187.5,1103.83 1187.5,1142.5C 1178.83,1142.5 1170.17,1142.5 1161.5,1142.5C 1161.67,1138.49 1161.5,1134.49 1161,1130.5C 1143.9,1146.32 1124.4,1149.82 1102.5,1141C 1079.32,1129.5 1067.65,1110.67 1067.5,1084.5C 1068.06,1052.32 1083.73,1031.99 1114.5,1023.5 Z M 1125.5,1047.5 C 1152.84,1050.02 1165.01,1065.02 1162,1092.5C 1154.64,1116.49 1138.8,1124.99 1114.5,1118C 1098.49,1108.81 1091.99,1094.98 1095,1076.5C 1098.94,1060.05 1109.11,1050.38 1125.5,1047.5 Z"/></g>
<g><path style="opacity:0.959" fill="#1c1c19" d="M 1266.5,1023.5 C 1275.23,1023.16 1283.89,1023.66 1292.5,1025C 1293.02,1025.56 1293.36,1026.23 1293.5,1027C 1291.42,1035.24 1288.59,1043.07 1285,1050.5C 1261.76,1043.61 1248.09,1051.94 1244,1075.5C 1243.5,1097.83 1243.33,1120.16 1243.5,1142.5C 1235.5,1142.5 1227.5,1142.5 1219.5,1142.5C 1219.5,1103.83 1219.5,1065.17 1219.5,1026.5C 1227.5,1026.5 1235.5,1026.5 1243.5,1026.5C 1243.33,1030.85 1243.5,1035.18 1244,1039.5C 1249.27,1030.8 1256.77,1025.47 1266.5,1023.5 Z"/></g>
<g><path style="opacity:0.803" fill="#1c1c19" d="M 1468.5,1124.5 C 1482.01,1124.19 1486.85,1130.52 1483,1143.5C 1477.68,1149.37 1471.52,1150.54 1464.5,1147C 1456.84,1137.76 1458.17,1130.26 1468.5,1124.5 Z M 1467.5,1142.5 C 1466.54,1142.05 1465.71,1141.38 1465,1140.5C 1463.6,1131.13 1467.43,1127.63 1476.5,1130C 1480.72,1133.52 1481.22,1137.35 1478,1141.5C 1477.17,1140.67 1476.33,1139.83 1475.5,1139C 1477.65,1136.93 1477.98,1134.59 1476.5,1132C 1473.52,1131.5 1470.52,1131.34 1467.5,1131.5C 1467.5,1135.17 1467.5,1138.83 1467.5,1142.5 Z M 1467.5,1142.5 C 1469.45,1142.77 1470.95,1142.11 1472,1140.5C 1473.1,1141.97 1474.6,1142.8 1476.5,1143C 1473.33,1145.02 1470.33,1144.86 1467.5,1142.5 Z"/></g>
</svg>
