<?xml version="1.0" encoding="UTF-8"?>
<!DOCTYPE svg PUBLIC "-//W3C//DTD SVG 1.1//EN" "http://www.w3.org/Graphics/SVG/1.1/DTD/svg11.dtd">
<svg xmlns="http://www.w3.org/2000/svg" version="1.1" width="4472px" height="1200px" style="shape-rendering:geometricPrecision; text-rendering:geometricPrecision; image-rendering:optimizeQuality; fill-rule:evenodd; clip-rule:evenodd" xmlns:xlink="http://www.w3.org/1999/xlink">
<g><path style="opacity:0.987" fill="#e21e2a" d="M 4047.5,65.5 C 3982.45,86.7387 3917.11,107.405 3851.5,127.5C 3850.83,127.5 3850.17,127.5 3849.5,127.5C 3799.88,109.013 3750.54,90.013 3701.5,70.5C 3816.67,68.5063 3932,66.8396 4047.5,65.5 Z"/></g>
<g><path style="opacity:0.998" fill="#e83d4c" d="M 4047.5,65.5 C 4056.45,72.7776 4064.78,80.7776 4072.5,89.5C 4011.52,112.266 3950.86,135.599 3890.5,159.5C 3878.71,150.1 3866.71,140.933 3854.5,132C 3852.86,130.871 3851.86,129.371 3851.5,127.5C 3917.11,107.405 3982.45,86.7387 4047.5,65.5 Z"/></g>
<g><path style="opacity:0.997" fill="#961a25" d="M 3701.5,70.5 C 3750.54,90.013 3799.88,109.013 3849.5,127.5C 3842.71,138.149 3834.87,148.149 3826,157.5C 3825.52,158.448 3825.35,159.448 3825.5,160.5C 3780.83,136.831 3735.5,114.164 3689.5,92.5C 3692.21,85.4161 3695.21,78.4161 3698.5,71.5C 3699.32,70.6143 3700.32,70.281 3701.5,70.5 Z"/></g>
<g><path style="opacity:0.994" fill="#981b28" d="M 4072.5,89.5 C 4017.34,276.825 3961.67,463.992 3905.5,651C 3901.58,652.798 3897.58,654.298 3893.5,655.5C 3893.55,653.097 3893.22,650.764 3892.5,648.5C 3893.17,633.17 3893.5,617.67 3893.5,602C 3892.14,454.502 3891.14,307.002 3890.5,159.5C 3950.86,135.599 4011.52,112.266 4072.5,89.5 Z"/></g>
<g><path style="opacity:0.992" fill="#581718" d="M 3689.5,92.5 C 3735.5,114.164 3780.83,136.831 3825.5,160.5C 3848.21,323.116 3870.54,485.783 3892.5,648.5C 3893.22,650.764 3893.55,653.097 3893.5,655.5C 3889.89,653.693 3886.22,651.86 3882.5,650C 3817.67,464.335 3753.33,278.502 3689.5,92.5 Z"/></g>
<g><path style="opacity:1" fill="#de1e2b" d="M 3849.5,127.5 C 3850.17,127.5 3850.83,127.5 3851.5,127.5C 3851.86,129.371 3852.86,130.871 3854.5,132C 3866.71,140.933 3878.71,150.1 3890.5,159.5C 3891.14,307.002 3892.14,454.502 3893.5,602C 3893.5,617.67 3893.17,633.17 3892.5,648.5C 3870.54,485.783 3848.21,323.116 3825.5,160.5C 3825.35,159.448 3825.52,158.448 3826,157.5C 3834.87,148.149 3842.71,138.149 3849.5,127.5 Z"/></g>
<g><path style="opacity:0.997" fill="#3a6c34" d="M 4107.5,285.5 C 4134.43,327.693 4161.09,370.026 4187.5,412.5C 4174.19,419.487 4160.86,426.487 4147.5,433.5C 4126.07,388.313 4104.41,343.313 4082.5,298.5C 4083.57,297.115 4084.91,295.949 4086.5,295C 4093.61,291.095 4100.61,287.928 4107.5,285.5 Z"/></g>
<g><path style="opacity:0.988" fill="#579b43" d="M 4107.5,285.5 C 4198.15,325.933 4288.48,366.933 4378.5,408.5C 4314.76,409.489 4251.1,410.823 4187.5,412.5C 4161.09,370.026 4134.43,327.693 4107.5,285.5 Z"/></g>
<g><path style="opacity:0.997" fill="#1e98d5" d="M 3662.5,297.5 C 3673.51,303.669 3684.18,310.336 3694.5,317.5C 3662.82,358.872 3631.16,400.205 3599.5,441.5C 3585.06,435.445 3570.72,429.112 3556.5,422.5C 3556.5,422.167 3556.5,421.833 3556.5,421.5C 3592.18,380.486 3627.51,339.153 3662.5,297.5 Z"/></g>
<g><path style="opacity:0.984" fill="#01799b" d="M 3662.5,297.5 C 3627.51,339.153 3592.18,380.486 3556.5,421.5C 3513.81,420.412 3471.14,418.745 3428.5,416.5C 3506.18,376.326 3584.18,336.659 3662.5,297.5 Z"/></g>
<g><path style="opacity:0.991" fill="#235b2e" d="M 4082.5,298.5 C 4104.41,343.313 4126.07,388.313 4147.5,433.5C 4069.1,661.691 3991.1,890.024 3913.5,1118.5C 3911.6,1121.52 3910.27,1124.85 3909.5,1128.5C 3905.05,1122.93 3902.88,1116.6 3903,1109.5C 3962.69,839.092 4022.52,568.759 4082.5,298.5 Z"/></g>
<g><path style="opacity:0.993" fill="#00536d" d="M 3694.5,317.5 C 3755.41,518.154 3815.25,719.154 3874,920.5C 3871.92,924.993 3869.59,929.326 3867,933.5C 3866.33,934.252 3865.5,934.586 3864.5,934.5C 3862.83,931.167 3861.17,927.833 3859.5,924.5C 3773.09,763.341 3686.42,602.341 3599.5,441.5C 3631.16,400.205 3662.82,358.872 3694.5,317.5 Z"/></g>
<g><path style="opacity:0.999" fill="#7fb547" d="M 4378.5,408.5 C 4379.32,421.149 4379.65,433.815 4379.5,446.5C 4318.82,451.38 4258.16,456.38 4197.5,461.5C 4194.42,445.086 4191.08,428.753 4187.5,412.5C 4251.1,410.823 4314.76,409.489 4378.5,408.5 Z"/></g>
<g><path style="opacity:1" fill="#579b43" d="M 4187.5,412.5 C 4191.08,428.753 4194.42,445.086 4197.5,461.5C 4103.07,680.685 4008.4,899.685 3913.5,1118.5C 3991.1,890.024 4069.1,661.691 4147.5,433.5C 4160.86,426.487 4174.19,419.487 4187.5,412.5 Z"/></g>
<g><path style="opacity:0.996" fill="#00526d" d="M 3428.5,416.5 C 3471.14,418.745 3513.81,420.412 3556.5,421.5C 3556.5,421.833 3556.5,422.167 3556.5,422.5C 3555.21,436.126 3554.54,449.793 3554.5,463.5C 3512.3,453.966 3469.97,444.966 3427.5,436.5C 3427.18,429.646 3427.51,422.979 3428.5,416.5 Z"/></g>
<g><path style="opacity:1" fill="#01799a" d="M 3556.5,422.5 C 3570.72,429.112 3585.06,435.445 3599.5,441.5C 3686.42,602.341 3773.09,763.341 3859.5,924.5C 3757.47,771.127 3655.81,617.461 3554.5,463.5C 3554.54,449.793 3555.21,436.126 3556.5,422.5 Z"/></g>
<g><path style="opacity:0.988" fill="#013b56" d="M 3427.5,436.5 C 3469.97,444.966 3512.3,453.966 3554.5,463.5C 3655.81,617.461 3757.47,771.127 3859.5,924.5C 3861.17,927.833 3862.83,931.167 3864.5,934.5C 3859.16,933.777 3853.83,932.943 3848.5,932C 3707.96,766.961 3567.62,601.794 3427.5,436.5 Z"/></g>
<g><path style="opacity:0.993" fill="#4d7335" d="M 4379.5,446.5 C 4231.6,671.948 4083.44,897.281 3935,1122.5C 3934.1,1123.7 3932.93,1124.53 3931.5,1125C 3923.89,1126.57 3916.56,1127.74 3909.5,1128.5C 3910.27,1124.85 3911.6,1121.52 3913.5,1118.5C 4008.4,899.685 4103.07,680.685 4197.5,461.5C 4258.16,456.38 4318.82,451.38 4379.5,446.5 Z"/></g>
<g><path style="opacity:0.979" fill="#221f1f" d="M 65.5,713.5 C 128.168,713.333 190.834,713.5 253.5,714C 286.561,714.21 317.894,721.544 347.5,736C 372.122,751.378 386.622,773.545 391,802.5C 395.113,830.224 392.447,857.224 383,883.5C 372.439,907.727 354.939,924.894 330.5,935C 304.355,944.525 277.355,949.858 249.5,951C 228.184,952.218 206.851,952.718 185.5,952.5C 185.333,993.835 185.5,1035.17 186,1076.5C 186.285,1085.36 188.952,1093.36 194,1100.5C 201.95,1105.93 210.784,1108.76 220.5,1109C 226.157,1109.5 231.824,1109.67 237.5,1109.5C 237.5,1114.83 237.5,1120.17 237.5,1125.5C 179.5,1125.5 121.5,1125.5 63.5,1125.5C 63.5,1120.17 63.5,1114.83 63.5,1109.5C 71.5415,1109.66 79.5415,1109.16 87.5,1108C 103.512,1105.32 111.679,1095.82 112,1079.5C 112.667,972.833 112.667,866.167 112,759.5C 111.739,743.586 103.906,734.086 88.5,731C 80.842,730.001 73.1753,729.168 65.5,728.5C 65.5,723.5 65.5,718.5 65.5,713.5 Z M 185.5,730.5 C 283.647,720.146 326.147,763.813 313,861.5C 309.865,882.269 301.032,900.102 286.5,915C 268.31,927.841 247.977,934.507 225.5,935C 212.171,935.5 198.837,935.667 185.5,935.5C 185.5,867.167 185.5,798.833 185.5,730.5 Z"/></g>
<g><path style="opacity:0.969" fill="#221f1f" d="M 3344.5,714.5 C 3347.17,714.5 3349.83,714.5 3352.5,714.5C 3351.48,738.157 3350.65,761.824 3350,785.5C 3349.33,855.833 3349.33,926.167 3350,996.5C 3381.37,962.799 3412.37,928.799 3443,894.5C 3448.96,887.586 3452.46,879.586 3453.5,870.5C 3453.11,863.926 3449.77,859.426 3443.5,857C 3435.98,854.662 3428.31,853.162 3420.5,852.5C 3419.51,848.217 3419.17,843.884 3419.5,839.5C 3460.17,839.5 3500.83,839.5 3541.5,839.5C 3541.8,844.099 3541.47,848.599 3540.5,853C 3521.46,855.687 3504.46,863.02 3489.5,875C 3466.45,897.05 3444.45,920.05 3423.5,944C 3451.95,989.737 3480.79,1035.24 3510,1080.5C 3520.05,1095.04 3533.88,1103.04 3551.5,1104.5C 3551.5,1109.17 3551.5,1113.83 3551.5,1118.5C 3526.16,1118.83 3500.82,1118.5 3475.5,1117.5C 3449.52,1068.85 3421.52,1021.51 3391.5,975.5C 3377.88,990.957 3364.05,1006.29 3350,1021.5C 3349.33,1038.5 3349.33,1055.5 3350,1072.5C 3350.18,1079.73 3351.51,1086.73 3354,1093.5C 3355.83,1096.67 3358.33,1099.17 3361.5,1101C 3370.32,1103.63 3379.32,1105.13 3388.5,1105.5C 3389.49,1109.78 3389.83,1114.12 3389.5,1118.5C 3348.17,1118.5 3306.83,1118.5 3265.5,1118.5C 3265.2,1113.9 3265.53,1109.4 3266.5,1105C 3276.23,1105.4 3285.56,1103.73 3294.5,1100C 3299.62,1095.34 3302.45,1089.5 3303,1082.5C 3304.15,1027.02 3304.65,971.521 3304.5,916C 3304.65,860.81 3304.15,805.643 3303,750.5C 3301.4,739.273 3294.9,733.439 3283.5,733C 3277.51,732.501 3271.51,732.334 3265.5,732.5C 3265.5,727.833 3265.5,723.167 3265.5,718.5C 3292.02,717.857 3318.36,716.524 3344.5,714.5 Z"/></g>
<g><path style="opacity:0.976" fill="#221f1f" d="M 2280.5,719.5 C 2344.52,719.041 2408.52,719.541 2472.5,721C 2493.54,722.676 2513.87,727.343 2533.5,735C 2567.26,752.004 2582.76,779.504 2580,817.5C 2578.75,847.86 2564.91,870.36 2538.5,885C 2519.79,893.928 2500.13,899.594 2479.5,902C 2478.03,902.71 2477.36,903.876 2477.5,905.5C 2516.64,905.037 2549.47,919.037 2576,947.5C 2591.86,969.95 2598.2,994.95 2595,1022.5C 2591.76,1060.18 2572.92,1086.68 2538.5,1102C 2524.14,1108.34 2509.14,1112.34 2493.5,1114C 2475.91,1116.3 2458.24,1117.64 2440.5,1118C 2387.17,1118.5 2333.83,1118.67 2280.5,1118.5C 2280.5,1113.5 2280.5,1108.5 2280.5,1103.5C 2290.4,1104.18 2300.07,1103.02 2309.5,1100C 2316.12,1096.92 2319.96,1091.75 2321,1084.5C 2322.13,1029.35 2322.63,974.181 2322.5,919C 2322.63,863.819 2322.13,808.653 2321,753.5C 2317.97,740.821 2309.8,734.321 2296.5,734C 2291.18,733.501 2285.84,733.334 2280.5,733.5C 2280.5,728.833 2280.5,724.167 2280.5,719.5 Z M 2372.5,736.5 C 2398.19,736.111 2423.86,736.611 2449.5,738C 2507.97,744.134 2533.14,776.301 2525,834.5C 2519.08,861.087 2503.25,878.921 2477.5,888C 2468.37,890.949 2459.04,892.949 2449.5,894C 2423.86,895.389 2398.19,895.889 2372.5,895.5C 2372.5,842.5 2372.5,789.5 2372.5,736.5 Z M 2372.5,914.5 C 2399.52,914.105 2426.52,914.605 2453.5,916C 2508.96,920.456 2537.29,950.456 2538.5,1006C 2538.95,1062.21 2511.28,1093.21 2455.5,1099C 2427.86,1100.4 2400.19,1100.9 2372.5,1100.5C 2372.5,1038.5 2372.5,976.5 2372.5,914.5 Z"/></g>
<g><path style="opacity:0.98" fill="#221f1f" d="M 1851.5,748.5 C 1854.83,748.5 1858.17,748.5 1861.5,748.5C 1860,778.141 1859.33,807.808 1859.5,837.5C 1881.83,837.5 1904.17,837.5 1926.5,837.5C 1926.5,843.833 1926.5,850.167 1926.5,856.5C 1904.17,856.5 1881.83,856.5 1859.5,856.5C 1859.33,922.834 1859.5,989.168 1860,1055.5C 1860.31,1065.31 1861.64,1074.98 1864,1084.5C 1870.67,1104.42 1884.17,1111.59 1904.5,1106C 1913.72,1102.6 1922.05,1097.76 1929.5,1091.5C 1932.99,1095.79 1935.99,1100.46 1938.5,1105.5C 1905.14,1132.87 1867.8,1140.04 1826.5,1127C 1811.08,1120.59 1800.92,1109.42 1796,1093.5C 1793.35,1081.65 1792.02,1069.65 1792,1057.5C 1791.5,990.501 1791.33,923.501 1791.5,856.5C 1781.17,856.5 1770.83,856.5 1760.5,856.5C 1760.5,850.5 1760.5,844.5 1760.5,838.5C 1786.67,837.999 1805.5,825.999 1817,802.5C 1824.96,786.002 1830.12,768.669 1832.5,750.5C 1839.04,750.414 1845.37,749.747 1851.5,748.5 Z"/></g>
<g><path style="opacity:0.976" fill="#221f1f" d="M 527.5,829.5 C 559.309,826.627 588.975,833.127 616.5,849C 646.096,871.346 662.263,901.18 665,938.5C 666.099,949.14 666.599,959.806 666.5,970.5C 603.167,970.5 539.833,970.5 476.5,970.5C 475.557,999.737 480.057,1028.07 490,1055.5C 511.131,1103.81 546.965,1120.31 597.5,1105C 623.581,1093.09 642.915,1074.25 655.5,1048.5C 659.833,1051.17 664.167,1053.83 668.5,1056.5C 669.583,1057.36 669.749,1058.36 669,1059.5C 640.8,1113.86 595.966,1138.36 534.5,1133C 462.6,1125.77 420.1,1086.6 407,1015.5C 400.355,974.015 406.022,934.349 424,896.5C 447.299,856.93 481.799,834.597 527.5,829.5 Z M 532.5,843.5 C 552.996,841.165 568.496,848.831 579,866.5C 587.96,882.715 593.294,900.048 595,918.5C 595.981,930.163 596.814,941.829 597.5,953.5C 557.5,953.5 517.5,953.5 477.5,953.5C 477.422,921.468 485.589,891.801 502,864.5C 509.642,853.668 519.809,846.668 532.5,843.5 Z"/></g>
<g><path style="opacity:0.98" fill="#221f1f" d="M 867.5,829.5 C 886.078,827.093 901.911,832.426 915,845.5C 924.68,859.381 926.013,874.048 919,889.5C 912.434,898.372 903.601,903.539 892.5,905C 883.532,906.298 874.865,905.298 866.5,902C 865,900.5 863.5,899 862,897.5C 858.556,891.175 855.89,884.508 854,877.5C 850.109,869.534 843.943,867.034 835.5,870C 826.1,874.732 818.6,881.566 813,890.5C 803.745,906.6 798.745,923.933 798,942.5C 797.055,990.853 797.388,1039.19 799,1087.5C 799.953,1099.78 806.453,1106.95 818.5,1109C 825.851,1109.88 833.185,1110.71 840.5,1111.5C 841.493,1116.12 841.827,1120.79 841.5,1125.5C 790.167,1125.5 738.833,1125.5 687.5,1125.5C 687.5,1120.83 687.5,1116.17 687.5,1111.5C 693.477,1110.86 699.477,1110.36 705.5,1110C 714.099,1109.62 720.599,1105.79 725,1098.5C 727.442,1092.4 728.775,1086.07 729,1079.5C 729.973,1011.48 729.639,943.476 728,875.5C 727.161,862.938 720.661,855.438 708.5,853C 702.523,852.169 696.523,851.669 690.5,851.5C 690.5,846.833 690.5,842.167 690.5,837.5C 725.167,835.167 759.833,832.833 794.5,830.5C 795.126,850.16 795.626,869.827 796,889.5C 807.327,867.507 823.494,850.007 844.5,837C 851.991,833.558 859.658,831.058 867.5,829.5 Z"/></g>
<g><path style="opacity:0.981" fill="#221f1f" d="M 1126.5,829.5 C 1148.01,827.357 1168.35,831.19 1187.5,841C 1202.55,851.892 1212.55,866.392 1217.5,884.5C 1250.23,833.64 1295.57,817.806 1353.5,837C 1380.02,849.854 1394.86,871.021 1398,900.5C 1399.29,954.478 1399.96,1008.48 1400,1062.5C 1400.02,1073.27 1401.02,1083.94 1403,1094.5C 1404.74,1101.24 1408.9,1105.74 1415.5,1108C 1424.05,1109.97 1432.72,1111.14 1441.5,1111.5C 1441.5,1116.17 1441.5,1120.83 1441.5,1125.5C 1391.5,1125.5 1341.5,1125.5 1291.5,1125.5C 1291.5,1120.83 1291.5,1116.17 1291.5,1111.5C 1297.14,1110.87 1302.81,1110.37 1308.5,1110C 1320.75,1109.09 1327.91,1102.59 1330,1090.5C 1331.64,1031.19 1331.97,971.861 1331,912.5C 1330.58,895.573 1325.58,880.239 1316,866.5C 1301.7,854.982 1285.86,852.482 1268.5,859C 1254.44,865.726 1243.61,875.893 1236,889.5C 1228.13,902.442 1223.46,916.442 1222,931.5C 1221.33,980.167 1221.33,1028.83 1222,1077.5C 1222.14,1085.51 1223.8,1093.18 1227,1100.5C 1229.59,1103.76 1232.76,1106.26 1236.5,1108C 1245.05,1109.97 1253.72,1111.14 1262.5,1111.5C 1262.5,1116.17 1262.5,1120.83 1262.5,1125.5C 1212.83,1125.5 1163.17,1125.5 1113.5,1125.5C 1113.5,1120.83 1113.5,1116.17 1113.5,1111.5C 1119.48,1110.86 1125.48,1110.36 1131.5,1110C 1143.21,1108.63 1150.04,1102.13 1152,1090.5C 1153.11,1082.54 1153.78,1074.54 1154,1066.5C 1154.67,1020.83 1154.67,975.167 1154,929.5C 1154.22,911.126 1150.88,893.459 1144,876.5C 1137,862.658 1125.67,855.658 1110,855.5C 1093.18,856.911 1079.18,863.911 1068,876.5C 1055.14,892.562 1047.48,910.895 1045,931.5C 1044.33,981.833 1044.33,1032.17 1045,1082.5C 1045.4,1089.18 1047.07,1095.52 1050,1101.5C 1052.26,1104.43 1055.1,1106.6 1058.5,1108C 1067.05,1109.97 1075.72,1111.14 1084.5,1111.5C 1084.5,1116.17 1084.5,1120.83 1084.5,1125.5C 1034.5,1125.5 984.5,1125.5 934.5,1125.5C 934.5,1120.83 934.5,1116.17 934.5,1111.5C 940.477,1110.86 946.477,1110.36 952.5,1110C 964.296,1109.2 971.463,1103.04 974,1091.5C 975.064,1084.54 975.731,1077.54 976,1070.5C 976.667,1010.83 976.667,951.167 976,891.5C 976.361,880.994 974.361,870.994 970,861.5C 965.682,856.424 960.182,853.591 953.5,853C 947.502,852.409 941.502,851.909 935.5,851.5C 935.5,846.833 935.5,842.167 935.5,837.5C 971.5,835.167 1007.5,832.833 1043.5,830.5C 1043.21,847.526 1043.71,864.526 1045,881.5C 1064.05,851.395 1091.22,834.061 1126.5,829.5 Z"/></g>
<g><path style="opacity:0.98" fill="#221f1f" d="M 1580.5,829.5 C 1603.78,828.216 1626.78,830.05 1649.5,835C 1676.81,841.98 1693.65,859.146 1700,886.5C 1702.04,898.24 1703.21,910.073 1703.5,922C 1702.68,963.495 1702.02,1005 1701.5,1046.5C 1701.46,1059.86 1701.96,1073.19 1703,1086.5C 1703.55,1093.76 1706.38,1099.92 1711.5,1105C 1720.15,1108.37 1729.15,1109.87 1738.5,1109.5C 1738.5,1114.17 1738.5,1118.83 1738.5,1123.5C 1713.76,1126.7 1688.93,1129.04 1664,1130.5C 1652.85,1131.43 1645.18,1126.76 1641,1116.5C 1638.59,1107.65 1636.93,1098.65 1636,1089.5C 1600.68,1128.79 1557.51,1141.29 1506.5,1127C 1479.65,1116.48 1463.82,1096.98 1459,1068.5C 1452.12,1025.09 1468.29,993.919 1507.5,975C 1530.66,965.901 1554.66,960.234 1579.5,958C 1598.02,955.75 1616.52,953.916 1635,952.5C 1635.67,933.5 1635.67,914.5 1635,895.5C 1634.87,880.82 1631.2,867.154 1624,854.5C 1615.74,845.799 1605.57,842.133 1593.5,843.5C 1569.95,843.032 1555.78,854.366 1551,877.5C 1549.55,888.153 1548.21,898.82 1547,909.5C 1543.82,920.696 1536.32,926.529 1524.5,927C 1510.51,929.037 1497.18,927.037 1484.5,921C 1476.06,913.665 1473.22,904.498 1476,893.5C 1479.67,878.673 1487.5,866.507 1499.5,857C 1513.56,846.416 1529.22,839.083 1546.5,835C 1557.9,832.637 1569.23,830.803 1580.5,829.5 Z M 1631.5,966.5 C 1632.83,966.5 1634.17,966.5 1635.5,966.5C 1635.67,988.169 1635.5,1009.84 1635,1031.5C 1634.86,1052.91 1628.2,1071.91 1615,1088.5C 1600.37,1104.15 1582.54,1109.99 1561.5,1106C 1548.97,1100.46 1540.13,1091.3 1535,1078.5C 1529.79,1062.23 1528.12,1045.56 1530,1028.5C 1533.23,1006.2 1545.06,990.363 1565.5,981C 1586.96,973.143 1608.96,968.31 1631.5,966.5 Z"/></g>
<g><path style="opacity:0.978" fill="#221f1f" d="M 2068.5,829.5 C 2093.19,827.955 2117.53,830.122 2141.5,836C 2165.03,842.86 2180.19,858.026 2187,881.5C 2189.2,890.033 2190.53,898.699 2191,907.5C 2190.98,954.167 2190.48,1000.83 2189.5,1047.5C 2189.27,1061.9 2190.1,1076.24 2192,1090.5C 2192.96,1100.13 2198.13,1105.96 2207.5,1108C 2214.13,1109.05 2220.79,1109.55 2227.5,1109.5C 2227.5,1114.17 2227.5,1118.83 2227.5,1123.5C 2202.43,1126.72 2177.26,1129.06 2152,1130.5C 2141.87,1131.44 2134.53,1127.44 2130,1118.5C 2127.03,1109.04 2125.03,1099.37 2124,1089.5C 2090.78,1126.9 2049.62,1140.07 2000.5,1129C 1964.07,1116.54 1945.74,1090.87 1945.5,1052C 1945.6,1018.43 1960.27,993.762 1989.5,978C 2010.96,968.175 2033.46,962.009 2057,959.5C 2078.98,956.436 2100.98,954.102 2123,952.5C 2123.67,932.5 2123.67,912.5 2123,892.5C 2121.77,850.306 2100.93,835.139 2060.5,847C 2051.14,852.372 2044.64,860.205 2041,870.5C 2038.37,884.798 2036.04,899.131 2034,913.5C 2029.61,921.619 2022.77,926.119 2013.5,927C 2004.12,927.816 1994.79,927.483 1985.5,926C 1971.35,923.528 1964.02,915.195 1963.5,901C 1963.93,888.702 1968.1,877.869 1976,868.5C 1992.07,851.544 2011.57,840.377 2034.5,835C 2045.9,832.637 2057.23,830.803 2068.5,829.5 Z M 2119.5,966.5 C 2120.83,966.5 2122.17,966.5 2123.5,966.5C 2123.67,988.836 2123.5,1011.17 2123,1033.5C 2122.69,1059.29 2112.85,1080.45 2093.5,1097C 2081.51,1105.66 2068.17,1109 2053.5,1107C 2039.58,1102.75 2029.75,1093.91 2024,1080.5C 2015.77,1057.27 2015.44,1033.93 2023,1010.5C 2030.41,995.089 2042.25,984.589 2058.5,979C 2078.48,972.453 2098.81,968.286 2119.5,966.5 Z"/></g>
<g><path style="opacity:0.973" fill="#221f1f" d="M 2750.5,832.5 C 2763.84,832.333 2777.17,832.5 2790.5,833C 2836.82,835.65 2860.32,860.15 2861,906.5C 2860.67,948.329 2860.17,990.162 2859.5,1032C 2859.67,1045.83 2859.83,1059.67 2860,1073.5C 2860.58,1081.3 2861.91,1088.97 2864,1096.5C 2864.78,1098.29 2865.95,1099.79 2867.5,1101C 2876.6,1103.91 2885.93,1105.07 2895.5,1104.5C 2895.5,1108.83 2895.5,1113.17 2895.5,1117.5C 2880.87,1119.33 2866.21,1120.83 2851.5,1122C 2844.09,1122.89 2836.75,1122.56 2829.5,1121C 2824.6,1119.1 2821.43,1115.6 2820,1110.5C 2817.39,1099.99 2815.72,1089.32 2815,1078.5C 2799.34,1094.91 2781.18,1107.74 2760.5,1117C 2732.49,1126.96 2704.49,1126.96 2676.5,1117C 2660.55,1109.71 2649.38,1097.88 2643,1081.5C 2631.86,1051.42 2635.52,1023.42 2654,997.5C 2672.26,979.618 2694.1,968.451 2719.5,964C 2751.16,957.21 2783.16,953.043 2815.5,951.5C 2815.82,931.476 2815.32,911.476 2814,891.5C 2811.35,860.331 2794.35,845.331 2763,846.5C 2747.61,845.802 2733.77,849.969 2721.5,859C 2714.52,866.132 2710.02,874.632 2708,884.5C 2707,892.5 2706,900.5 2705,908.5C 2702.78,914.719 2698.28,918.219 2691.5,919C 2651.97,923.192 2642.47,908.026 2663,873.5C 2679.2,854.308 2699.7,842.142 2724.5,837C 2733.27,835.252 2741.94,833.752 2750.5,832.5 Z M 2804.5,965.5 C 2808.17,965.5 2811.83,965.5 2815.5,965.5C 2815.9,986.886 2815.07,1008.22 2813,1029.5C 2808.92,1065.49 2789.76,1089.33 2755.5,1101C 2717.79,1110.95 2695.29,1096.78 2688,1058.5C 2683.41,1019.15 2699.58,992.65 2736.5,979C 2758.8,972.009 2781.47,967.509 2804.5,965.5 Z"/></g>
<g><path style="opacity:0.973" fill="#221f1f" d="M 3093.5,832.5 C 3105.17,832.333 3116.84,832.5 3128.5,833C 3164.17,837.667 3186.34,857.501 3195,892.5C 3196.47,900.442 3197.47,908.442 3198,916.5C 3198.33,968.833 3198.67,1021.17 3199,1073.5C 3199.11,1081.72 3201.11,1089.38 3205,1096.5C 3209.86,1101.12 3215.69,1103.62 3222.5,1104C 3227.5,1104.33 3232.5,1104.67 3237.5,1105C 3238.47,1109.4 3238.8,1113.9 3238.5,1118.5C 3196.5,1118.5 3154.5,1118.5 3112.5,1118.5C 3112.17,1114.12 3112.51,1109.78 3113.5,1105.5C 3123.15,1105.28 3132.49,1103.45 3141.5,1100C 3146.49,1096.53 3149.32,1091.7 3150,1085.5C 3150.94,1076.52 3151.61,1067.52 3152,1058.5C 3152.67,1012.83 3152.67,967.167 3152,921.5C 3152.12,902.289 3147.12,884.622 3137,868.5C 3122.02,852.959 3103.86,847.459 3082.5,852C 3061.28,856.865 3045.12,868.699 3034,887.5C 3025.16,902.693 3019.49,919.027 3017,936.5C 3015.88,960.306 3015.38,984.139 3015.5,1008C 3015.67,1029.17 3015.83,1050.33 3016,1071.5C 3015.84,1080.38 3017.84,1088.71 3022,1096.5C 3026.86,1101.12 3032.69,1103.62 3039.5,1104C 3044.5,1104.33 3049.5,1104.67 3054.5,1105C 3055.47,1109.4 3055.8,1113.9 3055.5,1118.5C 3013.5,1118.5 2971.5,1118.5 2929.5,1118.5C 2929.2,1113.9 2929.53,1109.4 2930.5,1105C 2937.22,1104.77 2943.88,1104.11 2950.5,1103C 2959.52,1101.58 2965.02,1096.41 2967,1087.5C 2968,1082.55 2968.66,1077.55 2969,1072.5C 2969.97,1007.14 2969.63,941.812 2968,876.5C 2966.7,863.866 2959.86,856.366 2947.5,854C 2942.17,853.433 2936.83,852.933 2931.5,852.5C 2931.5,848.167 2931.5,843.833 2931.5,839.5C 2959.53,837.879 2987.53,835.879 3015.5,833.5C 3015.33,851.503 3015.5,869.503 3016,887.5C 3024.3,873.194 3034.8,860.694 3047.5,850C 3061.53,840.474 3076.86,834.64 3093.5,832.5 Z"/></g>
</svg>
