<?xml version="1.0" encoding="UTF-8"?>
<!DOCTYPE svg PUBLIC "-//W3C//DTD SVG 1.1//EN" "http://www.w3.org/Graphics/SVG/1.1/DTD/svg11.dtd">
<svg xmlns="http://www.w3.org/2000/svg" version="1.1" width="300px" height="111px" style="shape-rendering:geometricPrecision; text-rendering:geometricPrecision; image-rendering:optimizeQuality; fill-rule:evenodd; clip-rule:evenodd" xmlns:xlink="http://www.w3.org/1999/xlink">
<g><path style="opacity:0.86" fill="#000000" d="M -0.5,-0.5 C 12.5,-0.5 25.5,-0.5 38.5,-0.5C 38.5,1.5 38.5,3.5 38.5,5.5C 27.495,5.33349 16.495,5.50015 5.5,6C 4.51299,16.7517 4.17966,27.585 4.5,38.5C 2.83333,38.5 1.16667,38.5 -0.5,38.5C -0.5,25.5 -0.5,12.5 -0.5,-0.5 Z"/></g>
<g><path style="opacity:0.944" fill="#000000" d="M 11.5,9.5 C 17.8333,9.5 24.1667,9.5 30.5,9.5C 30.5,28.5 30.5,47.5 30.5,66.5C 40.1667,66.5 49.8333,66.5 59.5,66.5C 59.5,73.1667 59.5,79.8333 59.5,86.5C 43.2558,86.8248 27.0891,86.4914 11,85.5C 10.177,60.0944 10.3436,34.7611 11.5,9.5 Z"/></g>
<g><path style="opacity:0.934" fill="#000000" d="M 38.5,9.5 C 54.5035,9.33341 70.5035,9.50007 86.5,10C 87.4914,26.0891 87.8248,42.2558 87.5,58.5C 80.8333,58.5 74.1667,58.5 67.5,58.5C 67.5,48.8333 67.5,39.1667 67.5,29.5C 57.8333,29.5 48.1667,29.5 38.5,29.5C 38.5,22.8333 38.5,16.1667 38.5,9.5 Z"/></g>
<g><path style="opacity:0.952" fill="#000000" d="M 96.5,9.5 C 122.167,9.5 147.833,9.5 173.5,9.5C 173.5,25.8333 173.5,42.1667 173.5,58.5C 164.161,58.3335 154.827,58.5002 145.5,59C 154.955,67.4881 164.121,76.3214 173,85.5C 173.688,86.3317 173.521,86.9984 172.5,87.5C 162.88,86.6917 153.214,86.1917 143.5,86C 134.363,77.8641 125.53,69.3641 117,60.5C 116.5,69.1603 116.334,77.8269 116.5,86.5C 109.833,86.5 103.167,86.5 96.5,86.5C 96.5,70.5 96.5,54.5 96.5,38.5C 115.5,38.5 134.5,38.5 153.5,38.5C 153.5,35.5 153.5,32.5 153.5,29.5C 134.924,29.1741 116.424,29.5075 98,30.5C 96.5398,23.6767 96.0398,16.6767 96.5,9.5 Z"/></g>
<g><path style="opacity:0.903" fill="#000000" d="M 181.5,9.5 C 188.5,9.5 195.5,9.5 202.5,9.5C 202.5,35.1667 202.5,60.8333 202.5,86.5C 195.5,86.5 188.5,86.5 181.5,86.5C 181.5,60.8333 181.5,35.1667 181.5,9.5 Z"/></g>
<g><path style="opacity:0.958" fill="#000000" d="M 210.5,9.5 C 236.167,9.5 261.833,9.5 287.5,9.5C 287.96,16.6767 287.46,23.6767 286,30.5C 270.911,29.5092 255.745,29.1758 240.5,29.5C 240.5,32.5 240.5,35.5 240.5,38.5C 256.167,38.5 271.833,38.5 287.5,38.5C 287.5,54.5 287.5,70.5 287.5,86.5C 261.833,86.5 236.167,86.5 210.5,86.5C 210.5,79.8333 210.5,73.1667 210.5,66.5C 226.503,66.6666 242.503,66.4999 258.5,66C 257.167,63.6667 257.167,61.3333 258.5,59C 242.503,58.5001 226.503,58.3334 210.5,58.5C 210.5,42.1667 210.5,25.8333 210.5,9.5 Z"/></g>
<g><path style="opacity:0.782" fill="#000000" d="M 38.5,38.5 C 45.5,38.5 52.5,38.5 59.5,38.5C 59.5,45.1667 59.5,51.8333 59.5,58.5C 52.5,58.5 45.5,58.5 38.5,58.5C 38.5,51.8333 38.5,45.1667 38.5,38.5 Z M 45.5,44.5 C 48.1667,44.5 50.8333,44.5 53.5,44.5C 53.5,47.1667 53.5,49.8333 53.5,52.5C 50.4816,52.6646 47.4816,52.498 44.5,52C 45.435,49.6194 45.7683,47.1194 45.5,44.5 Z"/></g>
<g><path style="opacity:0.779" fill="#000000" d="M 299.5,60.5 C 299.5,73.5 299.5,86.5 299.5,99.5C 286.879,100.628 274.212,100.795 261.5,100C 260.167,98 260.167,96 261.5,94C 272.41,93.8214 283.243,93.3214 294,92.5C 294.5,81.8385 294.667,71.1719 294.5,60.5C 296.167,60.5 297.833,60.5 299.5,60.5 Z"/></g>
<g><path style="opacity:0.93" fill="#000000" d="M 87.5,110.5 C 80.8333,110.5 74.1667,110.5 67.5,110.5C 67.5,95.8333 67.5,81.1667 67.5,66.5C 74.1667,66.5 80.8333,66.5 87.5,66.5C 87.5,81.1667 87.5,95.8333 87.5,110.5 Z"/></g>
</svg>
