<?xml version="1.0" encoding="UTF-8"?>
<!DOCTYPE svg PUBLIC "-//W3C//DTD SVG 1.1//EN" "http://www.w3.org/Graphics/SVG/1.1/DTD/svg11.dtd">
<svg xmlns="http://www.w3.org/2000/svg" version="1.1" width="3840px" height="1200px" style="shape-rendering:geometricPrecision; text-rendering:geometricPrecision; image-rendering:optimizeQuality; fill-rule:evenodd; clip-rule:evenodd" xmlns:xlink="http://www.w3.org/1999/xlink">
<g><path style="opacity:0.996" fill="#11347e" d="M 2420.5,49.5 C 2516.5,47.5559 2609.5,63.2225 2699.5,96.5C 2683.91,172.278 2667.74,247.945 2651,323.5C 2566.4,284.181 2477.57,268.014 2384.5,275C 2353.22,277.87 2324.55,287.87 2298.5,305C 2253.67,342.611 2252.33,381.611 2294.5,422C 2311.3,435.237 2328.97,447.237 2347.5,458C 2396.14,483.318 2444.14,509.651 2491.5,537C 2525.86,558.34 2557.03,583.84 2585,613.5C 2633.4,669.699 2654.4,735.032 2648,809.5C 2639.02,915.672 2591.18,999.172 2504.5,1060C 2438.16,1103.34 2365.49,1130.34 2286.5,1141C 2166.61,1156.52 2048.27,1148.52 1931.5,1117C 1907.98,1110.83 1885.31,1102.49 1863.5,1092C 1880.35,1014.9 1897.02,937.734 1913.5,860.5C 1914.36,859.417 1915.36,859.251 1916.5,860C 1973.97,889.601 2034.64,909.601 2098.5,920C 2146.1,927.152 2193.77,927.819 2241.5,922C 2270.32,917.506 2296.99,907.506 2321.5,892C 2359.82,863.376 2369.32,827.209 2350,783.5C 2338.12,765.956 2323.29,751.456 2305.5,740C 2296.67,734.083 2287.67,728.417 2278.5,723C 2243.48,704.156 2208.15,685.823 2172.5,668C 2123.6,642.121 2080.1,608.954 2042,568.5C 1982.54,499.988 1963.54,421.321 1985,332.5C 1999.4,273.5 2027.9,222.667 2070.5,180C 2126.27,127.433 2191.6,91.4334 2266.5,72C 2317.13,58.6488 2368.46,51.1488 2420.5,49.5 Z"/></g>
<g><path style="opacity:0.996" fill="#11347e" d="M 225.5,69.5 C 386.167,69.3333 546.834,69.5 707.5,70C 768.059,79.8893 805.559,114.723 820,174.5C 858.452,379.876 897.118,585.209 936,790.5C 1031.14,550.25 1125.97,309.916 1220.5,69.5C 1317.5,69.3333 1414.5,69.5 1511.5,70C 1362.74,424.011 1214.41,778.178 1066.5,1132.5C 968.93,1132.83 871.43,1132.5 774,1131.5C 699.844,845.21 625.844,558.876 552,272.5C 547.168,251.171 537.835,232.171 524,215.5C 514.005,206.505 503.172,198.672 491.5,192C 443.309,167.823 393.309,148.157 341.5,133C 301.227,120.932 260.56,110.432 219.5,101.5C 220.859,90.7078 222.859,80.0411 225.5,69.5 Z"/></g>
<g><path style="opacity:0.996" fill="#11347e" d="M 1627.5,69.5 C 1719.5,69.1667 1811.5,69.5 1903.5,70.5C 1827.52,424.434 1751.85,778.434 1676.5,1132.5C 1584.5,1132.83 1492.5,1132.5 1400.5,1131.5C 1476.42,777.552 1552.09,423.552 1627.5,69.5 Z"/></g>
<g><path style="opacity:0.997" fill="#11347e" d="M 3149.5,69.5 C 3232.5,69.5 3315.5,69.5 3398.5,69.5C 3472.55,423.761 3546.22,778.094 3619.5,1132.5C 3534.5,1132.67 3449.5,1132.5 3364.5,1132C 3353.06,1079.28 3342.06,1026.45 3331.5,973.5C 3214.5,973.167 3097.5,973.5 2980.5,974.5C 2961.3,1026.76 2942.3,1079.09 2923.5,1131.5C 2826.83,1132.83 2730.17,1132.83 2633.5,1131.5C 2772.1,800.874 2910.6,470.207 3049,139.5C 3070.56,98.9743 3104.06,75.641 3149.5,69.5 Z M 3204.5,360.5 C 3231.94,491.688 3259.27,623.022 3286.5,754.5C 3210.84,755.667 3135.17,755.833 3059.5,755C 3108.13,623.604 3156.47,492.104 3204.5,360.5 Z"/></g>
</svg>
